G04 PROTEUS GERBER X2 FILE*
%TF.GenerationSoftware,Labcenter,Proteus,8.13-SP0-Build31525*%
%TF.CreationDate,2025-07-06T18:18:02+00:00*%
%TF.FileFunction,Soldermask,Top*%
%TF.FilePolarity,Negative*%
%TF.Part,Single*%
%TF.SameCoordinates,{7c6f6ce9-c7c3-4c68-b218-349a6216ac96}*%
%FSLAX45Y45*%
%MOMM*%
G01*
%TA.AperFunction,Material*%
%ADD24C,1.016000*%
%AMPPAD017*
4,1,36,
1.016000,-1.143000,
-1.016000,-1.143000,
-1.041970,-1.140470,
-1.065980,-1.133200,
-1.087580,-1.121650,
-1.106290,-1.106290,
-1.121650,-1.087570,
-1.133200,-1.065980,
-1.140470,-1.041970,
-1.143000,-1.016000,
-1.143000,1.016000,
-1.140470,1.041970,
-1.133200,1.065980,
-1.121650,1.087570,
-1.106290,1.106290,
-1.087580,1.121650,
-1.065980,1.133200,
-1.041970,1.140470,
-1.016000,1.143000,
1.016000,1.143000,
1.041970,1.140470,
1.065980,1.133200,
1.087580,1.121650,
1.106290,1.106290,
1.121650,1.087570,
1.133200,1.065980,
1.140470,1.041970,
1.143000,1.016000,
1.143000,-1.016000,
1.140470,-1.041970,
1.133200,-1.065980,
1.121650,-1.087570,
1.106290,-1.106290,
1.087580,-1.121650,
1.065980,-1.133200,
1.041970,-1.140470,
1.016000,-1.143000,
0*%
%TA.AperFunction,Material*%
%ADD25PPAD017*%
%AMPPAD018*
4,1,36,
1.143000,1.016000,
1.143000,-1.016000,
1.140470,-1.041970,
1.133200,-1.065980,
1.121650,-1.087580,
1.106290,-1.106290,
1.087570,-1.121650,
1.065980,-1.133200,
1.041970,-1.140470,
1.016000,-1.143000,
-1.016000,-1.143000,
-1.041970,-1.140470,
-1.065980,-1.133200,
-1.087570,-1.121650,
-1.106290,-1.106290,
-1.121650,-1.087580,
-1.133200,-1.065980,
-1.140470,-1.041970,
-1.143000,-1.016000,
-1.143000,1.016000,
-1.140470,1.041970,
-1.133200,1.065980,
-1.121650,1.087580,
-1.106290,1.106290,
-1.087570,1.121650,
-1.065980,1.133200,
-1.041970,1.140470,
-1.016000,1.143000,
1.016000,1.143000,
1.041970,1.140470,
1.065980,1.133200,
1.087570,1.121650,
1.106290,1.106290,
1.121650,1.087580,
1.133200,1.065980,
1.140470,1.041970,
1.143000,1.016000,
0*%
%TA.AperFunction,Material*%
%ADD26PPAD018*%
%TA.AperFunction,Material*%
%ADD27C,2.286000*%
%AMPPAD020*
4,1,36,
1.000000,-1.050000,
-1.000000,-1.050000,
-1.010220,-1.049000,
-1.019680,-1.046140,
-1.028180,-1.041590,
-1.035540,-1.035540,
-1.041590,-1.028180,
-1.046140,-1.019680,
-1.049000,-1.010220,
-1.050000,-1.000000,
-1.050000,1.000000,
-1.049000,1.010220,
-1.046140,1.019680,
-1.041590,1.028180,
-1.035540,1.035540,
-1.028180,1.041590,
-1.019680,1.046140,
-1.010220,1.049000,
-1.000000,1.050000,
1.000000,1.050000,
1.010220,1.049000,
1.019680,1.046140,
1.028180,1.041590,
1.035540,1.035540,
1.041590,1.028180,
1.046140,1.019680,
1.049000,1.010220,
1.050000,1.000000,
1.050000,-1.000000,
1.049000,-1.010220,
1.046140,-1.019680,
1.041590,-1.028180,
1.035540,-1.035540,
1.028180,-1.041590,
1.019680,-1.046140,
1.010220,-1.049000,
1.000000,-1.050000,
0*%
%TA.AperFunction,Material*%
%ADD28PPAD020*%
%ADD29C,2.100000*%
%ADD72C,1.524000*%
%AMPPAD023*
4,1,36,
1.016000,0.889000,
1.016000,-0.889000,
1.013470,-0.914970,
1.006200,-0.938980,
0.994650,-0.960580,
0.979290,-0.979290,
0.960570,-0.994650,
0.938980,-1.006200,
0.914970,-1.013470,
0.889000,-1.016000,
-0.889000,-1.016000,
-0.914970,-1.013470,
-0.938980,-1.006200,
-0.960570,-0.994650,
-0.979290,-0.979290,
-0.994650,-0.960580,
-1.006200,-0.938980,
-1.013470,-0.914970,
-1.016000,-0.889000,
-1.016000,0.889000,
-1.013470,0.914970,
-1.006200,0.938980,
-0.994650,0.960580,
-0.979290,0.979290,
-0.960570,0.994650,
-0.938980,1.006200,
-0.914970,1.013470,
-0.889000,1.016000,
0.889000,1.016000,
0.914970,1.013470,
0.938980,1.006200,
0.960570,0.994650,
0.979290,0.979290,
0.994650,0.960580,
1.006200,0.938980,
1.013470,0.914970,
1.016000,0.889000,
0*%
%TA.AperFunction,Material*%
%ADD73PPAD023*%
%ADD30C,2.032000*%
%TA.AperFunction,Profile*%
%ADD71C,0.203200*%
%TD.AperFunction*%
D24*
X-2583575Y+1670087D03*
X+3504138Y+2562505D03*
X+3242010Y+2164313D03*
X+2217956Y+3108263D03*
X+1521836Y-946771D03*
X+163047Y-1837346D03*
D25*
X-2310000Y+4440000D03*
X-2564000Y+4440000D03*
D26*
X-3030000Y+3350000D03*
X-4430000Y+3350000D03*
X-4430000Y+1050000D03*
X-4176000Y+1050000D03*
X-3284000Y+1050000D03*
X-3030000Y+1050000D03*
X-950000Y+3350000D03*
X-2350000Y+3350000D03*
X-2350000Y+1050000D03*
X-2096000Y+1050000D03*
X-1204000Y+1050000D03*
X-950000Y+1050000D03*
D25*
X+1285000Y+995000D03*
X+1285000Y+345000D03*
X+4335000Y+345000D03*
X+4335000Y+995000D03*
X+910000Y+4440000D03*
X+1164000Y+4440000D03*
X-830000Y+4440000D03*
X-576000Y+4440000D03*
D27*
X+325000Y+3281000D03*
X+325000Y+3027000D03*
X+325000Y+2773000D03*
X+325000Y+2519000D03*
X+4475000Y+2519000D03*
X+4475000Y+2773000D03*
X+4475000Y+3027000D03*
X+4475000Y+3281000D03*
D25*
X+2858000Y+4440000D03*
X+2604000Y+4440000D03*
X+2350000Y+4440000D03*
D28*
X-1080000Y-3652000D03*
D29*
X-1080000Y-3398000D03*
X-1080000Y-3144000D03*
X-1080000Y-2890000D03*
X-1080000Y-2636000D03*
X-1080000Y-2382000D03*
X-1080000Y-2128000D03*
X-1080000Y-1874000D03*
X-1080000Y-1620000D03*
X-1080000Y-1366000D03*
X-1080000Y-1112000D03*
X-1080000Y-858000D03*
X-1080000Y-604000D03*
X-1080000Y-350000D03*
X-1080000Y-96000D03*
X-3620000Y-96000D03*
X-3620000Y-350000D03*
X-3620000Y-604000D03*
X-3620000Y-858000D03*
X-3620000Y-1112000D03*
X-3620000Y-1366000D03*
X-3620000Y-1620000D03*
X-3620000Y-1874000D03*
X-3620000Y-2128000D03*
X-3620000Y-2382000D03*
X-3620000Y-2636000D03*
X-3620000Y-2890000D03*
X-3620000Y-3144000D03*
X-3620000Y-3398000D03*
X-3620000Y-3652000D03*
D72*
X-1122000Y+247000D03*
X-3573010Y+247000D03*
X-3573010Y-4447000D03*
X-1122000Y-4447000D03*
D26*
X-211000Y+1720000D03*
X+43000Y+1720000D03*
X+297000Y+1720000D03*
X+551000Y+1720000D03*
D73*
X+2000000Y-1456000D03*
D30*
X+2000000Y-1710000D03*
X+2000000Y-1964000D03*
X+2000000Y-2218000D03*
X+2000000Y-2472000D03*
X+4500000Y-2980000D03*
X+4500000Y-2726000D03*
X+4500000Y-2472000D03*
X+4500000Y-2218000D03*
X+4500000Y-1964000D03*
X+4500000Y-1710000D03*
D73*
X+4500000Y-1456000D03*
D71*
X-5000000Y-5000000D02*
X+5000000Y-5000000D01*
X+5000000Y+5000000D01*
X-5000000Y+5000000D01*
X-5000000Y-5000000D01*
M02*
