G04 PROTEUS GERBER X2 FILE*
%TF.GenerationSoftware,Labcenter,Proteus,8.13-SP0-Build31525*%
%TF.CreationDate,2025-07-06T18:18:02+00:00*%
%TF.FileFunction,Copper,L1,Top*%
%TF.FilePolarity,Positive*%
%TF.Part,Single*%
%TF.SameCoordinates,{7c6f6ce9-c7c3-4c68-b218-349a6216ac96}*%
%FSLAX45Y45*%
%MOMM*%
G01*
%TA.AperFunction,Conductor*%
%ADD10C,0.889000*%
%ADD11C,1.016000*%
%TA.AperFunction,ViaPad*%
%ADD12C,0.762000*%
%TA.AperFunction,Conductor*%
%ADD13C,0.762000*%
%TA.AperFunction,ComponentPad*%
%ADD14R,2.032000X2.032000*%
%TA.AperFunction,ComponentPad*%
%ADD15C,2.032000*%
%TA.AperFunction,ComponentPad*%
%ADD16R,2.000000X2.000000*%
%ADD17C,2.000000*%
%ADD18C,1.524000*%
%TA.AperFunction,ComponentPad*%
%ADD19R,1.778000X1.778000*%
%ADD70C,1.778000*%
%TA.AperFunction,Profile*%
%ADD71C,0.203200*%
%TD.AperFunction*%
G36*
X+1769956Y-139957D02*
X-916501Y-134040D01*
X-916501Y-63500D01*
X-773698Y-63500D01*
X-736500Y-26302D01*
X-736500Y+466302D01*
X-773698Y+503500D01*
X-1526302Y+503500D01*
X-1563500Y+466302D01*
X-1563500Y-26302D01*
X-1526302Y-63500D01*
X-1243499Y-63500D01*
X-1243499Y-133320D01*
X-2761350Y-129977D01*
X-2770044Y-3989957D01*
X-4820044Y-3989957D01*
X-4820044Y+2320043D01*
X-4544299Y+2320043D01*
X-4544299Y+1215099D01*
X-4595099Y+1215099D01*
X-4595099Y+884901D01*
X-4010901Y+884901D01*
X-4010901Y+1215099D01*
X-4242969Y+1215099D01*
X-3897786Y+1560282D01*
X-3021924Y+1560282D01*
X-2515099Y+1053457D01*
X-2515099Y+884901D01*
X-1930901Y+884901D01*
X-1930901Y+1053457D01*
X-1318299Y+1666059D01*
X-1318299Y+1215099D01*
X-1369099Y+1215099D01*
X-1369099Y+884901D01*
X-784901Y+884901D01*
X-784901Y+1215099D01*
X-1089701Y+1215099D01*
X-1089701Y+1658960D01*
X-428618Y+2320043D01*
X-325299Y+2320043D01*
X-325299Y+1885099D01*
X-376099Y+1885099D01*
X-376099Y+1554901D01*
X+716099Y+1554901D01*
X+716099Y+1885099D01*
X-96701Y+1885099D01*
X-96701Y+4261657D01*
X+247343Y+4605701D01*
X+1779543Y+4605701D01*
X+1769956Y-139957D01*
G37*
%LPC*%
G36*
X-3236500Y+536302D02*
X-3236500Y-26302D01*
X-3273698Y-63500D01*
X-3456501Y-63500D01*
X-3456501Y-163724D01*
X-3515777Y-223000D01*
X-3456501Y-282276D01*
X-3456501Y-417724D01*
X-3515777Y-477000D01*
X-3456501Y-536276D01*
X-3456501Y-671724D01*
X-3515777Y-731000D01*
X-3456501Y-790276D01*
X-3456501Y-925724D01*
X-3515777Y-985000D01*
X-3456501Y-1044276D01*
X-3456501Y-1179724D01*
X-3515777Y-1239000D01*
X-3456501Y-1298276D01*
X-3456501Y-1433724D01*
X-3515777Y-1493000D01*
X-3456501Y-1552276D01*
X-3456501Y-1687724D01*
X-3515777Y-1747000D01*
X-3456501Y-1806276D01*
X-3456501Y-1941724D01*
X-3515777Y-2001000D01*
X-3456501Y-2060276D01*
X-3456501Y-2195724D01*
X-3515777Y-2255000D01*
X-3456501Y-2314276D01*
X-3456501Y-2449724D01*
X-3515777Y-2509000D01*
X-3456501Y-2568276D01*
X-3456501Y-2703724D01*
X-3515777Y-2763000D01*
X-3456501Y-2822276D01*
X-3456501Y-2957724D01*
X-3515777Y-3017000D01*
X-3456501Y-3076276D01*
X-3456501Y-3211724D01*
X-3515777Y-3271000D01*
X-3456501Y-3330276D01*
X-3456501Y-3465724D01*
X-3515777Y-3525000D01*
X-3456501Y-3584276D01*
X-3456501Y-3719724D01*
X-3552276Y-3815499D01*
X-3687724Y-3815499D01*
X-3783499Y-3719724D01*
X-3783499Y-3584276D01*
X-3724223Y-3525000D01*
X-3783499Y-3465724D01*
X-3783499Y-3330276D01*
X-3724223Y-3271000D01*
X-3783499Y-3211724D01*
X-3783499Y-3076276D01*
X-3724223Y-3017000D01*
X-3783499Y-2957724D01*
X-3783499Y-2822276D01*
X-3724223Y-2763000D01*
X-3783499Y-2703724D01*
X-3783499Y-2568276D01*
X-3724223Y-2509000D01*
X-3783499Y-2449724D01*
X-3783499Y-2314276D01*
X-3724223Y-2255000D01*
X-3783499Y-2195724D01*
X-3783499Y-2060276D01*
X-3724223Y-2001000D01*
X-3783499Y-1941724D01*
X-3783499Y-1806276D01*
X-3724223Y-1747000D01*
X-3783499Y-1687724D01*
X-3783499Y-1552276D01*
X-3724223Y-1493000D01*
X-3783499Y-1433724D01*
X-3783499Y-1298276D01*
X-3724223Y-1239000D01*
X-3783499Y-1179724D01*
X-3783499Y-1044276D01*
X-3724223Y-985000D01*
X-3783499Y-925724D01*
X-3783499Y-790276D01*
X-3724223Y-731000D01*
X-3783499Y-671724D01*
X-3783499Y-536276D01*
X-3724223Y-477000D01*
X-3783499Y-417724D01*
X-3783499Y-282276D01*
X-3724223Y-223000D01*
X-3783499Y-163724D01*
X-3783499Y-63500D01*
X-3926302Y-63500D01*
X-3963500Y-26302D01*
X-3963500Y+536302D01*
X-3926302Y+573500D01*
X-3273698Y+573500D01*
X-3236500Y+536302D01*
G37*
G36*
X-2864901Y+884901D02*
X-3449099Y+884901D01*
X-3449099Y+1215099D01*
X-2864901Y+1215099D01*
X-2864901Y+884901D01*
G37*
G36*
X+1119901Y+1160099D02*
X+1450099Y+1160099D01*
X+1450099Y+829901D01*
X+1119901Y+829901D01*
X+1119901Y+1160099D01*
G37*
G36*
X+1119901Y+510099D02*
X+1450099Y+510099D01*
X+1450099Y+179901D01*
X+1119901Y+179901D01*
X+1119901Y+510099D01*
G37*
G36*
X+1329099Y+4274901D02*
X+744901Y+4274901D01*
X+744901Y+4605099D01*
X+1329099Y+4605099D01*
X+1329099Y+4274901D01*
G37*
G36*
X+490099Y+3349386D02*
X+490099Y+3212614D01*
X+431485Y+3154000D01*
X+490099Y+3095386D01*
X+490099Y+2958614D01*
X+432949Y+2901464D01*
X+432949Y+2898536D01*
X+490099Y+2841386D01*
X+490099Y+2704614D01*
X+431485Y+2646000D01*
X+490099Y+2587386D01*
X+490099Y+2450614D01*
X+393386Y+2353901D01*
X+256614Y+2353901D01*
X+159901Y+2450614D01*
X+159901Y+2587386D01*
X+218515Y+2646000D01*
X+159901Y+2704614D01*
X+159901Y+2841386D01*
X+217051Y+2898536D01*
X+217051Y+2901464D01*
X+159901Y+2958614D01*
X+159901Y+3095386D01*
X+218515Y+3154000D01*
X+159901Y+3212614D01*
X+159901Y+3349386D01*
X+256614Y+3446099D01*
X+393386Y+3446099D01*
X+490099Y+3349386D01*
G37*
%LPD*%
G36*
X-2000000Y+3600000D02*
X-700000Y+3600000D01*
X-700000Y+2650000D01*
X-3450000Y+2650000D01*
X-3450000Y+3094994D01*
X-3360832Y+3184162D01*
X-3360832Y+4258294D01*
X-2873425Y+4745701D01*
X-2000000Y+4745701D01*
X-2000000Y+3600000D01*
G37*
%LPC*%
G36*
X-2144901Y+4274901D02*
X-2729099Y+4274901D01*
X-2729099Y+4605099D01*
X-2144901Y+4605099D01*
X-2144901Y+4274901D01*
G37*
G36*
X-2864901Y+3515099D02*
X-2864901Y+3184901D01*
X-3195099Y+3184901D01*
X-3195099Y+3515099D01*
X-2864901Y+3515099D01*
G37*
G36*
X-784901Y+3515099D02*
X-784901Y+3184901D01*
X-1115099Y+3184901D01*
X-1115099Y+3515099D01*
X-784901Y+3515099D01*
G37*
G36*
X-2184901Y+3515099D02*
X-2184901Y+3184901D01*
X-2515099Y+3184901D01*
X-2515099Y+3515099D01*
X-2184901Y+3515099D01*
G37*
%LPD*%
D10*
X+325000Y+3027000D02*
X+325000Y+2780173D01*
X+317270Y+2772443D01*
X+325000Y+2773000D01*
D11*
X-1204000Y+1050000D02*
X-1204000Y+1706303D01*
X-380000Y+2530303D01*
X-380000Y+4244000D01*
X-576000Y+4440000D01*
X-2096000Y+1050000D02*
X-540000Y+2606000D01*
X-540000Y+3760000D01*
X-830000Y+4050000D01*
X-830000Y+4440000D01*
D10*
X-4430000Y+1050000D02*
X-4430000Y+1189710D01*
D11*
X-3945130Y+1674580D01*
X-2974580Y+1674580D01*
X-2350000Y+1050000D01*
X-2583575Y+1670087D02*
X-2096000Y+1182512D01*
X-2096000Y+1050000D01*
X+3504138Y+2562505D02*
X+3504138Y-3430486D01*
X+3067246Y-3867378D01*
X+712075Y-3867378D01*
X-516284Y-2639019D01*
X-1076981Y-2639019D01*
X-1080000Y-2636000D01*
X+3242010Y+2164313D02*
X+3242010Y-3122717D01*
X+2809622Y-3555105D01*
X+865106Y-3555105D01*
X-559607Y-2130392D01*
X-1077608Y-2130392D01*
X-1080000Y-2128000D01*
X-4430000Y+1189710D02*
X-4430000Y+2276636D01*
X-3475131Y+3231505D01*
X-3475131Y+4305637D01*
X-2920768Y+4860000D01*
X+3137565Y+4860000D01*
X+3748782Y+4248782D01*
X+3748782Y+931218D01*
X+4335000Y+345000D01*
X-211000Y+1720000D02*
X-211000Y+4309000D01*
X+200000Y+4720000D01*
X+2690000Y+4720000D01*
X+2858000Y+4552000D01*
X+2858000Y+4440000D01*
X-1080000Y-1112000D02*
X-620584Y-1571416D01*
X+1295641Y-1571416D01*
X+1688225Y-1964000D01*
X+2000000Y-1964000D01*
X+2217956Y+3108263D02*
X+2217956Y-250651D01*
X+1521836Y-946771D01*
X+2604000Y+4440000D02*
X+2604000Y+3996000D01*
X+2880000Y+3720000D01*
X+2880000Y-2500000D01*
X+2260000Y-3120000D01*
X+1116109Y-3120000D01*
X-128975Y-1874916D01*
X-1079084Y-1874916D01*
X-1080000Y-1874000D01*
X+163047Y-1837346D02*
X+543701Y-2218000D01*
X+2000000Y-2218000D01*
D12*
X-2583575Y+1670087D03*
X+3504138Y+2562505D03*
X+3242010Y+2164313D03*
X+2217956Y+3108263D03*
X+1521836Y-946771D03*
X+163047Y-1837346D03*
D13*
X+1769956Y-139957D02*
X-916501Y-134040D01*
X-916501Y-63500D01*
X-773698Y-63500D01*
X-736500Y-26302D01*
X-736500Y+466302D01*
X-773698Y+503500D01*
X-1526302Y+503500D01*
X-1563500Y+466302D01*
X-1563500Y-26302D01*
X-1526302Y-63500D01*
X-1243499Y-63500D01*
X-1243499Y-133320D01*
X-2761350Y-129977D01*
X-2770044Y-3989957D01*
X-4820044Y-3989957D01*
X-4820044Y+2320043D01*
X-4544299Y+2320043D01*
X-4544299Y+1215099D01*
X-4595099Y+1215099D01*
X-4595099Y+884901D01*
X-4010901Y+884901D01*
X-4010901Y+1215099D01*
X-4242969Y+1215099D01*
X-3897786Y+1560282D01*
X-3021924Y+1560282D01*
X-2515099Y+1053457D01*
X-2515099Y+884901D01*
X-1930901Y+884901D01*
X-1930901Y+1053457D01*
X-1318299Y+1666059D01*
X-1318299Y+1215099D01*
X-1369099Y+1215099D01*
X-1369099Y+884901D01*
X-784901Y+884901D01*
X-784901Y+1215099D01*
X-1089701Y+1215099D01*
X-1089701Y+1658960D01*
X-428618Y+2320043D01*
X-325299Y+2320043D01*
X-325299Y+1885099D01*
X-376099Y+1885099D01*
X-376099Y+1554901D01*
X+716099Y+1554901D01*
X+716099Y+1885099D01*
X-96701Y+1885099D01*
X-96701Y+4261657D01*
X+247343Y+4605701D01*
X+1779543Y+4605701D01*
X+1769956Y-139957D01*
X-3236500Y+536302D02*
X-3236500Y-26302D01*
X-3273698Y-63500D01*
X-3456501Y-63500D01*
X-3456501Y-163724D01*
X-3515777Y-223000D01*
X-3456501Y-282276D01*
X-3456501Y-417724D01*
X-3515777Y-477000D01*
X-3456501Y-536276D01*
X-3456501Y-671724D01*
X-3515777Y-731000D01*
X-3456501Y-790276D01*
X-3456501Y-925724D01*
X-3515777Y-985000D01*
X-3456501Y-1044276D01*
X-3456501Y-1179724D01*
X-3515777Y-1239000D01*
X-3456501Y-1298276D01*
X-3456501Y-1433724D01*
X-3515777Y-1493000D01*
X-3456501Y-1552276D01*
X-3456501Y-1687724D01*
X-3515777Y-1747000D01*
X-3456501Y-1806276D01*
X-3456501Y-1941724D01*
X-3515777Y-2001000D01*
X-3456501Y-2060276D01*
X-3456501Y-2195724D01*
X-3515777Y-2255000D01*
X-3456501Y-2314276D01*
X-3456501Y-2449724D01*
X-3515777Y-2509000D01*
X-3456501Y-2568276D01*
X-3456501Y-2703724D01*
X-3515777Y-2763000D01*
X-3456501Y-2822276D01*
X-3456501Y-2957724D01*
X-3515777Y-3017000D01*
X-3456501Y-3076276D01*
X-3456501Y-3211724D01*
X-3515777Y-3271000D01*
X-3456501Y-3330276D01*
X-3456501Y-3465724D01*
X-3515777Y-3525000D01*
X-3456501Y-3584276D01*
X-3456501Y-3719724D01*
X-3552276Y-3815499D01*
X-3687724Y-3815499D01*
X-3783499Y-3719724D01*
X-3783499Y-3584276D01*
X-3724223Y-3525000D01*
X-3783499Y-3465724D01*
X-3783499Y-3330276D01*
X-3724223Y-3271000D01*
X-3783499Y-3211724D01*
X-3783499Y-3076276D01*
X-3724223Y-3017000D01*
X-3783499Y-2957724D01*
X-3783499Y-2822276D01*
X-3724223Y-2763000D01*
X-3783499Y-2703724D01*
X-3783499Y-2568276D01*
X-3724223Y-2509000D01*
X-3783499Y-2449724D01*
X-3783499Y-2314276D01*
X-3724223Y-2255000D01*
X-3783499Y-2195724D01*
X-3783499Y-2060276D01*
X-3724223Y-2001000D01*
X-3783499Y-1941724D01*
X-3783499Y-1806276D01*
X-3724223Y-1747000D01*
X-3783499Y-1687724D01*
X-3783499Y-1552276D01*
X-3724223Y-1493000D01*
X-3783499Y-1433724D01*
X-3783499Y-1298276D01*
X-3724223Y-1239000D01*
X-3783499Y-1179724D01*
X-3783499Y-1044276D01*
X-3724223Y-985000D01*
X-3783499Y-925724D01*
X-3783499Y-790276D01*
X-3724223Y-731000D01*
X-3783499Y-671724D01*
X-3783499Y-536276D01*
X-3724223Y-477000D01*
X-3783499Y-417724D01*
X-3783499Y-282276D01*
X-3724223Y-223000D01*
X-3783499Y-163724D01*
X-3783499Y-63500D01*
X-3926302Y-63500D01*
X-3963500Y-26302D01*
X-3963500Y+536302D01*
X-3926302Y+573500D01*
X-3273698Y+573500D01*
X-3236500Y+536302D01*
X-2864901Y+884901D02*
X-3449099Y+884901D01*
X-3449099Y+1215099D01*
X-2864901Y+1215099D01*
X-2864901Y+884901D01*
X+1119901Y+1160099D02*
X+1450099Y+1160099D01*
X+1450099Y+829901D01*
X+1119901Y+829901D01*
X+1119901Y+1160099D01*
X+1119901Y+510099D02*
X+1450099Y+510099D01*
X+1450099Y+179901D01*
X+1119901Y+179901D01*
X+1119901Y+510099D01*
X+1329099Y+4274901D02*
X+744901Y+4274901D01*
X+744901Y+4605099D01*
X+1329099Y+4605099D01*
X+1329099Y+4274901D01*
X+490099Y+3349386D02*
X+490099Y+3212614D01*
X+431485Y+3154000D01*
X+490099Y+3095386D01*
X+490099Y+2958614D01*
X+432949Y+2901464D01*
X+432949Y+2898536D01*
X+490099Y+2841386D01*
X+490099Y+2704614D01*
X+431485Y+2646000D01*
X+490099Y+2587386D01*
X+490099Y+2450614D01*
X+393386Y+2353901D01*
X+256614Y+2353901D01*
X+159901Y+2450614D01*
X+159901Y+2587386D01*
X+218515Y+2646000D01*
X+159901Y+2704614D01*
X+159901Y+2841386D01*
X+217051Y+2898536D01*
X+217051Y+2901464D01*
X+159901Y+2958614D01*
X+159901Y+3095386D01*
X+218515Y+3154000D01*
X+159901Y+3212614D01*
X+159901Y+3349386D01*
X+256614Y+3446099D01*
X+393386Y+3446099D01*
X+490099Y+3349386D01*
X+1119901Y+995000D02*
X+1285000Y+995000D01*
X+1450099Y+995000D02*
X+1285000Y+995000D01*
X+1285000Y+829901D02*
X+1285000Y+995000D01*
X+1285000Y+1160099D02*
X+1285000Y+995000D01*
X+744901Y+4440000D02*
X+910000Y+4440000D01*
X+910000Y+4274901D02*
X+910000Y+4440000D01*
X+910000Y+4605099D02*
X+910000Y+4440000D01*
X-3456501Y-3652000D02*
X-3620000Y-3652000D01*
X-3783499Y-3652000D02*
X-3620000Y-3652000D01*
X-3620000Y-3815499D02*
X-3620000Y-3652000D01*
X+297000Y+1554901D02*
X+297000Y+1720000D01*
X+297000Y+1885099D02*
X+297000Y+1720000D01*
X-2000000Y+3600000D02*
X-700000Y+3600000D01*
X-700000Y+2650000D01*
X-3450000Y+2650000D01*
X-3450000Y+3094994D01*
X-3360832Y+3184162D01*
X-3360832Y+4258294D01*
X-2873425Y+4745701D01*
X-2000000Y+4745701D01*
X-2000000Y+3600000D01*
X-2144901Y+4274901D02*
X-2729099Y+4274901D01*
X-2729099Y+4605099D01*
X-2144901Y+4605099D01*
X-2144901Y+4274901D01*
X-2864901Y+3515099D02*
X-2864901Y+3184901D01*
X-3195099Y+3184901D01*
X-3195099Y+3515099D01*
X-2864901Y+3515099D01*
X-784901Y+3515099D02*
X-784901Y+3184901D01*
X-1115099Y+3184901D01*
X-1115099Y+3515099D01*
X-784901Y+3515099D01*
X-2184901Y+3515099D02*
X-2184901Y+3184901D01*
X-2515099Y+3184901D01*
X-2515099Y+3515099D01*
X-2184901Y+3515099D01*
X-2144901Y+4440000D02*
X-2310000Y+4440000D01*
X-2310000Y+4605099D02*
X-2310000Y+4440000D01*
X-2310000Y+4274901D02*
X-2310000Y+4440000D01*
X-3030000Y+3515099D02*
X-3030000Y+3350000D01*
X-3030000Y+3184901D02*
X-3030000Y+3350000D01*
X-3195099Y+3350000D02*
X-3030000Y+3350000D01*
X-2864901Y+3350000D02*
X-3030000Y+3350000D01*
X-950000Y+3515099D02*
X-950000Y+3350000D01*
X-950000Y+3184901D02*
X-950000Y+3350000D01*
X-1115099Y+3350000D02*
X-950000Y+3350000D01*
X-784901Y+3350000D02*
X-950000Y+3350000D01*
D14*
X-2310000Y+4440000D03*
X-2564000Y+4440000D03*
X-3030000Y+3350000D03*
X-4430000Y+3350000D03*
X-4430000Y+1050000D03*
X-4176000Y+1050000D03*
X-3284000Y+1050000D03*
X-3030000Y+1050000D03*
X-950000Y+3350000D03*
X-2350000Y+3350000D03*
X-2350000Y+1050000D03*
X-2096000Y+1050000D03*
X-1204000Y+1050000D03*
X-950000Y+1050000D03*
X+1285000Y+995000D03*
X+1285000Y+345000D03*
X+4335000Y+345000D03*
X+4335000Y+995000D03*
X+910000Y+4440000D03*
X+1164000Y+4440000D03*
X-830000Y+4440000D03*
X-576000Y+4440000D03*
D15*
X+325000Y+3281000D03*
X+325000Y+3027000D03*
X+325000Y+2773000D03*
X+325000Y+2519000D03*
X+4475000Y+2519000D03*
X+4475000Y+2773000D03*
X+4475000Y+3027000D03*
X+4475000Y+3281000D03*
D14*
X+2858000Y+4440000D03*
X+2604000Y+4440000D03*
X+2350000Y+4440000D03*
D16*
X-1080000Y-3652000D03*
D17*
X-1080000Y-3398000D03*
X-1080000Y-3144000D03*
X-1080000Y-2890000D03*
X-1080000Y-2636000D03*
X-1080000Y-2382000D03*
X-1080000Y-2128000D03*
X-1080000Y-1874000D03*
X-1080000Y-1620000D03*
X-1080000Y-1366000D03*
X-1080000Y-1112000D03*
X-1080000Y-858000D03*
X-1080000Y-604000D03*
X-1080000Y-350000D03*
X-1080000Y-96000D03*
X-3620000Y-96000D03*
X-3620000Y-350000D03*
X-3620000Y-604000D03*
X-3620000Y-858000D03*
X-3620000Y-1112000D03*
X-3620000Y-1366000D03*
X-3620000Y-1620000D03*
X-3620000Y-1874000D03*
X-3620000Y-2128000D03*
X-3620000Y-2382000D03*
X-3620000Y-2636000D03*
X-3620000Y-2890000D03*
X-3620000Y-3144000D03*
X-3620000Y-3398000D03*
X-3620000Y-3652000D03*
D18*
X-1122000Y+247000D03*
X-3573010Y+247000D03*
X-3573010Y-4447000D03*
X-1122000Y-4447000D03*
D14*
X-211000Y+1720000D03*
X+43000Y+1720000D03*
X+297000Y+1720000D03*
X+551000Y+1720000D03*
D19*
X+2000000Y-1456000D03*
D70*
X+2000000Y-1710000D03*
X+2000000Y-1964000D03*
X+2000000Y-2218000D03*
X+2000000Y-2472000D03*
X+4500000Y-2980000D03*
X+4500000Y-2726000D03*
X+4500000Y-2472000D03*
X+4500000Y-2218000D03*
X+4500000Y-1964000D03*
X+4500000Y-1710000D03*
D19*
X+4500000Y-1456000D03*
D71*
X-5000000Y-5000000D02*
X+5000000Y-5000000D01*
X+5000000Y+5000000D01*
X-5000000Y+5000000D01*
X-5000000Y-5000000D01*
M02*
