G04 PROTEUS GERBER X2 FILE*
%TF.GenerationSoftware,Labcenter,Proteus,8.13-SP0-Build31525*%
%TF.CreationDate,2025-07-06T18:18:02+00:00*%
%TF.FileFunction,Plated,1,2,PTH*%
%TF.FilePolarity,Positive*%
%TF.Part,Single*%
%TF.SameCoordinates,{7c6f6ce9-c7c3-4c68-b218-349a6216ac96}*%
%FSLAX45Y45*%
%MOMM*%
G01*
%TA.AperFunction,ViaDrill*%
%ADD46C,0.381000*%
%TA.AperFunction,ComponentDrill*%
%ADD47C,1.016000*%
%TA.AperFunction,ComponentDrill*%
%ADD48C,0.762000*%
%TD.AperFunction*%
D46*
X-2583575Y+1670087D03*
X+3504138Y+2562505D03*
X+3242010Y+2164313D03*
X+2217956Y+3108263D03*
X+1521836Y-946771D03*
X+163047Y-1837346D03*
D47*
X-2310000Y+4440000D03*
X-2564000Y+4440000D03*
X-3030000Y+3350000D03*
X-4430000Y+3350000D03*
X-4430000Y+1050000D03*
X-4176000Y+1050000D03*
X-3284000Y+1050000D03*
X-3030000Y+1050000D03*
X-950000Y+3350000D03*
X-2350000Y+3350000D03*
X-2350000Y+1050000D03*
X-2096000Y+1050000D03*
X-1204000Y+1050000D03*
X-950000Y+1050000D03*
X+1285000Y+995000D03*
X+1285000Y+345000D03*
X+4335000Y+345000D03*
X+4335000Y+995000D03*
X+910000Y+4440000D03*
X+1164000Y+4440000D03*
X-830000Y+4440000D03*
X-576000Y+4440000D03*
D48*
X+325000Y+3281000D03*
X+325000Y+3027000D03*
X+325000Y+2773000D03*
X+325000Y+2519000D03*
X+4475000Y+2519000D03*
X+4475000Y+2773000D03*
X+4475000Y+3027000D03*
X+4475000Y+3281000D03*
D47*
X+2858000Y+4440000D03*
X+2604000Y+4440000D03*
X+2350000Y+4440000D03*
X-1080000Y-3652000D03*
X-1080000Y-3398000D03*
X-1080000Y-3144000D03*
X-1080000Y-2890000D03*
X-1080000Y-2636000D03*
X-1080000Y-2382000D03*
X-1080000Y-2128000D03*
X-1080000Y-1874000D03*
X-1080000Y-1620000D03*
X-1080000Y-1366000D03*
X-1080000Y-1112000D03*
X-1080000Y-858000D03*
X-1080000Y-604000D03*
X-1080000Y-350000D03*
X-1080000Y-96000D03*
X-3620000Y-96000D03*
X-3620000Y-350000D03*
X-3620000Y-604000D03*
X-3620000Y-858000D03*
X-3620000Y-1112000D03*
X-3620000Y-1366000D03*
X-3620000Y-1620000D03*
X-3620000Y-1874000D03*
X-3620000Y-2128000D03*
X-3620000Y-2382000D03*
X-3620000Y-2636000D03*
X-3620000Y-2890000D03*
X-3620000Y-3144000D03*
X-3620000Y-3398000D03*
X-3620000Y-3652000D03*
X-211000Y+1720000D03*
X+43000Y+1720000D03*
X+297000Y+1720000D03*
X+551000Y+1720000D03*
D48*
X+2000000Y-1456000D03*
X+2000000Y-1710000D03*
X+2000000Y-1964000D03*
X+2000000Y-2218000D03*
X+2000000Y-2472000D03*
X+4500000Y-2980000D03*
X+4500000Y-2726000D03*
X+4500000Y-2472000D03*
X+4500000Y-2218000D03*
X+4500000Y-1964000D03*
X+4500000Y-1710000D03*
X+4500000Y-1456000D03*
M02*
