G04 PROTEUS GERBER X2 FILE*
%TF.GenerationSoftware,Labcenter,Proteus,8.13-SP0-Build31525*%
%TF.CreationDate,2025-07-06T18:18:02+00:00*%
%TF.FileFunction,Legend,Bot*%
%TF.FilePolarity,Positive*%
%TF.Part,Single*%
%TF.SameCoordinates,{7c6f6ce9-c7c3-4c68-b218-349a6216ac96}*%
%FSLAX45Y45*%
%MOMM*%
G01*
%TA.AperFunction,Profile*%
%ADD71C,0.203200*%
%TA.AperFunction,NonMaterial*%
%ADD23C,0.063500*%
%TD.AperFunction*%
D71*
X-5000000Y-5000000D02*
X+5000000Y-5000000D01*
X+5000000Y+5000000D01*
X-5000000Y+5000000D01*
X-5000000Y-5000000D01*
D23*
X+468508Y-2146548D02*
X+631068Y-2146548D01*
X+468508Y-2141468D02*
X+636148Y-2141468D01*
X+468508Y-2136388D02*
X+636148Y-2136388D01*
X+468508Y-2131308D02*
X+636148Y-2131308D01*
X+463428Y-2126228D02*
X+636148Y-2126228D01*
X+458348Y-2121148D02*
X+636148Y-2121148D01*
X+453268Y-2116068D02*
X+631068Y-2116068D01*
X+453268Y-2110988D02*
X+625988Y-2110988D01*
X+453268Y-2105908D02*
X+620908Y-2105908D01*
X+453268Y-2100828D02*
X+620908Y-2100828D01*
X+448188Y-2095748D02*
X+620908Y-2095748D01*
X+443108Y-2090668D02*
X+620908Y-2090668D01*
X+443108Y-2085588D02*
X+620908Y-2085588D01*
X+443108Y-2080508D02*
X+620908Y-2080508D01*
X+443108Y-2075428D02*
X+615828Y-2075428D01*
X+438028Y-2070348D02*
X+610748Y-2070348D01*
X+427868Y-2065268D02*
X+610748Y-2065268D01*
X+427868Y-2060188D02*
X+610748Y-2060188D01*
X+427868Y-2055108D02*
X+610748Y-2055108D01*
X+427868Y-2050028D02*
X+605668Y-2050028D01*
X+427868Y-2044948D02*
X+600588Y-2044948D01*
X+427868Y-2039868D02*
X+595508Y-2039868D01*
X+427868Y-2034788D02*
X+595508Y-2034788D01*
X+422788Y-2029708D02*
X+595508Y-2029708D01*
X+417708Y-2024628D02*
X+595508Y-2024628D01*
X+417708Y-2019548D02*
X+595508Y-2019548D01*
X+417708Y-2014468D02*
X+595508Y-2014468D01*
X+417708Y-2009388D02*
X+595508Y-2009388D01*
X+412628Y-2004308D02*
X+585348Y-2004308D01*
X+407548Y-1999228D02*
X+585348Y-1999228D01*
X+407548Y-1994148D02*
X+585348Y-1994148D01*
X+407548Y-1989068D02*
X+585348Y-1989068D01*
X+407548Y-1983988D02*
X+585348Y-1983988D01*
X+407548Y-1978908D02*
X+575188Y-1978908D01*
X+407548Y-1973828D02*
X+575188Y-1973828D01*
X+402468Y-1968748D02*
X+570108Y-1968748D01*
X+402468Y-1963668D02*
X+570108Y-1963668D01*
X+392308Y-1958588D02*
X+570108Y-1958588D01*
X+392308Y-1953508D02*
X+565028Y-1953508D01*
X+392308Y-1948428D02*
X+559948Y-1948428D01*
X+392308Y-1943348D02*
X+559948Y-1943348D01*
X+387228Y-1938268D02*
X+559948Y-1938268D01*
X+382148Y-1933188D02*
X+559948Y-1933188D01*
X+382148Y-1928108D02*
X+559948Y-1928108D01*
X+382148Y-1923028D02*
X+559948Y-1923028D01*
X+382148Y-1917948D02*
X+559948Y-1917948D01*
X+382148Y-1912868D02*
X+549788Y-1912868D01*
X+382148Y-1907788D02*
X+549788Y-1907788D01*
X+382148Y-1902708D02*
X+549788Y-1902708D01*
X+377068Y-1897628D02*
X+549788Y-1897628D01*
X+366908Y-1892548D02*
X+549788Y-1892548D01*
X+366908Y-1887468D02*
X+539628Y-1887468D01*
X+366908Y-1882388D02*
X+534548Y-1882388D01*
X+366908Y-1877308D02*
X+534548Y-1877308D01*
X+366908Y-1872228D02*
X+534548Y-1872228D01*
X+356748Y-1867148D02*
X+534548Y-1867148D01*
X+356748Y-1862068D02*
X+534548Y-1862068D01*
X+356748Y-1856988D02*
X+534548Y-1856988D01*
X+356748Y-1851908D02*
X+534548Y-1851908D01*
X+356748Y-1846828D02*
X+529468Y-1846828D01*
X+356748Y-1841748D02*
X+524388Y-1841748D01*
X+356748Y-1836668D02*
X+524388Y-1836668D01*
X+351668Y-1831588D02*
X+524388Y-1831588D01*
X+346588Y-1826508D02*
X+524388Y-1826508D01*
X+341508Y-1821428D02*
X+519308Y-1821428D01*
X+341508Y-1816348D02*
X+514228Y-1816348D01*
X+341508Y-1811268D02*
X+509148Y-1811268D01*
X+341508Y-1806188D02*
X+509148Y-1806188D01*
X+331348Y-1801108D02*
X+509148Y-1801108D01*
X+331348Y-1796028D02*
X+509148Y-1796028D01*
X+331348Y-1790948D02*
X+509148Y-1790948D01*
X+331348Y-1785868D02*
X+509148Y-1785868D01*
X+331348Y-1780788D02*
X+504068Y-1780788D01*
X+331348Y-1775708D02*
X+498988Y-1775708D01*
X+331348Y-1770628D02*
X+498988Y-1770628D01*
X+326268Y-1765548D02*
X+498988Y-1765548D01*
X+321188Y-1760468D02*
X+498988Y-1760468D01*
X+321188Y-1755388D02*
X+493908Y-1755388D01*
X+321188Y-1750308D02*
X+488828Y-1750308D01*
X+321188Y-1745228D02*
X+483748Y-1745228D01*
X+316108Y-1740148D02*
X+483748Y-1740148D01*
X+311028Y-1735068D02*
X+483748Y-1735068D01*
X+305948Y-1729988D02*
X+483748Y-1729988D01*
X+305948Y-1724908D02*
X+483748Y-1724908D01*
X+305948Y-1719828D02*
X+483748Y-1719828D01*
X+305948Y-1714748D02*
X+478668Y-1714748D01*
X+300868Y-1709668D02*
X+473588Y-1709668D01*
X+295788Y-1704588D02*
X+473588Y-1704588D01*
X+295788Y-1699508D02*
X+473588Y-1699508D01*
X+295788Y-1694428D02*
X+473588Y-1694428D01*
X+295788Y-1689348D02*
X+468508Y-1689348D01*
X+295788Y-1684268D02*
X+463428Y-1684268D01*
X+295788Y-1679188D02*
X+463428Y-1679188D01*
X+290708Y-1674108D02*
X+463428Y-1674108D01*
X+285628Y-1669028D02*
X+463428Y-1669028D01*
X+280548Y-1663948D02*
X+463428Y-1663948D01*
X+280548Y-1658868D02*
X+463428Y-1658868D01*
X+280548Y-1653788D02*
X+463428Y-1653788D01*
X+280548Y-1648708D02*
X+458348Y-1648708D01*
X+275468Y-1643628D02*
X+448188Y-1643628D01*
X+270388Y-1638548D02*
X+448188Y-1638548D01*
X+270388Y-1633468D02*
X+448188Y-1633468D01*
X+270388Y-1628388D02*
X+448188Y-1628388D01*
X+270388Y-1623308D02*
X+448188Y-1623308D01*
X+270388Y-1618228D02*
X+448188Y-1618228D01*
X+270388Y-1613148D02*
X+448188Y-1613148D01*
X+270388Y-1608068D02*
X+443108Y-1608068D01*
X+260228Y-1602988D02*
X+438028Y-1602988D01*
X-1065652Y-1597908D02*
X-908172Y-1597908D01*
X+255148Y-1597908D02*
X+438028Y-1597908D01*
X+778388Y-1597908D02*
X+854588Y-1597908D01*
X+1454028Y-1597908D02*
X+1611508Y-1597908D01*
X+2099188Y-1597908D02*
X+2312548Y-1597908D01*
X-1065652Y-1592828D02*
X-908172Y-1592828D01*
X+255148Y-1592828D02*
X+438028Y-1592828D01*
X+778388Y-1592828D02*
X+859668Y-1592828D01*
X+1454028Y-1592828D02*
X+1611508Y-1592828D01*
X+2094108Y-1592828D02*
X+2317628Y-1592828D01*
X-1065652Y-1587748D02*
X-898012Y-1587748D01*
X+255148Y-1587748D02*
X+438028Y-1587748D01*
X+778388Y-1587748D02*
X+1017148Y-1587748D01*
X+1443868Y-1587748D02*
X+1611508Y-1587748D01*
X+2038228Y-1587748D02*
X+2363348Y-1587748D01*
X-1065652Y-1582668D02*
X-898012Y-1582668D01*
X+255148Y-1582668D02*
X+438028Y-1582668D01*
X+778388Y-1582668D02*
X+1017148Y-1582668D01*
X+1443868Y-1582668D02*
X+1611508Y-1582668D01*
X+2033148Y-1582668D02*
X+2363348Y-1582668D01*
X-1065652Y-1577588D02*
X-898012Y-1577588D01*
X+250068Y-1577588D02*
X+438028Y-1577588D01*
X+788548Y-1577588D02*
X+1017148Y-1577588D01*
X+1443868Y-1577588D02*
X+1611508Y-1577588D01*
X+2033148Y-1577588D02*
X+2368428Y-1577588D01*
X-1065652Y-1572508D02*
X-898012Y-1572508D01*
X+244988Y-1572508D02*
X+438028Y-1572508D01*
X+788548Y-1572508D02*
X+1017148Y-1572508D01*
X+1443868Y-1572508D02*
X+1611508Y-1572508D01*
X+1997588Y-1572508D02*
X+2398908Y-1572508D01*
X-1065652Y-1567428D02*
X-898012Y-1567428D01*
X+244988Y-1567428D02*
X+438028Y-1567428D01*
X+793628Y-1567428D02*
X+1017148Y-1567428D01*
X+1443868Y-1567428D02*
X+1611508Y-1567428D01*
X+1997588Y-1567428D02*
X+2403988Y-1567428D01*
X-1065652Y-1562348D02*
X-898012Y-1562348D01*
X+244988Y-1562348D02*
X+448188Y-1562348D01*
X+798708Y-1562348D02*
X+1027308Y-1562348D01*
X+1443868Y-1562348D02*
X+1611508Y-1562348D01*
X+1977268Y-1562348D02*
X+2424308Y-1562348D01*
X-1065652Y-1557268D02*
X-898012Y-1557268D01*
X+244988Y-1557268D02*
X+448188Y-1557268D01*
X+803788Y-1557268D02*
X+1027308Y-1557268D01*
X+1443868Y-1557268D02*
X+1611508Y-1557268D01*
X+1972188Y-1557268D02*
X+2424308Y-1557268D01*
X-1065652Y-1552188D02*
X-898012Y-1552188D01*
X+244988Y-1552188D02*
X+448188Y-1552188D01*
X+808868Y-1552188D02*
X+1032388Y-1552188D01*
X+1443868Y-1552188D02*
X+1611508Y-1552188D01*
X+1972188Y-1552188D02*
X+2429388Y-1552188D01*
X-1065652Y-1547108D02*
X-898012Y-1547108D01*
X+244988Y-1547108D02*
X+448188Y-1547108D01*
X+813948Y-1547108D02*
X+1042548Y-1547108D01*
X+1443868Y-1547108D02*
X+1611508Y-1547108D01*
X+1951868Y-1547108D02*
X+2449708Y-1547108D01*
X-1065652Y-1542028D02*
X-898012Y-1542028D01*
X+244988Y-1542028D02*
X+448188Y-1542028D01*
X+819028Y-1542028D02*
X+1042548Y-1542028D01*
X+1443868Y-1542028D02*
X+1611508Y-1542028D01*
X+1946788Y-1542028D02*
X+2449708Y-1542028D01*
X-1065652Y-1536948D02*
X-898012Y-1536948D01*
X+239908Y-1536948D02*
X+448188Y-1536948D01*
X+824108Y-1536948D02*
X+1047628Y-1536948D01*
X+1443868Y-1536948D02*
X+1611508Y-1536948D01*
X+1941708Y-1536948D02*
X+2454788Y-1536948D01*
X-1065652Y-1531868D02*
X-898012Y-1531868D01*
X+234828Y-1531868D02*
X+448188Y-1531868D01*
X+824108Y-1531868D02*
X+1052708Y-1531868D01*
X+1443868Y-1531868D02*
X+1611508Y-1531868D01*
X+1926468Y-1531868D02*
X+2475108Y-1531868D01*
X-1065652Y-1526788D02*
X-898012Y-1526788D01*
X+234828Y-1526788D02*
X+453268Y-1526788D01*
X+834268Y-1526788D02*
X+1057788Y-1526788D01*
X+1443868Y-1526788D02*
X+1611508Y-1526788D01*
X+1921388Y-1526788D02*
X+2475108Y-1526788D01*
X-1065652Y-1521708D02*
X-898012Y-1521708D01*
X+234828Y-1521708D02*
X+458348Y-1521708D01*
X+839348Y-1521708D02*
X+1062868Y-1521708D01*
X+1443868Y-1521708D02*
X+1611508Y-1521708D01*
X+1901068Y-1521708D02*
X+2495428Y-1521708D01*
X-1065652Y-1516628D02*
X-898012Y-1516628D01*
X+229748Y-1516628D02*
X+463428Y-1516628D01*
X+839348Y-1516628D02*
X+1067948Y-1516628D01*
X+1443868Y-1516628D02*
X+1611508Y-1516628D01*
X+1901068Y-1516628D02*
X+2500508Y-1516628D01*
X-1065652Y-1511548D02*
X-898012Y-1511548D01*
X+229748Y-1511548D02*
X+463428Y-1511548D01*
X+849508Y-1511548D02*
X+1073028Y-1511548D01*
X+1443868Y-1511548D02*
X+1611508Y-1511548D01*
X+1895988Y-1511548D02*
X+2505588Y-1511548D01*
X-1065652Y-1506468D02*
X-898012Y-1506468D01*
X+219588Y-1506468D02*
X+463428Y-1506468D01*
X+849508Y-1506468D02*
X+1078108Y-1506468D01*
X+1443868Y-1506468D02*
X+1611508Y-1506468D01*
X+1885828Y-1506468D02*
X+2510668Y-1506468D01*
X-1065652Y-1501388D02*
X-898012Y-1501388D01*
X+219588Y-1501388D02*
X+463428Y-1501388D01*
X+854588Y-1501388D02*
X+1078108Y-1501388D01*
X+1443868Y-1501388D02*
X+1611508Y-1501388D01*
X+1885828Y-1501388D02*
X+2510668Y-1501388D01*
X-1065652Y-1496308D02*
X-898012Y-1496308D01*
X+219588Y-1496308D02*
X+468508Y-1496308D01*
X+859668Y-1496308D02*
X+1088268Y-1496308D01*
X+1443868Y-1496308D02*
X+1611508Y-1496308D01*
X+1880748Y-1496308D02*
X+2520828Y-1496308D01*
X-1065652Y-1491228D02*
X-898012Y-1491228D01*
X+219588Y-1491228D02*
X+473588Y-1491228D01*
X+864748Y-1491228D02*
X+1093348Y-1491228D01*
X+1443868Y-1491228D02*
X+1611508Y-1491228D01*
X+1875668Y-1491228D02*
X+2536068Y-1491228D01*
X-1065652Y-1486148D02*
X-898012Y-1486148D01*
X+219588Y-1486148D02*
X+473588Y-1486148D01*
X+869828Y-1486148D02*
X+1093348Y-1486148D01*
X+1443868Y-1486148D02*
X+1611508Y-1486148D01*
X+1870588Y-1486148D02*
X+2541148Y-1486148D01*
X-1065652Y-1481068D02*
X-898012Y-1481068D01*
X+219588Y-1481068D02*
X+473588Y-1481068D01*
X+874908Y-1481068D02*
X+1103508Y-1481068D01*
X+1443868Y-1481068D02*
X+1611508Y-1481068D01*
X+1865508Y-1481068D02*
X+2546228Y-1481068D01*
X-1065652Y-1475988D02*
X-898012Y-1475988D01*
X+219588Y-1475988D02*
X+473588Y-1475988D01*
X+879988Y-1475988D02*
X+1103508Y-1475988D01*
X+1443868Y-1475988D02*
X+1611508Y-1475988D01*
X+1860428Y-1475988D02*
X+2551308Y-1475988D01*
X-1065652Y-1470908D02*
X-898012Y-1470908D01*
X+214508Y-1470908D02*
X+473588Y-1470908D01*
X+885068Y-1470908D02*
X+1108588Y-1470908D01*
X+1443868Y-1470908D02*
X+1611508Y-1470908D01*
X+1855348Y-1470908D02*
X+2551308Y-1470908D01*
X-1065652Y-1465828D02*
X-898012Y-1465828D01*
X+209428Y-1465828D02*
X+473588Y-1465828D01*
X+885068Y-1465828D02*
X+1113668Y-1465828D01*
X+1443868Y-1465828D02*
X+1611508Y-1465828D01*
X+1840108Y-1465828D02*
X+2561468Y-1465828D01*
X-1065652Y-1460748D02*
X-898012Y-1460748D01*
X+209428Y-1460748D02*
X+473588Y-1460748D01*
X+895228Y-1460748D02*
X+1113668Y-1460748D01*
X+1443868Y-1460748D02*
X+1611508Y-1460748D01*
X+1840108Y-1460748D02*
X+2561468Y-1460748D01*
X-1065652Y-1455668D02*
X-898012Y-1455668D01*
X+209428Y-1455668D02*
X+483748Y-1455668D01*
X+900308Y-1455668D02*
X+1113668Y-1455668D01*
X+1443868Y-1455668D02*
X+1611508Y-1455668D01*
X+1840108Y-1455668D02*
X+2571628Y-1455668D01*
X-1065652Y-1450588D02*
X-898012Y-1450588D01*
X+209428Y-1450588D02*
X+483748Y-1450588D01*
X+900308Y-1450588D02*
X+1118748Y-1450588D01*
X+1443868Y-1450588D02*
X+1611508Y-1450588D01*
X+1840108Y-1450588D02*
X+2571628Y-1450588D01*
X-1065652Y-1445508D02*
X-898012Y-1445508D01*
X+204348Y-1445508D02*
X+483748Y-1445508D01*
X+910468Y-1445508D02*
X+1118748Y-1445508D01*
X+1443868Y-1445508D02*
X+1611508Y-1445508D01*
X+1835028Y-1445508D02*
X+2094108Y-1445508D01*
X+2282068Y-1445508D02*
X+2576708Y-1445508D01*
X-1065652Y-1440428D02*
X-898012Y-1440428D01*
X+194188Y-1440428D02*
X+483748Y-1440428D01*
X+910468Y-1440428D02*
X+1128908Y-1440428D01*
X+1443868Y-1440428D02*
X+1611508Y-1440428D01*
X+1824868Y-1440428D02*
X+2094108Y-1440428D01*
X+2282068Y-1440428D02*
X+2586868Y-1440428D01*
X-1065652Y-1435348D02*
X-898012Y-1435348D01*
X+194188Y-1435348D02*
X+483748Y-1435348D01*
X+915548Y-1435348D02*
X+1128908Y-1435348D01*
X+1443868Y-1435348D02*
X+1611508Y-1435348D01*
X+1824868Y-1435348D02*
X+2063628Y-1435348D01*
X+2322708Y-1435348D02*
X+2586868Y-1435348D01*
X-1065652Y-1430268D02*
X-898012Y-1430268D01*
X+194188Y-1430268D02*
X+483748Y-1430268D01*
X+920628Y-1430268D02*
X+1133988Y-1430268D01*
X+1443868Y-1430268D02*
X+1611508Y-1430268D01*
X+1819788Y-1430268D02*
X+2053468Y-1430268D01*
X+2332868Y-1430268D02*
X+2591948Y-1430268D01*
X-1065652Y-1425188D02*
X-898012Y-1425188D01*
X+194188Y-1425188D02*
X+483748Y-1425188D01*
X+925708Y-1425188D02*
X+1139068Y-1425188D01*
X+1443868Y-1425188D02*
X+1611508Y-1425188D01*
X+1814708Y-1425188D02*
X+2053468Y-1425188D01*
X+2332868Y-1425188D02*
X+2597028Y-1425188D01*
X-1065652Y-1420108D02*
X-898012Y-1420108D01*
X+194188Y-1420108D02*
X+488828Y-1420108D01*
X+930788Y-1420108D02*
X+1144148Y-1420108D01*
X+1443868Y-1420108D02*
X+1611508Y-1420108D01*
X+1809628Y-1420108D02*
X+2033148Y-1420108D01*
X+2353188Y-1420108D02*
X+2597028Y-1420108D01*
X-1065652Y-1415028D02*
X-898012Y-1415028D01*
X+184028Y-1415028D02*
X+493908Y-1415028D01*
X+935868Y-1415028D02*
X+1149228Y-1415028D01*
X+1443868Y-1415028D02*
X+1611508Y-1415028D01*
X+1804548Y-1415028D02*
X+2028068Y-1415028D01*
X+2358268Y-1415028D02*
X+2597028Y-1415028D01*
X-1065652Y-1409948D02*
X-898012Y-1409948D01*
X+184028Y-1409948D02*
X+498988Y-1409948D01*
X+940948Y-1409948D02*
X+1154308Y-1409948D01*
X+1443868Y-1409948D02*
X+1611508Y-1409948D01*
X+1799468Y-1409948D02*
X+2028068Y-1409948D01*
X+2358268Y-1409948D02*
X+2597028Y-1409948D01*
X-1065652Y-1404868D02*
X-898012Y-1404868D01*
X+184028Y-1404868D02*
X+498988Y-1404868D01*
X+946028Y-1404868D02*
X+1159388Y-1404868D01*
X+1443868Y-1404868D02*
X+1611508Y-1404868D01*
X+1799468Y-1404868D02*
X+2007748Y-1404868D01*
X+2378588Y-1404868D02*
X+2602108Y-1404868D01*
X-1065652Y-1399788D02*
X-898012Y-1399788D01*
X+184028Y-1399788D02*
X+498988Y-1399788D01*
X+951108Y-1399788D02*
X+1164468Y-1399788D01*
X+1443868Y-1399788D02*
X+1611508Y-1399788D01*
X+1799468Y-1399788D02*
X+2002668Y-1399788D01*
X+2383668Y-1399788D02*
X+2612268Y-1399788D01*
X-1065652Y-1394708D02*
X-898012Y-1394708D01*
X+184028Y-1394708D02*
X+498988Y-1394708D01*
X+951108Y-1394708D02*
X+1164468Y-1394708D01*
X+1443868Y-1394708D02*
X+1611508Y-1394708D01*
X+1799468Y-1394708D02*
X+1997588Y-1394708D01*
X+2388748Y-1394708D02*
X+2612268Y-1394708D01*
X-1065652Y-1389628D02*
X-898012Y-1389628D01*
X+184028Y-1389628D02*
X+504068Y-1389628D01*
X+951108Y-1389628D02*
X+1174628Y-1389628D01*
X+1443868Y-1389628D02*
X+1611508Y-1389628D01*
X+1794388Y-1389628D02*
X+1992508Y-1389628D01*
X+2393828Y-1389628D02*
X+2617348Y-1389628D01*
X-1065652Y-1384548D02*
X-898012Y-1384548D01*
X+184028Y-1384548D02*
X+509148Y-1384548D01*
X+951108Y-1384548D02*
X+1179708Y-1384548D01*
X+1443868Y-1384548D02*
X+1611508Y-1384548D01*
X+1789308Y-1384548D02*
X+1992508Y-1384548D01*
X+2393828Y-1384548D02*
X+2622428Y-1384548D01*
X-1065652Y-1379468D02*
X-898012Y-1379468D01*
X+178948Y-1379468D02*
X+509148Y-1379468D01*
X+956188Y-1379468D02*
X+1179708Y-1379468D01*
X+1443868Y-1379468D02*
X+1611508Y-1379468D01*
X+1784228Y-1379468D02*
X+1982348Y-1379468D01*
X+2403988Y-1379468D02*
X+2622428Y-1379468D01*
X-1065652Y-1374388D02*
X-898012Y-1374388D01*
X+173868Y-1374388D02*
X+509148Y-1374388D01*
X+961268Y-1374388D02*
X+1189868Y-1374388D01*
X+1443868Y-1374388D02*
X+1611508Y-1374388D01*
X+1779148Y-1374388D02*
X+1982348Y-1374388D01*
X+2403988Y-1374388D02*
X+2622428Y-1374388D01*
X-1065652Y-1369308D02*
X-898012Y-1369308D01*
X+168788Y-1369308D02*
X+509148Y-1369308D01*
X+966348Y-1369308D02*
X+1189868Y-1369308D01*
X+1443868Y-1369308D02*
X+1611508Y-1369308D01*
X+1774068Y-1369308D02*
X+1977268Y-1369308D01*
X+2409068Y-1369308D02*
X+2622428Y-1369308D01*
X-1065652Y-1364228D02*
X-898012Y-1364228D01*
X+168788Y-1364228D02*
X+326268Y-1364228D01*
X+341508Y-1364228D02*
X+509148Y-1364228D01*
X+971428Y-1364228D02*
X+1194948Y-1364228D01*
X+1443868Y-1364228D02*
X+1611508Y-1364228D01*
X+1774068Y-1364228D02*
X+1972188Y-1364228D01*
X+2419228Y-1364228D02*
X+2627508Y-1364228D01*
X-1065652Y-1359148D02*
X-898012Y-1359148D01*
X+168788Y-1359148D02*
X+326268Y-1359148D01*
X+341508Y-1359148D02*
X+509148Y-1359148D01*
X+971428Y-1359148D02*
X+1200028Y-1359148D01*
X+1443868Y-1359148D02*
X+1611508Y-1359148D01*
X+1774068Y-1359148D02*
X+1967108Y-1359148D01*
X+2419228Y-1359148D02*
X+2632588Y-1359148D01*
X-1065652Y-1354068D02*
X-898012Y-1354068D01*
X+168788Y-1354068D02*
X+316108Y-1354068D01*
X+341508Y-1354068D02*
X+514228Y-1354068D01*
X+981588Y-1354068D02*
X+1200028Y-1354068D01*
X+1443868Y-1354068D02*
X+1611508Y-1354068D01*
X+1774068Y-1354068D02*
X+1962028Y-1354068D01*
X+2424308Y-1354068D02*
X+2632588Y-1354068D01*
X-1065652Y-1348988D02*
X-898012Y-1348988D01*
X+163708Y-1348988D02*
X+316108Y-1348988D01*
X+341508Y-1348988D02*
X+519308Y-1348988D01*
X+986668Y-1348988D02*
X+1200028Y-1348988D01*
X+1443868Y-1348988D02*
X+1611508Y-1348988D01*
X+1768988Y-1348988D02*
X+1956948Y-1348988D01*
X+2429388Y-1348988D02*
X+2632588Y-1348988D01*
X-1065652Y-1343908D02*
X-898012Y-1343908D01*
X+158628Y-1343908D02*
X+311028Y-1343908D01*
X+346588Y-1343908D02*
X+524388Y-1343908D01*
X+986668Y-1343908D02*
X+1205108Y-1343908D01*
X+1443868Y-1343908D02*
X+1611508Y-1343908D01*
X+1763908Y-1343908D02*
X+1951868Y-1343908D01*
X+2434468Y-1343908D02*
X+2637668Y-1343908D01*
X-1065652Y-1338828D02*
X-898012Y-1338828D01*
X+158628Y-1338828D02*
X+311028Y-1338828D01*
X+351668Y-1338828D02*
X+524388Y-1338828D01*
X+996828Y-1338828D02*
X+1205108Y-1338828D01*
X+1443868Y-1338828D02*
X+1611508Y-1338828D01*
X+1763908Y-1338828D02*
X+1946788Y-1338828D01*
X+2439548Y-1338828D02*
X+2637668Y-1338828D01*
X-1065652Y-1333748D02*
X-898012Y-1333748D01*
X+158628Y-1333748D02*
X+311028Y-1333748D01*
X+356748Y-1333748D02*
X+524388Y-1333748D01*
X+996828Y-1333748D02*
X+1215268Y-1333748D01*
X+1443868Y-1333748D02*
X+1611508Y-1333748D01*
X+1763908Y-1333748D02*
X+1941708Y-1333748D01*
X+2444628Y-1333748D02*
X+2647828Y-1333748D01*
X-1065652Y-1328668D02*
X-898012Y-1328668D01*
X+158628Y-1328668D02*
X+311028Y-1328668D01*
X+356748Y-1328668D02*
X+524388Y-1328668D01*
X+1001908Y-1328668D02*
X+1215268Y-1328668D01*
X+1443868Y-1328668D02*
X+1611508Y-1328668D01*
X+1763908Y-1328668D02*
X+1941708Y-1328668D01*
X+2449708Y-1328668D02*
X+2647828Y-1328668D01*
X-1065652Y-1323588D02*
X-898012Y-1323588D01*
X+158628Y-1323588D02*
X+311028Y-1323588D01*
X+356748Y-1323588D02*
X+529468Y-1323588D01*
X+1006988Y-1323588D02*
X+1220348Y-1323588D01*
X+1443868Y-1323588D02*
X+1611508Y-1323588D01*
X+1758828Y-1323588D02*
X+1941708Y-1323588D01*
X+2454788Y-1323588D02*
X+2647828Y-1323588D01*
X-1065652Y-1318508D02*
X-898012Y-1318508D01*
X+158628Y-1318508D02*
X+311028Y-1318508D01*
X+356748Y-1318508D02*
X+534548Y-1318508D01*
X+1012068Y-1318508D02*
X+1225428Y-1318508D01*
X+1443868Y-1318508D02*
X+1611508Y-1318508D01*
X+1753748Y-1318508D02*
X+1941708Y-1318508D01*
X+2454788Y-1318508D02*
X+2647828Y-1318508D01*
X-1065652Y-1313428D02*
X-898012Y-1313428D01*
X+158628Y-1313428D02*
X+305948Y-1313428D01*
X+366908Y-1313428D02*
X+534548Y-1313428D01*
X+1017148Y-1313428D02*
X+1230508Y-1313428D01*
X+1443868Y-1313428D02*
X+1611508Y-1313428D01*
X+1753748Y-1313428D02*
X+1936628Y-1313428D01*
X+2454788Y-1313428D02*
X+2647828Y-1313428D01*
X-1065652Y-1308348D02*
X-898012Y-1308348D01*
X+148468Y-1308348D02*
X+300868Y-1308348D01*
X+366908Y-1308348D02*
X+534548Y-1308348D01*
X+1022228Y-1308348D02*
X+1235588Y-1308348D01*
X+1443868Y-1308348D02*
X+1611508Y-1308348D01*
X+1753748Y-1308348D02*
X+1931548Y-1308348D01*
X+2454788Y-1308348D02*
X+2657988Y-1308348D01*
X-1065652Y-1303268D02*
X-898012Y-1303268D01*
X+148468Y-1303268D02*
X+300868Y-1303268D01*
X+366908Y-1303268D02*
X+534548Y-1303268D01*
X+1027308Y-1303268D02*
X+1240668Y-1303268D01*
X+1443868Y-1303268D02*
X+1611508Y-1303268D01*
X+1753748Y-1303268D02*
X+1931548Y-1303268D01*
X+2459868Y-1303268D02*
X+2657988Y-1303268D01*
X-1065652Y-1298188D02*
X-898012Y-1298188D01*
X+148468Y-1298188D02*
X+300868Y-1298188D01*
X+366908Y-1298188D02*
X+534548Y-1298188D01*
X+1032388Y-1298188D02*
X+1245748Y-1298188D01*
X+1443868Y-1298188D02*
X+1611508Y-1298188D01*
X+1753748Y-1298188D02*
X+1931548Y-1298188D01*
X+2464948Y-1298188D02*
X+2657988Y-1298188D01*
X-1065652Y-1293108D02*
X-898012Y-1293108D01*
X+148468Y-1293108D02*
X+300868Y-1293108D01*
X+366908Y-1293108D02*
X+534548Y-1293108D01*
X+1037468Y-1293108D02*
X+1250828Y-1293108D01*
X+1443868Y-1293108D02*
X+1611508Y-1293108D01*
X+1753748Y-1293108D02*
X+1931548Y-1293108D01*
X+2470028Y-1293108D02*
X+2657988Y-1293108D01*
X-1065652Y-1288028D02*
X-898012Y-1288028D01*
X+143388Y-1288028D02*
X+295788Y-1288028D01*
X+366908Y-1288028D02*
X+534548Y-1288028D01*
X+1042548Y-1288028D02*
X+1250828Y-1288028D01*
X+1443868Y-1288028D02*
X+1611508Y-1288028D01*
X+1748668Y-1288028D02*
X+1926468Y-1288028D01*
X+2470028Y-1288028D02*
X+2657988Y-1288028D01*
X-1065652Y-1282948D02*
X-898012Y-1282948D01*
X+138308Y-1282948D02*
X+290708Y-1282948D01*
X+366908Y-1282948D02*
X+544708Y-1282948D01*
X+1047628Y-1282948D02*
X+1260988Y-1282948D01*
X+1443868Y-1282948D02*
X+1611508Y-1282948D01*
X+1743588Y-1282948D02*
X+1921388Y-1282948D01*
X+2470028Y-1282948D02*
X+2657988Y-1282948D01*
X-1065652Y-1277868D02*
X-898012Y-1277868D01*
X+133228Y-1277868D02*
X+290708Y-1277868D01*
X+371988Y-1277868D02*
X+549788Y-1277868D01*
X+1047628Y-1277868D02*
X+1266068Y-1277868D01*
X+1443868Y-1277868D02*
X+1611508Y-1277868D01*
X+1738508Y-1277868D02*
X+1916308Y-1277868D01*
X+2470028Y-1277868D02*
X+2657988Y-1277868D01*
X-1065652Y-1272788D02*
X-898012Y-1272788D01*
X+133228Y-1272788D02*
X+290708Y-1272788D01*
X+377068Y-1272788D02*
X+549788Y-1272788D01*
X+1057788Y-1272788D02*
X+1266068Y-1272788D01*
X+1443868Y-1272788D02*
X+1611508Y-1272788D01*
X+1738508Y-1272788D02*
X+1916308Y-1272788D01*
X+2475108Y-1272788D02*
X+2663068Y-1272788D01*
X-1065652Y-1267708D02*
X-898012Y-1267708D01*
X+133228Y-1267708D02*
X+290708Y-1267708D01*
X+382148Y-1267708D02*
X+549788Y-1267708D01*
X+1057788Y-1267708D02*
X+1276228Y-1267708D01*
X+1443868Y-1267708D02*
X+1611508Y-1267708D01*
X+1738508Y-1267708D02*
X+1916308Y-1267708D01*
X+2480188Y-1267708D02*
X+2668148Y-1267708D01*
X-1065652Y-1262628D02*
X-898012Y-1262628D01*
X+133228Y-1262628D02*
X+290708Y-1262628D01*
X+382148Y-1262628D02*
X+549788Y-1262628D01*
X+1062868Y-1262628D02*
X+1276228Y-1262628D01*
X+1443868Y-1262628D02*
X+1611508Y-1262628D01*
X+1738508Y-1262628D02*
X+1916308Y-1262628D01*
X+2480188Y-1262628D02*
X+2673228Y-1262628D01*
X-1065652Y-1257548D02*
X-898012Y-1257548D01*
X+133228Y-1257548D02*
X+290708Y-1257548D01*
X+382148Y-1257548D02*
X+554868Y-1257548D01*
X+1073028Y-1257548D02*
X+1281308Y-1257548D01*
X+1443868Y-1257548D02*
X+1611508Y-1257548D01*
X+1738508Y-1257548D02*
X+1916308Y-1257548D01*
X+2480188Y-1257548D02*
X+2673228Y-1257548D01*
X-1065652Y-1252468D02*
X-898012Y-1252468D01*
X+133228Y-1252468D02*
X+285628Y-1252468D01*
X+382148Y-1252468D02*
X+559948Y-1252468D01*
X+1073028Y-1252468D02*
X+1286388Y-1252468D01*
X+1443868Y-1252468D02*
X+1611508Y-1252468D01*
X+1738508Y-1252468D02*
X+1916308Y-1252468D01*
X+2480188Y-1252468D02*
X+2673228Y-1252468D01*
X-1065652Y-1247388D02*
X-898012Y-1247388D01*
X+133228Y-1247388D02*
X+280548Y-1247388D01*
X+387228Y-1247388D02*
X+559948Y-1247388D01*
X+1078108Y-1247388D02*
X+1291468Y-1247388D01*
X+1443868Y-1247388D02*
X+1611508Y-1247388D01*
X+1738508Y-1247388D02*
X+1911228Y-1247388D01*
X+2480188Y-1247388D02*
X+2673228Y-1247388D01*
X-1065652Y-1242308D02*
X-898012Y-1242308D01*
X+123068Y-1242308D02*
X+275468Y-1242308D01*
X+392308Y-1242308D02*
X+559948Y-1242308D01*
X+1083188Y-1242308D02*
X+1296548Y-1242308D01*
X+1443868Y-1242308D02*
X+1611508Y-1242308D01*
X+1738508Y-1242308D02*
X+1906148Y-1242308D01*
X+2480188Y-1242308D02*
X+2673228Y-1242308D01*
X-1065652Y-1237228D02*
X-898012Y-1237228D01*
X+123068Y-1237228D02*
X+275468Y-1237228D01*
X+392308Y-1237228D02*
X+559948Y-1237228D01*
X+1088268Y-1237228D02*
X+1301628Y-1237228D01*
X+1443868Y-1237228D02*
X+1611508Y-1237228D01*
X+1738508Y-1237228D02*
X+1906148Y-1237228D01*
X+2480188Y-1237228D02*
X+2673228Y-1237228D01*
X-1065652Y-1232148D02*
X-898012Y-1232148D01*
X+123068Y-1232148D02*
X+275468Y-1232148D01*
X+392308Y-1232148D02*
X+559948Y-1232148D01*
X+1093348Y-1232148D02*
X+1301628Y-1232148D01*
X+1443868Y-1232148D02*
X+1611508Y-1232148D01*
X+1738508Y-1232148D02*
X+1906148Y-1232148D01*
X+2480188Y-1232148D02*
X+2673228Y-1232148D01*
X-1065652Y-1227068D02*
X-898012Y-1227068D01*
X+123068Y-1227068D02*
X+275468Y-1227068D01*
X+392308Y-1227068D02*
X+559948Y-1227068D01*
X+1098428Y-1227068D02*
X+1301628Y-1227068D01*
X+1443868Y-1227068D02*
X+1611508Y-1227068D01*
X+1738508Y-1227068D02*
X+1906148Y-1227068D01*
X+2480188Y-1227068D02*
X+2673228Y-1227068D01*
X-1065652Y-1221988D02*
X-898012Y-1221988D01*
X+117988Y-1221988D02*
X+270388Y-1221988D01*
X+392308Y-1221988D02*
X+559948Y-1221988D01*
X+1103508Y-1221988D02*
X+1301628Y-1221988D01*
X+1443868Y-1221988D02*
X+1611508Y-1221988D01*
X+1738508Y-1221988D02*
X+1906148Y-1221988D01*
X+2485268Y-1221988D02*
X+2673228Y-1221988D01*
X-1065652Y-1216908D02*
X-898012Y-1216908D01*
X+112908Y-1216908D02*
X+265308Y-1216908D01*
X+392308Y-1216908D02*
X+565028Y-1216908D01*
X+1108588Y-1216908D02*
X+1306708Y-1216908D01*
X+1443868Y-1216908D02*
X+1611508Y-1216908D01*
X+1738508Y-1216908D02*
X+1906148Y-1216908D01*
X+2490348Y-1216908D02*
X+2673228Y-1216908D01*
X-1065652Y-1211828D02*
X-898012Y-1211828D01*
X+107828Y-1211828D02*
X+265308Y-1211828D01*
X+392308Y-1211828D02*
X+570108Y-1211828D01*
X+1108588Y-1211828D02*
X+1311788Y-1211828D01*
X+1443868Y-1211828D02*
X+1611508Y-1211828D01*
X+1738508Y-1211828D02*
X+1906148Y-1211828D01*
X+2495428Y-1211828D02*
X+2673228Y-1211828D01*
X-1065652Y-1206748D02*
X-898012Y-1206748D01*
X+107828Y-1206748D02*
X+265308Y-1206748D01*
X+402468Y-1206748D02*
X+570108Y-1206748D01*
X+1118748Y-1206748D02*
X+1316868Y-1206748D01*
X+1443868Y-1206748D02*
X+1611508Y-1206748D01*
X+1738508Y-1206748D02*
X+1906148Y-1206748D01*
X+2515748Y-1206748D02*
X+2663068Y-1206748D01*
X-1065652Y-1201668D02*
X-898012Y-1201668D01*
X+107828Y-1201668D02*
X+265308Y-1201668D01*
X+407548Y-1201668D02*
X+570108Y-1201668D01*
X+1123828Y-1201668D02*
X+1321948Y-1201668D01*
X+1443868Y-1201668D02*
X+1611508Y-1201668D01*
X+1738508Y-1201668D02*
X+1906148Y-1201668D01*
X+2515748Y-1201668D02*
X+2657988Y-1201668D01*
X-1065652Y-1196588D02*
X-898012Y-1196588D01*
X+107828Y-1196588D02*
X+265308Y-1196588D01*
X+407548Y-1196588D02*
X+575188Y-1196588D01*
X+1123828Y-1196588D02*
X+1327028Y-1196588D01*
X+1443868Y-1196588D02*
X+1611508Y-1196588D01*
X+1738508Y-1196588D02*
X+1906148Y-1196588D01*
X+2520828Y-1196588D02*
X+2657988Y-1196588D01*
X-1065652Y-1191508D02*
X-898012Y-1191508D01*
X+107828Y-1191508D02*
X+265308Y-1191508D01*
X+407548Y-1191508D02*
X+575188Y-1191508D01*
X+1133988Y-1191508D02*
X+1332108Y-1191508D01*
X+1443868Y-1191508D02*
X+1611508Y-1191508D01*
X+1738508Y-1191508D02*
X+1906148Y-1191508D01*
X-1065652Y-1186428D02*
X-898012Y-1186428D01*
X+107828Y-1186428D02*
X+265308Y-1186428D01*
X+407548Y-1186428D02*
X+585348Y-1186428D01*
X+1133988Y-1186428D02*
X+1337188Y-1186428D01*
X+1443868Y-1186428D02*
X+1611508Y-1186428D01*
X+1738508Y-1186428D02*
X+1906148Y-1186428D01*
X-1065652Y-1181348D02*
X-898012Y-1181348D01*
X+107828Y-1181348D02*
X+255148Y-1181348D01*
X+412628Y-1181348D02*
X+585348Y-1181348D01*
X+1133988Y-1181348D02*
X+1342268Y-1181348D01*
X+1443868Y-1181348D02*
X+1611508Y-1181348D01*
X+1738508Y-1181348D02*
X+1906148Y-1181348D01*
X-1065652Y-1176268D02*
X-898012Y-1176268D01*
X+102748Y-1176268D02*
X+250068Y-1176268D01*
X+417708Y-1176268D02*
X+585348Y-1176268D01*
X+1133988Y-1176268D02*
X+1347348Y-1176268D01*
X+1443868Y-1176268D02*
X+1611508Y-1176268D01*
X+1738508Y-1176268D02*
X+1906148Y-1176268D01*
X-1065652Y-1171188D02*
X-898012Y-1171188D01*
X+97668Y-1171188D02*
X+250068Y-1171188D01*
X+417708Y-1171188D02*
X+585348Y-1171188D01*
X+1133988Y-1171188D02*
X+1352428Y-1171188D01*
X+1443868Y-1171188D02*
X+1611508Y-1171188D01*
X+1738508Y-1171188D02*
X+1906148Y-1171188D01*
X-1065652Y-1166108D02*
X-898012Y-1166108D01*
X+97668Y-1166108D02*
X+250068Y-1166108D01*
X+417708Y-1166108D02*
X+590428Y-1166108D01*
X+1144148Y-1166108D02*
X+1352428Y-1166108D01*
X+1443868Y-1166108D02*
X+1611508Y-1166108D01*
X+1738508Y-1166108D02*
X+1906148Y-1166108D01*
X-1065652Y-1161028D02*
X-898012Y-1161028D01*
X+97668Y-1161028D02*
X+250068Y-1161028D01*
X+417708Y-1161028D02*
X+595508Y-1161028D01*
X+1144148Y-1161028D02*
X+1362588Y-1161028D01*
X+1443868Y-1161028D02*
X+1611508Y-1161028D01*
X+1738508Y-1161028D02*
X+1906148Y-1161028D01*
X-1065652Y-1155948D02*
X-898012Y-1155948D01*
X+97668Y-1155948D02*
X+250068Y-1155948D01*
X+417708Y-1155948D02*
X+595508Y-1155948D01*
X+1149228Y-1155948D02*
X+1362588Y-1155948D01*
X+1443868Y-1155948D02*
X+1611508Y-1155948D01*
X+1738508Y-1155948D02*
X+1906148Y-1155948D01*
X-1065652Y-1150868D02*
X-898012Y-1150868D01*
X+92588Y-1150868D02*
X+250068Y-1150868D01*
X+417708Y-1150868D02*
X+595508Y-1150868D01*
X+1159388Y-1150868D02*
X+1367668Y-1150868D01*
X+1443868Y-1150868D02*
X+1611508Y-1150868D01*
X+1738508Y-1150868D02*
X+1906148Y-1150868D01*
X-1065652Y-1145788D02*
X-898012Y-1145788D01*
X+82428Y-1145788D02*
X+250068Y-1145788D01*
X+417708Y-1145788D02*
X+595508Y-1145788D01*
X+1159388Y-1145788D02*
X+1372748Y-1145788D01*
X+1443868Y-1145788D02*
X+1611508Y-1145788D01*
X+1738508Y-1145788D02*
X+1906148Y-1145788D01*
X-1065652Y-1140708D02*
X-898012Y-1140708D01*
X+82428Y-1140708D02*
X+244988Y-1140708D01*
X+427868Y-1140708D02*
X+595508Y-1140708D01*
X+1164468Y-1140708D02*
X+1377828Y-1140708D01*
X+1443868Y-1140708D02*
X+1611508Y-1140708D01*
X+1738508Y-1140708D02*
X+1906148Y-1140708D01*
X-1065652Y-1135628D02*
X-898012Y-1135628D01*
X+82428Y-1135628D02*
X+239908Y-1135628D01*
X+427868Y-1135628D02*
X+595508Y-1135628D01*
X+1169548Y-1135628D02*
X+1382908Y-1135628D01*
X+1443868Y-1135628D02*
X+1611508Y-1135628D01*
X+1738508Y-1135628D02*
X+1916308Y-1135628D01*
X-1065652Y-1130548D02*
X-898012Y-1130548D01*
X+82428Y-1130548D02*
X+239908Y-1130548D01*
X+427868Y-1130548D02*
X+595508Y-1130548D01*
X+1174628Y-1130548D02*
X+1387988Y-1130548D01*
X+1443868Y-1130548D02*
X+1611508Y-1130548D01*
X+1738508Y-1130548D02*
X+1916308Y-1130548D01*
X-1065652Y-1125468D02*
X-898012Y-1125468D01*
X+82428Y-1125468D02*
X+239908Y-1125468D01*
X+427868Y-1125468D02*
X+600588Y-1125468D01*
X+1179708Y-1125468D02*
X+1393068Y-1125468D01*
X+1443868Y-1125468D02*
X+1611508Y-1125468D01*
X+1738508Y-1125468D02*
X+1916308Y-1125468D01*
X-1065652Y-1120388D02*
X-898012Y-1120388D01*
X+72268Y-1120388D02*
X+239908Y-1120388D01*
X+427868Y-1120388D02*
X+610748Y-1120388D01*
X+1184788Y-1120388D02*
X+1398148Y-1120388D01*
X+1443868Y-1120388D02*
X+1611508Y-1120388D01*
X+1738508Y-1120388D02*
X+1916308Y-1120388D01*
X-1065652Y-1115308D02*
X-898012Y-1115308D01*
X+72268Y-1115308D02*
X+234828Y-1115308D01*
X+438028Y-1115308D02*
X+610748Y-1115308D01*
X+1189868Y-1115308D02*
X+1403228Y-1115308D01*
X+1443868Y-1115308D02*
X+1611508Y-1115308D01*
X+1738508Y-1115308D02*
X+1916308Y-1115308D01*
X-1065652Y-1110228D02*
X-898012Y-1110228D01*
X+72268Y-1110228D02*
X+229748Y-1110228D01*
X+443108Y-1110228D02*
X+610748Y-1110228D01*
X+1194948Y-1110228D02*
X+1408308Y-1110228D01*
X+1443868Y-1110228D02*
X+1611508Y-1110228D01*
X+1738508Y-1110228D02*
X+1916308Y-1110228D01*
X-1065652Y-1105148D02*
X-898012Y-1105148D01*
X+72268Y-1105148D02*
X+224668Y-1105148D01*
X+443108Y-1105148D02*
X+610748Y-1105148D01*
X+1194948Y-1105148D02*
X+1413388Y-1105148D01*
X+1443868Y-1105148D02*
X+1611508Y-1105148D01*
X+1738508Y-1105148D02*
X+1916308Y-1105148D01*
X-1065652Y-1100068D02*
X-898012Y-1100068D01*
X+72268Y-1100068D02*
X+224668Y-1100068D01*
X+443108Y-1100068D02*
X+610748Y-1100068D01*
X+1205108Y-1100068D02*
X+1413388Y-1100068D01*
X+1443868Y-1100068D02*
X+1611508Y-1100068D01*
X+1738508Y-1100068D02*
X+1921388Y-1100068D01*
X-1065652Y-1094988D02*
X-898012Y-1094988D01*
X+72268Y-1094988D02*
X+224668Y-1094988D01*
X+443108Y-1094988D02*
X+620908Y-1094988D01*
X+1210188Y-1094988D02*
X+1423548Y-1094988D01*
X+1443868Y-1094988D02*
X+1611508Y-1094988D01*
X+1738508Y-1094988D02*
X+1931548Y-1094988D01*
X-1065652Y-1089908D02*
X-898012Y-1089908D01*
X+72268Y-1089908D02*
X+224668Y-1089908D01*
X+443108Y-1089908D02*
X+620908Y-1089908D01*
X+1210188Y-1089908D02*
X+1423548Y-1089908D01*
X+1443868Y-1089908D02*
X+1611508Y-1089908D01*
X+1743588Y-1089908D02*
X+1931548Y-1089908D01*
X-1065652Y-1084828D02*
X-898012Y-1084828D01*
X+67188Y-1084828D02*
X+224668Y-1084828D01*
X+443108Y-1084828D02*
X+620908Y-1084828D01*
X+1220348Y-1084828D02*
X+1428628Y-1084828D01*
X+1438788Y-1084828D02*
X+1611508Y-1084828D01*
X+1748668Y-1084828D02*
X+1936628Y-1084828D01*
X-1065652Y-1079748D02*
X-898012Y-1079748D01*
X+62108Y-1079748D02*
X+224668Y-1079748D01*
X+443108Y-1079748D02*
X+620908Y-1079748D01*
X+1220348Y-1079748D02*
X+1611508Y-1079748D01*
X+1753748Y-1079748D02*
X+1941708Y-1079748D01*
X-1065652Y-1074668D02*
X-898012Y-1074668D01*
X+62108Y-1074668D02*
X+219588Y-1074668D01*
X+448188Y-1074668D02*
X+620908Y-1074668D01*
X+1225428Y-1074668D02*
X+1611508Y-1074668D01*
X+1753748Y-1074668D02*
X+1941708Y-1074668D01*
X-1065652Y-1069588D02*
X-898012Y-1069588D01*
X+62108Y-1069588D02*
X+214508Y-1069588D01*
X+453268Y-1069588D02*
X+620908Y-1069588D01*
X+1230508Y-1069588D02*
X+1611508Y-1069588D01*
X+1753748Y-1069588D02*
X+1941708Y-1069588D01*
X-1065652Y-1064508D02*
X-898012Y-1064508D01*
X+57028Y-1064508D02*
X+214508Y-1064508D01*
X+453268Y-1064508D02*
X+620908Y-1064508D01*
X+1235588Y-1064508D02*
X+1611508Y-1064508D01*
X+1753748Y-1064508D02*
X+1941708Y-1064508D01*
X-1065652Y-1059428D02*
X-898012Y-1059428D01*
X+57028Y-1059428D02*
X+214508Y-1059428D01*
X+453268Y-1059428D02*
X+625988Y-1059428D01*
X+1240668Y-1059428D02*
X+1611508Y-1059428D01*
X+1753748Y-1059428D02*
X+1946788Y-1059428D01*
X-1065652Y-1054348D02*
X-898012Y-1054348D01*
X+46868Y-1054348D02*
X+214508Y-1054348D01*
X+453268Y-1054348D02*
X+631068Y-1054348D01*
X+1245748Y-1054348D02*
X+1611508Y-1054348D01*
X+1753748Y-1054348D02*
X+1956948Y-1054348D01*
X-1065652Y-1049268D02*
X-898012Y-1049268D01*
X+46868Y-1049268D02*
X+209428Y-1049268D01*
X+453268Y-1049268D02*
X+636148Y-1049268D01*
X+1250828Y-1049268D02*
X+1611508Y-1049268D01*
X+1753748Y-1049268D02*
X+1956948Y-1049268D01*
X-1065652Y-1044188D02*
X-898012Y-1044188D01*
X+46868Y-1044188D02*
X+204348Y-1044188D01*
X+453268Y-1044188D02*
X+636148Y-1044188D01*
X+1255908Y-1044188D02*
X+1611508Y-1044188D01*
X+1763908Y-1044188D02*
X+1962028Y-1044188D01*
X-1065652Y-1039108D02*
X-898012Y-1039108D01*
X+46868Y-1039108D02*
X+204348Y-1039108D01*
X+453268Y-1039108D02*
X+636148Y-1039108D01*
X+1255908Y-1039108D02*
X+1611508Y-1039108D01*
X+1763908Y-1039108D02*
X+1967108Y-1039108D01*
X-1065652Y-1034028D02*
X-898012Y-1034028D01*
X+46868Y-1034028D02*
X+204348Y-1034028D01*
X+463428Y-1034028D02*
X+636148Y-1034028D01*
X+1255908Y-1034028D02*
X+1611508Y-1034028D01*
X+1763908Y-1034028D02*
X+1972188Y-1034028D01*
X-1065652Y-1028948D02*
X-898012Y-1028948D01*
X+46868Y-1028948D02*
X+204348Y-1028948D01*
X+468508Y-1028948D02*
X+646308Y-1028948D01*
X+1255908Y-1028948D02*
X+1611508Y-1028948D01*
X+1763908Y-1028948D02*
X+1977268Y-1028948D01*
X-1065652Y-1023868D02*
X-898012Y-1023868D01*
X+46868Y-1023868D02*
X+204348Y-1023868D01*
X+468508Y-1023868D02*
X+646308Y-1023868D01*
X+1260988Y-1023868D02*
X+1611508Y-1023868D01*
X+1763908Y-1023868D02*
X+1982348Y-1023868D01*
X-1065652Y-1018788D02*
X-898012Y-1018788D01*
X+41788Y-1018788D02*
X+204348Y-1018788D01*
X+468508Y-1018788D02*
X+646308Y-1018788D01*
X+1266068Y-1018788D02*
X+1611508Y-1018788D01*
X+1774068Y-1018788D02*
X+1982348Y-1018788D01*
X-1065652Y-1013708D02*
X-898012Y-1013708D01*
X+36708Y-1013708D02*
X+204348Y-1013708D01*
X+468508Y-1013708D02*
X+646308Y-1013708D01*
X+1271148Y-1013708D02*
X+1611508Y-1013708D01*
X+1774068Y-1013708D02*
X+1992508Y-1013708D01*
X-1065652Y-1008628D02*
X-898012Y-1008628D01*
X+36708Y-1008628D02*
X+194188Y-1008628D01*
X+473588Y-1008628D02*
X+646308Y-1008628D01*
X+1276228Y-1008628D02*
X+1611508Y-1008628D01*
X+1774068Y-1008628D02*
X+1992508Y-1008628D01*
X-1065652Y-1003548D02*
X-898012Y-1003548D01*
X+36708Y-1003548D02*
X+189108Y-1003548D01*
X+478668Y-1003548D02*
X+646308Y-1003548D01*
X+1281308Y-1003548D02*
X+1611508Y-1003548D01*
X+1774068Y-1003548D02*
X+1997588Y-1003548D01*
X-1065652Y-998468D02*
X-898012Y-998468D01*
X+36708Y-998468D02*
X+189108Y-998468D01*
X+478668Y-998468D02*
X+646308Y-998468D01*
X+1281308Y-998468D02*
X+1611508Y-998468D01*
X+1779148Y-998468D02*
X+2017908Y-998468D01*
X-1065652Y-993388D02*
X-898012Y-993388D01*
X+31628Y-993388D02*
X+189108Y-993388D01*
X+478668Y-993388D02*
X+651388Y-993388D01*
X+1281308Y-993388D02*
X+1611508Y-993388D01*
X+1784228Y-993388D02*
X+2017908Y-993388D01*
X-1065652Y-988308D02*
X-898012Y-988308D01*
X+26548Y-988308D02*
X+189108Y-988308D01*
X+478668Y-988308D02*
X+656468Y-988308D01*
X+1271148Y-988308D02*
X+1611508Y-988308D01*
X+1789308Y-988308D02*
X+2028068Y-988308D01*
X-1065652Y-983228D02*
X-898012Y-983228D01*
X+21468Y-983228D02*
X+189108Y-983228D01*
X+478668Y-983228D02*
X+656468Y-983228D01*
X+1271148Y-983228D02*
X+1611508Y-983228D01*
X+1789308Y-983228D02*
X+2028068Y-983228D01*
X-1065652Y-978148D02*
X-898012Y-978148D01*
X+21468Y-978148D02*
X+189108Y-978148D01*
X+478668Y-978148D02*
X+656468Y-978148D01*
X+1266068Y-978148D02*
X+1611508Y-978148D01*
X+1789308Y-978148D02*
X+2033148Y-978148D01*
X-1065652Y-973068D02*
X-898012Y-973068D01*
X+21468Y-973068D02*
X+189108Y-973068D01*
X+478668Y-973068D02*
X+656468Y-973068D01*
X+1255908Y-973068D02*
X+1611508Y-973068D01*
X+1789308Y-973068D02*
X+2053468Y-973068D01*
X-1065652Y-967988D02*
X-898012Y-967988D01*
X+21468Y-967988D02*
X+184028Y-967988D01*
X+488828Y-967988D02*
X+661548Y-967988D01*
X+1255908Y-967988D02*
X+1611508Y-967988D01*
X+1794388Y-967988D02*
X+2058548Y-967988D01*
X-1065652Y-962908D02*
X-898012Y-962908D01*
X+21468Y-962908D02*
X+178948Y-962908D01*
X+488828Y-962908D02*
X+666628Y-962908D01*
X+1250828Y-962908D02*
X+1611508Y-962908D01*
X+1799468Y-962908D02*
X+2089028Y-962908D01*
X-1065652Y-957828D02*
X-898012Y-957828D01*
X+21468Y-957828D02*
X+178948Y-957828D01*
X+493908Y-957828D02*
X+671708Y-957828D01*
X+1245748Y-957828D02*
X+1611508Y-957828D01*
X+1804548Y-957828D02*
X+2094108Y-957828D01*
X-1065652Y-952748D02*
X-898012Y-952748D01*
X+21468Y-952748D02*
X+178948Y-952748D01*
X+493908Y-952748D02*
X+671708Y-952748D01*
X+1240668Y-952748D02*
X+1611508Y-952748D01*
X+1809628Y-952748D02*
X+2094108Y-952748D01*
X-1065652Y-947668D02*
X-898012Y-947668D01*
X+11308Y-947668D02*
X+178948Y-947668D01*
X+493908Y-947668D02*
X+671708Y-947668D01*
X+1235588Y-947668D02*
X+1611508Y-947668D01*
X+1814708Y-947668D02*
X+2129668Y-947668D01*
X-1065652Y-942588D02*
X-898012Y-942588D01*
X+11308Y-942588D02*
X+173868Y-942588D01*
X+498988Y-942588D02*
X+671708Y-942588D01*
X+1230508Y-942588D02*
X+1611508Y-942588D01*
X+1819788Y-942588D02*
X+2129668Y-942588D01*
X-1065652Y-937508D02*
X-898012Y-937508D01*
X+11308Y-937508D02*
X+168788Y-937508D01*
X+504068Y-937508D02*
X+671708Y-937508D01*
X+1225428Y-937508D02*
X+1428628Y-937508D01*
X+1443868Y-937508D02*
X+1611508Y-937508D01*
X+1824868Y-937508D02*
X+2134748Y-937508D01*
X-1065652Y-932428D02*
X-898012Y-932428D01*
X+11308Y-932428D02*
X+163708Y-932428D01*
X+504068Y-932428D02*
X+671708Y-932428D01*
X+1220348Y-932428D02*
X+1423548Y-932428D01*
X+1443868Y-932428D02*
X+1611508Y-932428D01*
X+1824868Y-932428D02*
X+2165228Y-932428D01*
X-1065652Y-927348D02*
X-898012Y-927348D01*
X+6228Y-927348D02*
X+163708Y-927348D01*
X+504068Y-927348D02*
X+671708Y-927348D01*
X+1220348Y-927348D02*
X+1418468Y-927348D01*
X+1443868Y-927348D02*
X+1611508Y-927348D01*
X+1835028Y-927348D02*
X+2165228Y-927348D01*
X-1065652Y-922268D02*
X-898012Y-922268D01*
X+1148Y-922268D02*
X+163708Y-922268D01*
X+504068Y-922268D02*
X+681868Y-922268D01*
X+1210188Y-922268D02*
X+1413388Y-922268D01*
X+1443868Y-922268D02*
X+1611508Y-922268D01*
X+1840108Y-922268D02*
X+2200788Y-922268D01*
X-1065652Y-917188D02*
X-898012Y-917188D01*
X-3932Y-917188D02*
X+163708Y-917188D01*
X+504068Y-917188D02*
X+681868Y-917188D01*
X+1210188Y-917188D02*
X+1408308Y-917188D01*
X+1443868Y-917188D02*
X+1611508Y-917188D01*
X+1840108Y-917188D02*
X+2200788Y-917188D01*
X-1065652Y-912108D02*
X-898012Y-912108D01*
X-3932Y-912108D02*
X+163708Y-912108D01*
X+504068Y-912108D02*
X+681868Y-912108D01*
X+1210188Y-912108D02*
X+1403228Y-912108D01*
X+1443868Y-912108D02*
X+1611508Y-912108D01*
X+1850268Y-912108D02*
X+2205868Y-912108D01*
X-1065652Y-907028D02*
X-898012Y-907028D01*
X-3932Y-907028D02*
X+163708Y-907028D01*
X+504068Y-907028D02*
X+681868Y-907028D01*
X+1210188Y-907028D02*
X+1398148Y-907028D01*
X+1443868Y-907028D02*
X+1611508Y-907028D01*
X+1850268Y-907028D02*
X+2251588Y-907028D01*
X-1065652Y-901948D02*
X-898012Y-901948D01*
X-3932Y-901948D02*
X+158628Y-901948D01*
X+509148Y-901948D02*
X+686948Y-901948D01*
X+1205108Y-901948D02*
X+1398148Y-901948D01*
X+1443868Y-901948D02*
X+1611508Y-901948D01*
X+1855348Y-901948D02*
X+2251588Y-901948D01*
X-1065652Y-896868D02*
X-898012Y-896868D01*
X-3932Y-896868D02*
X+153548Y-896868D01*
X+514228Y-896868D02*
X+692028Y-896868D01*
X+1200028Y-896868D02*
X+1398148Y-896868D01*
X+1443868Y-896868D02*
X+1611508Y-896868D01*
X+1860428Y-896868D02*
X+2261748Y-896868D01*
X-1065652Y-891788D02*
X-898012Y-891788D01*
X-3932Y-891788D02*
X+153548Y-891788D01*
X+519308Y-891788D02*
X+697108Y-891788D01*
X+1194948Y-891788D02*
X+1398148Y-891788D01*
X+1443868Y-891788D02*
X+1611508Y-891788D01*
X+1865508Y-891788D02*
X+2287148Y-891788D01*
X-1065652Y-886708D02*
X-898012Y-886708D01*
X-3932Y-886708D02*
X+153548Y-886708D01*
X+519308Y-886708D02*
X+697108Y-886708D01*
X+1194948Y-886708D02*
X+1393068Y-886708D01*
X+1443868Y-886708D02*
X+1611508Y-886708D01*
X+1870588Y-886708D02*
X+2292228Y-886708D01*
X-1065652Y-881628D02*
X-898012Y-881628D01*
X-14092Y-881628D02*
X+153548Y-881628D01*
X+519308Y-881628D02*
X+697108Y-881628D01*
X+1184788Y-881628D02*
X+1387988Y-881628D01*
X+1443868Y-881628D02*
X+1611508Y-881628D01*
X+1875668Y-881628D02*
X+2322708Y-881628D01*
X-1065652Y-876548D02*
X-898012Y-876548D01*
X-14092Y-876548D02*
X+148468Y-876548D01*
X+519308Y-876548D02*
X+697108Y-876548D01*
X+1184788Y-876548D02*
X+1382908Y-876548D01*
X+1443868Y-876548D02*
X+1611508Y-876548D01*
X+1875668Y-876548D02*
X+2327788Y-876548D01*
X-1065652Y-871468D02*
X-898012Y-871468D01*
X-14092Y-871468D02*
X+143388Y-871468D01*
X+529468Y-871468D02*
X+697108Y-871468D01*
X+1179708Y-871468D02*
X+1377828Y-871468D01*
X+1443868Y-871468D02*
X+1611508Y-871468D01*
X+1895988Y-871468D02*
X+2332868Y-871468D01*
X-1065652Y-866388D02*
X-898012Y-866388D01*
X-14092Y-866388D02*
X+138308Y-866388D01*
X+529468Y-866388D02*
X+697108Y-866388D01*
X+1169548Y-866388D02*
X+1372748Y-866388D01*
X+1443868Y-866388D02*
X+1611508Y-866388D01*
X+1901068Y-866388D02*
X+2363348Y-866388D01*
X-1065652Y-861308D02*
X-898012Y-861308D01*
X-14092Y-861308D02*
X+138308Y-861308D01*
X+529468Y-861308D02*
X+697108Y-861308D01*
X+1169548Y-861308D02*
X+1367668Y-861308D01*
X+1443868Y-861308D02*
X+1611508Y-861308D01*
X+1906148Y-861308D02*
X+2363348Y-861308D01*
X-1065652Y-856228D02*
X-898012Y-856228D01*
X-24252Y-856228D02*
X+138308Y-856228D01*
X+529468Y-856228D02*
X+707268Y-856228D01*
X+1164468Y-856228D02*
X+1362588Y-856228D01*
X+1443868Y-856228D02*
X+1611508Y-856228D01*
X+1911228Y-856228D02*
X+2398908Y-856228D01*
X-1065652Y-851148D02*
X-898012Y-851148D01*
X-24252Y-851148D02*
X+138308Y-851148D01*
X+529468Y-851148D02*
X+707268Y-851148D01*
X+1159388Y-851148D02*
X+1362588Y-851148D01*
X+1443868Y-851148D02*
X+1611508Y-851148D01*
X+1916308Y-851148D02*
X+2398908Y-851148D01*
X-1065652Y-846068D02*
X-898012Y-846068D01*
X-24252Y-846068D02*
X+138308Y-846068D01*
X+529468Y-846068D02*
X+707268Y-846068D01*
X+1154308Y-846068D02*
X+1352428Y-846068D01*
X+1443868Y-846068D02*
X+1611508Y-846068D01*
X+1936628Y-846068D02*
X+2403988Y-846068D01*
X-1065652Y-840988D02*
X-898012Y-840988D01*
X-24252Y-840988D02*
X+138308Y-840988D01*
X+529468Y-840988D02*
X+707268Y-840988D01*
X+1149228Y-840988D02*
X+1352428Y-840988D01*
X+1443868Y-840988D02*
X+1611508Y-840988D01*
X+1936628Y-840988D02*
X+2434468Y-840988D01*
X-1065652Y-835908D02*
X-898012Y-835908D01*
X-29332Y-835908D02*
X+133228Y-835908D01*
X+534548Y-835908D02*
X+707268Y-835908D01*
X+1144148Y-835908D02*
X+1347348Y-835908D01*
X+1443868Y-835908D02*
X+1611508Y-835908D01*
X+1967108Y-835908D02*
X+2439548Y-835908D01*
X-1065652Y-830828D02*
X-898012Y-830828D01*
X-34412Y-830828D02*
X+128148Y-830828D01*
X+539628Y-830828D02*
X+712348Y-830828D01*
X+1139068Y-830828D02*
X+1337188Y-830828D01*
X+1443868Y-830828D02*
X+1611508Y-830828D01*
X+1972188Y-830828D02*
X+2444628Y-830828D01*
X-1065652Y-825748D02*
X-898012Y-825748D01*
X-39492Y-825748D02*
X+128148Y-825748D01*
X+539628Y-825748D02*
X+722508Y-825748D01*
X+1133988Y-825748D02*
X+1337188Y-825748D01*
X+1443868Y-825748D02*
X+1611508Y-825748D01*
X+1972188Y-825748D02*
X+2475108Y-825748D01*
X-1065652Y-820668D02*
X-898012Y-820668D01*
X-39492Y-820668D02*
X+128148Y-820668D01*
X+539628Y-820668D02*
X+722508Y-820668D01*
X+1133988Y-820668D02*
X+1332108Y-820668D01*
X+1443868Y-820668D02*
X+1611508Y-820668D01*
X+2007748Y-820668D02*
X+2475108Y-820668D01*
X-1065652Y-815588D02*
X-898012Y-815588D01*
X-39492Y-815588D02*
X+128148Y-815588D01*
X+539628Y-815588D02*
X+722508Y-815588D01*
X+1123828Y-815588D02*
X+1327028Y-815588D01*
X+1443868Y-815588D02*
X+1611508Y-815588D01*
X+2012828Y-815588D02*
X+2495428Y-815588D01*
X-1065652Y-810508D02*
X-898012Y-810508D01*
X-39492Y-810508D02*
X+128148Y-810508D01*
X+539628Y-810508D02*
X+722508Y-810508D01*
X+1118748Y-810508D02*
X+1321948Y-810508D01*
X+1443868Y-810508D02*
X+1611508Y-810508D01*
X+2012828Y-810508D02*
X+2500508Y-810508D01*
X-1065652Y-805428D02*
X-898012Y-805428D01*
X-39492Y-805428D02*
X+128148Y-805428D01*
X+539628Y-805428D02*
X+722508Y-805428D01*
X+1118748Y-805428D02*
X+1316868Y-805428D01*
X+1443868Y-805428D02*
X+1611508Y-805428D01*
X+2048388Y-805428D02*
X+2505588Y-805428D01*
X-1065652Y-800348D02*
X-898012Y-800348D01*
X-39492Y-800348D02*
X+128148Y-800348D01*
X+539628Y-800348D02*
X+732668Y-800348D01*
X+1108588Y-800348D02*
X+1311788Y-800348D01*
X+1443868Y-800348D02*
X+1611508Y-800348D01*
X+2048388Y-800348D02*
X+2510668Y-800348D01*
X-1065652Y-795268D02*
X-898012Y-795268D01*
X-39492Y-795268D02*
X+123068Y-795268D01*
X+549788Y-795268D02*
X+732668Y-795268D01*
X+1108588Y-795268D02*
X+1311788Y-795268D01*
X+1443868Y-795268D02*
X+1611508Y-795268D01*
X+2078868Y-795268D02*
X+2510668Y-795268D01*
X-1065652Y-790188D02*
X-898012Y-790188D01*
X-44572Y-790188D02*
X+117988Y-790188D01*
X+554868Y-790188D02*
X+732668Y-790188D01*
X+1103508Y-790188D02*
X+1311788Y-790188D01*
X+1443868Y-790188D02*
X+1611508Y-790188D01*
X+2083948Y-790188D02*
X+2520828Y-790188D01*
X-1065652Y-785108D02*
X-898012Y-785108D01*
X-49652Y-785108D02*
X+112908Y-785108D01*
X+554868Y-785108D02*
X+732668Y-785108D01*
X+1098428Y-785108D02*
X+1311788Y-785108D01*
X+1443868Y-785108D02*
X+1611508Y-785108D01*
X+2083948Y-785108D02*
X+2536068Y-785108D01*
X-1065652Y-780028D02*
X-898012Y-780028D01*
X-49652Y-780028D02*
X+112908Y-780028D01*
X+554868Y-780028D02*
X+732668Y-780028D01*
X+1093348Y-780028D02*
X+1306708Y-780028D01*
X+1443868Y-780028D02*
X+1611508Y-780028D01*
X+2119508Y-780028D02*
X+2541148Y-780028D01*
X-1065652Y-774948D02*
X-898012Y-774948D01*
X-49652Y-774948D02*
X+112908Y-774948D01*
X+554868Y-774948D02*
X+732668Y-774948D01*
X+1088268Y-774948D02*
X+1301628Y-774948D01*
X+1443868Y-774948D02*
X+1611508Y-774948D01*
X+2119508Y-774948D02*
X+2546228Y-774948D01*
X-1065652Y-769868D02*
X-898012Y-769868D01*
X-54732Y-769868D02*
X+112908Y-769868D01*
X+554868Y-769868D02*
X+732668Y-769868D01*
X+1083188Y-769868D02*
X+1296548Y-769868D01*
X+1443868Y-769868D02*
X+1611508Y-769868D01*
X+2124588Y-769868D02*
X+2551308Y-769868D01*
X-1065652Y-764788D02*
X-898012Y-764788D01*
X-54732Y-764788D02*
X+102748Y-764788D01*
X+565028Y-764788D02*
X+737748Y-764788D01*
X+1078108Y-764788D02*
X+1291468Y-764788D01*
X+1443868Y-764788D02*
X+1611508Y-764788D01*
X+2155068Y-764788D02*
X+2551308Y-764788D01*
X-1065652Y-759708D02*
X-898012Y-759708D01*
X-64892Y-759708D02*
X+102748Y-759708D01*
X+565028Y-759708D02*
X+742828Y-759708D01*
X+1073028Y-759708D02*
X+1286388Y-759708D01*
X+1443868Y-759708D02*
X+1611508Y-759708D01*
X+2160148Y-759708D02*
X+2561468Y-759708D01*
X-1065652Y-754628D02*
X-898012Y-754628D01*
X-64892Y-754628D02*
X+102748Y-754628D01*
X+565028Y-754628D02*
X+742828Y-754628D01*
X+1073028Y-754628D02*
X+1281308Y-754628D01*
X+1443868Y-754628D02*
X+1611508Y-754628D01*
X+2190628Y-754628D02*
X+2561468Y-754628D01*
X-1065652Y-749548D02*
X-898012Y-749548D01*
X-64892Y-749548D02*
X+102748Y-749548D01*
X+565028Y-749548D02*
X+742828Y-749548D01*
X+1062868Y-749548D02*
X+1276228Y-749548D01*
X+1443868Y-749548D02*
X+1611508Y-749548D01*
X+2195708Y-749548D02*
X+2571628Y-749548D01*
X-1065652Y-744468D02*
X-898012Y-744468D01*
X-64892Y-744468D02*
X+102748Y-744468D01*
X+565028Y-744468D02*
X+747908Y-744468D01*
X+1057788Y-744468D02*
X+1276228Y-744468D01*
X+1443868Y-744468D02*
X+1611508Y-744468D01*
X+2195708Y-744468D02*
X+2571628Y-744468D01*
X-1065652Y-739388D02*
X-898012Y-739388D01*
X-64892Y-739388D02*
X+102748Y-739388D01*
X+565028Y-739388D02*
X+747908Y-739388D01*
X+1057788Y-739388D02*
X+1266068Y-739388D01*
X+1443868Y-739388D02*
X+1611508Y-739388D01*
X+2241428Y-739388D02*
X+2576708Y-739388D01*
X-1065652Y-734308D02*
X-898012Y-734308D01*
X-64892Y-734308D02*
X+102748Y-734308D01*
X+565028Y-734308D02*
X+758068Y-734308D01*
X+1047628Y-734308D02*
X+1266068Y-734308D01*
X+1443868Y-734308D02*
X+1611508Y-734308D01*
X+2246508Y-734308D02*
X+2586868Y-734308D01*
X-1065652Y-729228D02*
X-898012Y-729228D01*
X-64892Y-729228D02*
X+97668Y-729228D01*
X+570108Y-729228D02*
X+758068Y-729228D01*
X+1047628Y-729228D02*
X+1260988Y-729228D01*
X+1443868Y-729228D02*
X+1611508Y-729228D01*
X+2276988Y-729228D02*
X+2586868Y-729228D01*
X-1065652Y-724148D02*
X-898012Y-724148D01*
X-69972Y-724148D02*
X+92588Y-724148D01*
X+575188Y-724148D02*
X+758068Y-724148D01*
X+1042548Y-724148D02*
X+1250828Y-724148D01*
X+1443868Y-724148D02*
X+1611508Y-724148D01*
X+2282068Y-724148D02*
X+2591948Y-724148D01*
X-1065652Y-719068D02*
X-898012Y-719068D01*
X-75052Y-719068D02*
X+92588Y-719068D01*
X+580268Y-719068D02*
X+758068Y-719068D01*
X+1037468Y-719068D02*
X+1250828Y-719068D01*
X+1443868Y-719068D02*
X+1611508Y-719068D01*
X+2282068Y-719068D02*
X+2597028Y-719068D01*
X-1065652Y-713988D02*
X-898012Y-713988D01*
X-75052Y-713988D02*
X+92588Y-713988D01*
X+580268Y-713988D02*
X+758068Y-713988D01*
X+1032388Y-713988D02*
X+1245748Y-713988D01*
X+1443868Y-713988D02*
X+1611508Y-713988D01*
X+2317628Y-713988D02*
X+2602108Y-713988D01*
X-1065652Y-708908D02*
X-898012Y-708908D01*
X-75052Y-708908D02*
X+92588Y-708908D01*
X+580268Y-708908D02*
X+758068Y-708908D01*
X+1027308Y-708908D02*
X+1240668Y-708908D01*
X+1443868Y-708908D02*
X+1611508Y-708908D01*
X+2317628Y-708908D02*
X+2607188Y-708908D01*
X-1065652Y-703828D02*
X-898012Y-703828D01*
X-75052Y-703828D02*
X+87508Y-703828D01*
X+580268Y-703828D02*
X+758068Y-703828D01*
X+1022228Y-703828D02*
X+1235588Y-703828D01*
X+1443868Y-703828D02*
X+1611508Y-703828D01*
X+2322708Y-703828D02*
X+2612268Y-703828D01*
X-1065652Y-698748D02*
X-898012Y-698748D01*
X-80132Y-698748D02*
X+82428Y-698748D01*
X+590428Y-698748D02*
X+763148Y-698748D01*
X+1017148Y-698748D02*
X+1230508Y-698748D01*
X+1443868Y-698748D02*
X+1611508Y-698748D01*
X+2343028Y-698748D02*
X+2612268Y-698748D01*
X-1065652Y-693668D02*
X-898012Y-693668D01*
X-90292Y-693668D02*
X+77348Y-693668D01*
X+590428Y-693668D02*
X+768228Y-693668D01*
X+1012068Y-693668D02*
X+1225428Y-693668D01*
X+1443868Y-693668D02*
X+1611508Y-693668D01*
X+2343028Y-693668D02*
X+2612268Y-693668D01*
X-1065652Y-688588D02*
X-898012Y-688588D01*
X-90292Y-688588D02*
X+77348Y-688588D01*
X+590428Y-688588D02*
X+768228Y-688588D01*
X+1006988Y-688588D02*
X+1225428Y-688588D01*
X+1443868Y-688588D02*
X+1611508Y-688588D01*
X+2363348Y-688588D02*
X+2612268Y-688588D01*
X-1065652Y-683508D02*
X-898012Y-683508D01*
X-90292Y-683508D02*
X+77348Y-683508D01*
X+590428Y-683508D02*
X+768228Y-683508D01*
X+1001908Y-683508D02*
X+1225428Y-683508D01*
X+1443868Y-683508D02*
X+1611508Y-683508D01*
X+2368428Y-683508D02*
X+2617348Y-683508D01*
X-1065652Y-678428D02*
X-898012Y-678428D01*
X-90292Y-678428D02*
X+77348Y-678428D01*
X+590428Y-678428D02*
X+768228Y-678428D01*
X+996828Y-678428D02*
X+1225428Y-678428D01*
X+1443868Y-678428D02*
X+1611508Y-678428D01*
X+2368428Y-678428D02*
X+2622428Y-678428D01*
X-1065652Y-673348D02*
X-898012Y-673348D01*
X-90292Y-673348D02*
X+77348Y-673348D01*
X+590428Y-673348D02*
X+773308Y-673348D01*
X+996828Y-673348D02*
X+1220348Y-673348D01*
X+1443868Y-673348D02*
X+1611508Y-673348D01*
X+2388748Y-673348D02*
X+2627508Y-673348D01*
X-1065652Y-668268D02*
X-898012Y-668268D01*
X-90292Y-668268D02*
X+77348Y-668268D01*
X+590428Y-668268D02*
X+778388Y-668268D01*
X+986668Y-668268D02*
X+1215268Y-668268D01*
X+1443868Y-668268D02*
X+1611508Y-668268D01*
X+2393828Y-668268D02*
X+2632588Y-668268D01*
X-1065652Y-663188D02*
X-898012Y-663188D01*
X-90292Y-663188D02*
X+77348Y-663188D01*
X+595508Y-663188D02*
X+783468Y-663188D01*
X+986668Y-663188D02*
X+1210188Y-663188D01*
X+1443868Y-663188D02*
X+1611508Y-663188D01*
X+2398908Y-663188D02*
X+2632588Y-663188D01*
X-1065652Y-658108D02*
X-898012Y-658108D01*
X-95372Y-658108D02*
X+67188Y-658108D01*
X+600588Y-658108D02*
X+783468Y-658108D01*
X+981588Y-658108D02*
X+1205108Y-658108D01*
X+1443868Y-658108D02*
X+1611508Y-658108D01*
X+2403988Y-658108D02*
X+2632588Y-658108D01*
X-1065652Y-653028D02*
X-898012Y-653028D01*
X-100452Y-653028D02*
X+67188Y-653028D01*
X+605668Y-653028D02*
X+783468Y-653028D01*
X+971428Y-653028D02*
X+1200028Y-653028D01*
X+1443868Y-653028D02*
X+1611508Y-653028D01*
X+2403988Y-653028D02*
X+2632588Y-653028D01*
X-1065652Y-647948D02*
X-898012Y-647948D01*
X-100452Y-647948D02*
X+67188Y-647948D01*
X+605668Y-647948D02*
X+783468Y-647948D01*
X+971428Y-647948D02*
X+1194948Y-647948D01*
X+1443868Y-647948D02*
X+1611508Y-647948D01*
X+2414148Y-647948D02*
X+2632588Y-647948D01*
X-1065652Y-642868D02*
X-898012Y-642868D01*
X-100452Y-642868D02*
X+67188Y-642868D01*
X+605668Y-642868D02*
X+783468Y-642868D01*
X+966348Y-642868D02*
X+1189868Y-642868D01*
X+1443868Y-642868D02*
X+1611508Y-642868D01*
X+2419228Y-642868D02*
X+2632588Y-642868D01*
X-1065652Y-637788D02*
X-898012Y-637788D01*
X-100452Y-637788D02*
X+67188Y-637788D01*
X+605668Y-637788D02*
X+783468Y-637788D01*
X+961268Y-637788D02*
X+1189868Y-637788D01*
X+1443868Y-637788D02*
X+1611508Y-637788D01*
X+2419228Y-637788D02*
X+2637668Y-637788D01*
X-1065652Y-632708D02*
X-898012Y-632708D01*
X-105532Y-632708D02*
X+67188Y-632708D01*
X+605668Y-632708D02*
X+783468Y-632708D01*
X+956188Y-632708D02*
X+1179708Y-632708D01*
X+1443868Y-632708D02*
X+1611508Y-632708D01*
X+2429388Y-632708D02*
X+2637668Y-632708D01*
X-1065652Y-627628D02*
X-898012Y-627628D01*
X-110612Y-627628D02*
X+67188Y-627628D01*
X+605668Y-627628D02*
X+793628Y-627628D01*
X+951108Y-627628D02*
X+1179708Y-627628D01*
X+1443868Y-627628D02*
X+1611508Y-627628D01*
X+2429388Y-627628D02*
X+2647828Y-627628D01*
X-1065652Y-622548D02*
X-898012Y-622548D01*
X-110612Y-622548D02*
X+62108Y-622548D01*
X+610748Y-622548D02*
X+793628Y-622548D01*
X+946028Y-622548D02*
X+1174628Y-622548D01*
X+1443868Y-622548D02*
X+1611508Y-622548D01*
X+2434468Y-622548D02*
X+2647828Y-622548D01*
X-1065652Y-617468D02*
X-898012Y-617468D01*
X-110612Y-617468D02*
X+57028Y-617468D01*
X+615828Y-617468D02*
X+793628Y-617468D01*
X+940948Y-617468D02*
X+1164468Y-617468D01*
X+1443868Y-617468D02*
X+1611508Y-617468D01*
X+2439548Y-617468D02*
X+2647828Y-617468D01*
X-1065652Y-612388D02*
X-898012Y-612388D01*
X-110612Y-612388D02*
X+51948Y-612388D01*
X+615828Y-612388D02*
X+793628Y-612388D01*
X+935868Y-612388D02*
X+1164468Y-612388D01*
X+1443868Y-612388D02*
X+1611508Y-612388D01*
X+2444628Y-612388D02*
X+2647828Y-612388D01*
X-1065652Y-607308D02*
X-898012Y-607308D01*
X-110612Y-607308D02*
X+51948Y-607308D01*
X+615828Y-607308D02*
X+798708Y-607308D01*
X+935868Y-607308D02*
X+1154308Y-607308D01*
X+1443868Y-607308D02*
X+1611508Y-607308D01*
X+2449708Y-607308D02*
X+2647828Y-607308D01*
X-1065652Y-602228D02*
X-898012Y-602228D01*
X-110612Y-602228D02*
X+51948Y-602228D01*
X+615828Y-602228D02*
X+803788Y-602228D01*
X+925708Y-602228D02*
X+1154308Y-602228D01*
X+1443868Y-602228D02*
X+1611508Y-602228D01*
X+2454788Y-602228D02*
X+2647828Y-602228D01*
X-1065652Y-597148D02*
X-898012Y-597148D01*
X-115692Y-597148D02*
X+51948Y-597148D01*
X+615828Y-597148D02*
X+808868Y-597148D01*
X+925708Y-597148D02*
X+1154308Y-597148D01*
X+1443868Y-597148D02*
X+1611508Y-597148D01*
X+2459868Y-597148D02*
X+2647828Y-597148D01*
X-1065652Y-592068D02*
X-898012Y-592068D01*
X-115692Y-592068D02*
X+41788Y-592068D01*
X+625988Y-592068D02*
X+808868Y-592068D01*
X+925708Y-592068D02*
X+1154308Y-592068D01*
X+1443868Y-592068D02*
X+1611508Y-592068D01*
X+2464948Y-592068D02*
X+2652908Y-592068D01*
X-1065652Y-586988D02*
X-898012Y-586988D01*
X-125852Y-586988D02*
X+41788Y-586988D01*
X+625988Y-586988D02*
X+808868Y-586988D01*
X+925708Y-586988D02*
X+1154308Y-586988D01*
X+1443868Y-586988D02*
X+1611508Y-586988D01*
X+2470028Y-586988D02*
X+2657988Y-586988D01*
X-1065652Y-581908D02*
X-898012Y-581908D01*
X-125852Y-581908D02*
X+41788Y-581908D01*
X+625988Y-581908D02*
X+808868Y-581908D01*
X+920628Y-581908D02*
X+1144148Y-581908D01*
X+1443868Y-581908D02*
X+1611508Y-581908D01*
X+2470028Y-581908D02*
X+2657988Y-581908D01*
X-1065652Y-576828D02*
X-898012Y-576828D01*
X-125852Y-576828D02*
X+41788Y-576828D01*
X+625988Y-576828D02*
X+813948Y-576828D01*
X+915548Y-576828D02*
X+1144148Y-576828D01*
X+1443868Y-576828D02*
X+1611508Y-576828D01*
X+2470028Y-576828D02*
X+2657988Y-576828D01*
X-1065652Y-571748D02*
X-898012Y-571748D01*
X-125852Y-571748D02*
X+41788Y-571748D01*
X+625988Y-571748D02*
X+819028Y-571748D01*
X+900308Y-571748D02*
X+1139068Y-571748D01*
X+1443868Y-571748D02*
X+1611508Y-571748D01*
X+2470028Y-571748D02*
X+2657988Y-571748D01*
X-1065652Y-566668D02*
X-898012Y-566668D01*
X-125852Y-566668D02*
X+41788Y-566668D01*
X+625988Y-566668D02*
X+819028Y-566668D01*
X+895228Y-566668D02*
X+1128908Y-566668D01*
X+1443868Y-566668D02*
X+1611508Y-566668D01*
X+2475108Y-566668D02*
X+2657988Y-566668D01*
X-1065652Y-561588D02*
X-898012Y-561588D01*
X-136012Y-561588D02*
X+41788Y-561588D01*
X+625988Y-561588D02*
X+819028Y-561588D01*
X+890148Y-561588D02*
X+1128908Y-561588D01*
X+1443868Y-561588D02*
X+1611508Y-561588D01*
X+2480188Y-561588D02*
X+2657988Y-561588D01*
X-1065652Y-556508D02*
X-898012Y-556508D01*
X-136012Y-556508D02*
X+36708Y-556508D01*
X+631068Y-556508D02*
X+819028Y-556508D01*
X+885068Y-556508D02*
X+1123828Y-556508D01*
X+1443868Y-556508D02*
X+1611508Y-556508D01*
X+2480188Y-556508D02*
X+2657988Y-556508D01*
X-1065652Y-551428D02*
X-898012Y-551428D01*
X-136012Y-551428D02*
X+31628Y-551428D01*
X+636148Y-551428D02*
X+819028Y-551428D01*
X+879988Y-551428D02*
X+1118748Y-551428D01*
X+1443868Y-551428D02*
X+1611508Y-551428D01*
X+2480188Y-551428D02*
X+2657988Y-551428D01*
X-1065652Y-546348D02*
X-898012Y-546348D01*
X-136012Y-546348D02*
X+26548Y-546348D01*
X+641228Y-546348D02*
X+819028Y-546348D01*
X+874908Y-546348D02*
X+1113668Y-546348D01*
X+1443868Y-546348D02*
X+1611508Y-546348D01*
X+2480188Y-546348D02*
X+2657988Y-546348D01*
X-1065652Y-541268D02*
X-898012Y-541268D01*
X-136012Y-541268D02*
X+26548Y-541268D01*
X+641228Y-541268D02*
X+819028Y-541268D01*
X+874908Y-541268D02*
X+1108588Y-541268D01*
X+1443868Y-541268D02*
X+1611508Y-541268D01*
X+2480188Y-541268D02*
X+2657988Y-541268D01*
X-1065652Y-536188D02*
X-898012Y-536188D01*
X-136012Y-536188D02*
X+26548Y-536188D01*
X+641228Y-536188D02*
X+829188Y-536188D01*
X+864748Y-536188D02*
X+1103508Y-536188D01*
X+1443868Y-536188D02*
X+1611508Y-536188D01*
X+2480188Y-536188D02*
X+2657988Y-536188D01*
X-1065652Y-531108D02*
X-898012Y-531108D01*
X-136012Y-531108D02*
X+26548Y-531108D01*
X+641228Y-531108D02*
X+829188Y-531108D01*
X+859668Y-531108D02*
X+1103508Y-531108D01*
X+1443868Y-531108D02*
X+1611508Y-531108D01*
X+2480188Y-531108D02*
X+2657988Y-531108D01*
X-1065652Y-526028D02*
X-898012Y-526028D01*
X-141092Y-526028D02*
X+21468Y-526028D01*
X+651388Y-526028D02*
X+829188Y-526028D01*
X+859668Y-526028D02*
X+1093348Y-526028D01*
X+1443868Y-526028D02*
X+1611508Y-526028D01*
X+2480188Y-526028D02*
X+2657988Y-526028D01*
X-1065652Y-520948D02*
X-898012Y-520948D01*
X-151252Y-520948D02*
X+16388Y-520948D01*
X+651388Y-520948D02*
X+829188Y-520948D01*
X+849508Y-520948D02*
X+1093348Y-520948D01*
X+1443868Y-520948D02*
X+1611508Y-520948D01*
X+2480188Y-520948D02*
X+2657988Y-520948D01*
X-1065652Y-515868D02*
X-898012Y-515868D01*
X-151252Y-515868D02*
X+16388Y-515868D01*
X+651388Y-515868D02*
X+834268Y-515868D01*
X+849508Y-515868D02*
X+1088268Y-515868D01*
X+1443868Y-515868D02*
X+1611508Y-515868D01*
X+2480188Y-515868D02*
X+2657988Y-515868D01*
X-1065652Y-510788D02*
X-898012Y-510788D01*
X-151252Y-510788D02*
X+16388Y-510788D01*
X+651388Y-510788D02*
X+839348Y-510788D01*
X+844428Y-510788D02*
X+1078108Y-510788D01*
X+1443868Y-510788D02*
X+1611508Y-510788D01*
X+2480188Y-510788D02*
X+2657988Y-510788D01*
X-1065652Y-505708D02*
X-898012Y-505708D01*
X-151252Y-505708D02*
X+16388Y-505708D01*
X+651388Y-505708D02*
X+1078108Y-505708D01*
X+1443868Y-505708D02*
X+1611508Y-505708D01*
X+2480188Y-505708D02*
X+2657988Y-505708D01*
X-1065652Y-500628D02*
X-898012Y-500628D01*
X-151252Y-500628D02*
X+16388Y-500628D01*
X+651388Y-500628D02*
X+1067948Y-500628D01*
X+1443868Y-500628D02*
X+1611508Y-500628D01*
X+2480188Y-500628D02*
X+2657988Y-500628D01*
X-1065652Y-495548D02*
X-898012Y-495548D01*
X-161412Y-495548D02*
X+16388Y-495548D01*
X+651388Y-495548D02*
X+1067948Y-495548D01*
X+1443868Y-495548D02*
X+1611508Y-495548D01*
X+2480188Y-495548D02*
X+2657988Y-495548D01*
X-1065652Y-490468D02*
X-898012Y-490468D01*
X-161412Y-490468D02*
X+16388Y-490468D01*
X+656468Y-490468D02*
X+1067948Y-490468D01*
X+1443868Y-490468D02*
X+1611508Y-490468D01*
X+2480188Y-490468D02*
X+2657988Y-490468D01*
X-1065652Y-485388D02*
X-898012Y-485388D01*
X-161412Y-485388D02*
X+6228Y-485388D01*
X+661548Y-485388D02*
X+1067948Y-485388D01*
X+1443868Y-485388D02*
X+1611508Y-485388D01*
X+2480188Y-485388D02*
X+2657988Y-485388D01*
X-1065652Y-480308D02*
X-898012Y-480308D01*
X-161412Y-480308D02*
X+6228Y-480308D01*
X+666628Y-480308D02*
X+1067948Y-480308D01*
X+1443868Y-480308D02*
X+1611508Y-480308D01*
X+2480188Y-480308D02*
X+2657988Y-480308D01*
X-1065652Y-475228D02*
X-898012Y-475228D01*
X-161412Y-475228D02*
X+6228Y-475228D01*
X+666628Y-475228D02*
X+1057788Y-475228D01*
X+1443868Y-475228D02*
X+1611508Y-475228D01*
X+2480188Y-475228D02*
X+2657988Y-475228D01*
X-1065652Y-470148D02*
X-898012Y-470148D01*
X-161412Y-470148D02*
X+6228Y-470148D01*
X+666628Y-470148D02*
X+1052708Y-470148D01*
X+1443868Y-470148D02*
X+1611508Y-470148D01*
X+2480188Y-470148D02*
X+2657988Y-470148D01*
X-1065652Y-465068D02*
X-898012Y-465068D01*
X-161412Y-465068D02*
X+1148Y-465068D01*
X+666628Y-465068D02*
X+1052708Y-465068D01*
X+1443868Y-465068D02*
X+1611508Y-465068D01*
X+2480188Y-465068D02*
X+2657988Y-465068D01*
X-1065652Y-459988D02*
X-898012Y-459988D01*
X-166492Y-459988D02*
X-3932Y-459988D01*
X+671708Y-459988D02*
X+1042548Y-459988D01*
X+1443868Y-459988D02*
X+1611508Y-459988D01*
X+2480188Y-459988D02*
X+2657988Y-459988D01*
X-1065652Y-454908D02*
X-898012Y-454908D01*
X-171572Y-454908D02*
X-9012Y-454908D01*
X+676788Y-454908D02*
X+1042548Y-454908D01*
X+1443868Y-454908D02*
X+1611508Y-454908D01*
X+2480188Y-454908D02*
X+2657988Y-454908D01*
X-1065652Y-449828D02*
X-898012Y-449828D01*
X-176652Y-449828D02*
X-9012Y-449828D01*
X+676788Y-449828D02*
X+1037468Y-449828D01*
X+1443868Y-449828D02*
X+1611508Y-449828D01*
X+2480188Y-449828D02*
X+2657988Y-449828D01*
X-1065652Y-444748D02*
X-898012Y-444748D01*
X-176652Y-444748D02*
X-9012Y-444748D01*
X+676788Y-444748D02*
X+1032388Y-444748D01*
X+1443868Y-444748D02*
X+1611508Y-444748D01*
X+2480188Y-444748D02*
X+2657988Y-444748D01*
X-1065652Y-439668D02*
X-898012Y-439668D01*
X-176652Y-439668D02*
X-9012Y-439668D01*
X+676788Y-439668D02*
X+1027308Y-439668D01*
X+1443868Y-439668D02*
X+1611508Y-439668D01*
X+1753748Y-439668D02*
X+1941708Y-439668D01*
X+2480188Y-439668D02*
X+2657988Y-439668D01*
X-1065652Y-434588D02*
X-898012Y-434588D01*
X-176652Y-434588D02*
X-9012Y-434588D01*
X+676788Y-434588D02*
X+1022228Y-434588D01*
X+1443868Y-434588D02*
X+1611508Y-434588D01*
X+1753748Y-434588D02*
X+1941708Y-434588D01*
X+2480188Y-434588D02*
X+2657988Y-434588D01*
X-1065652Y-429508D02*
X-898012Y-429508D01*
X-186812Y-429508D02*
X-9012Y-429508D01*
X+676788Y-429508D02*
X+1017148Y-429508D01*
X+1443868Y-429508D02*
X+1611508Y-429508D01*
X+1753748Y-429508D02*
X+1941708Y-429508D01*
X+2480188Y-429508D02*
X+2657988Y-429508D01*
X-1065652Y-424428D02*
X-898012Y-424428D01*
X-186812Y-424428D02*
X-9012Y-424428D01*
X+676788Y-424428D02*
X+1017148Y-424428D01*
X+1443868Y-424428D02*
X+1611508Y-424428D01*
X+1753748Y-424428D02*
X+1941708Y-424428D01*
X+2480188Y-424428D02*
X+2657988Y-424428D01*
X-1065652Y-419348D02*
X-898012Y-419348D01*
X+1443868Y-419348D02*
X+1611508Y-419348D01*
X+1753748Y-419348D02*
X+1941708Y-419348D01*
X+2480188Y-419348D02*
X+2657988Y-419348D01*
X-1065652Y-414268D02*
X-898012Y-414268D01*
X+1443868Y-414268D02*
X+1611508Y-414268D01*
X+1753748Y-414268D02*
X+1941708Y-414268D01*
X+2480188Y-414268D02*
X+2657988Y-414268D01*
X-1065652Y-409188D02*
X-898012Y-409188D01*
X+1443868Y-409188D02*
X+1611508Y-409188D01*
X+1758828Y-409188D02*
X+1946788Y-409188D01*
X+2480188Y-409188D02*
X+2657988Y-409188D01*
X-1065652Y-404108D02*
X-898012Y-404108D01*
X+1443868Y-404108D02*
X+1611508Y-404108D01*
X+1763908Y-404108D02*
X+1951868Y-404108D01*
X+2480188Y-404108D02*
X+2657988Y-404108D01*
X-1065652Y-399028D02*
X-898012Y-399028D01*
X+1443868Y-399028D02*
X+1611508Y-399028D01*
X+1763908Y-399028D02*
X+1956948Y-399028D01*
X+2480188Y-399028D02*
X+2657988Y-399028D01*
X-1065652Y-393948D02*
X-898012Y-393948D01*
X+1443868Y-393948D02*
X+1611508Y-393948D01*
X+1763908Y-393948D02*
X+1956948Y-393948D01*
X+2480188Y-393948D02*
X+2652908Y-393948D01*
X-1065652Y-388868D02*
X-898012Y-388868D01*
X+1443868Y-388868D02*
X+1611508Y-388868D01*
X+1763908Y-388868D02*
X+1956948Y-388868D01*
X+2470028Y-388868D02*
X+2647828Y-388868D01*
X-1065652Y-383788D02*
X-898012Y-383788D01*
X+1443868Y-383788D02*
X+1611508Y-383788D01*
X+1763908Y-383788D02*
X+1956948Y-383788D01*
X+2470028Y-383788D02*
X+2647828Y-383788D01*
X-1065652Y-378708D02*
X-898012Y-378708D01*
X+1443868Y-378708D02*
X+1611508Y-378708D01*
X+1763908Y-378708D02*
X+1962028Y-378708D01*
X+2470028Y-378708D02*
X+2647828Y-378708D01*
X-1065652Y-373628D02*
X-898012Y-373628D01*
X+1443868Y-373628D02*
X+1611508Y-373628D01*
X+1763908Y-373628D02*
X+1967108Y-373628D01*
X+2470028Y-373628D02*
X+2647828Y-373628D01*
X-1065652Y-368548D02*
X-898012Y-368548D01*
X+1443868Y-368548D02*
X+1611508Y-368548D01*
X+1768988Y-368548D02*
X+1972188Y-368548D01*
X+2464948Y-368548D02*
X+2647828Y-368548D01*
X-1065652Y-363468D02*
X-898012Y-363468D01*
X+1443868Y-363468D02*
X+1611508Y-363468D01*
X+1774068Y-363468D02*
X+1977268Y-363468D01*
X+2459868Y-363468D02*
X+2647828Y-363468D01*
X-1065652Y-358388D02*
X-898012Y-358388D01*
X+1443868Y-358388D02*
X+1611508Y-358388D01*
X+1774068Y-358388D02*
X+1982348Y-358388D01*
X+2454788Y-358388D02*
X+2647828Y-358388D01*
X-1065652Y-353308D02*
X-898012Y-353308D01*
X+1443868Y-353308D02*
X+1611508Y-353308D01*
X+1774068Y-353308D02*
X+1982348Y-353308D01*
X+2454788Y-353308D02*
X+2637668Y-353308D01*
X-1065652Y-348228D02*
X-898012Y-348228D01*
X+1443868Y-348228D02*
X+1611508Y-348228D01*
X+1774068Y-348228D02*
X+1982348Y-348228D01*
X+2454788Y-348228D02*
X+2637668Y-348228D01*
X-1065652Y-343148D02*
X-898012Y-343148D01*
X+1443868Y-343148D02*
X+1611508Y-343148D01*
X+1774068Y-343148D02*
X+1982348Y-343148D01*
X+2454788Y-343148D02*
X+2632588Y-343148D01*
X-1065652Y-338068D02*
X-898012Y-338068D01*
X+1443868Y-338068D02*
X+1611508Y-338068D01*
X+1774068Y-338068D02*
X+1987428Y-338068D01*
X+2449708Y-338068D02*
X+2632588Y-338068D01*
X-1065652Y-332988D02*
X-898012Y-332988D01*
X+1443868Y-332988D02*
X+1611508Y-332988D01*
X+1779148Y-332988D02*
X+1992508Y-332988D01*
X+2444628Y-332988D02*
X+2632588Y-332988D01*
X-1065652Y-327908D02*
X-898012Y-327908D01*
X+1443868Y-327908D02*
X+1611508Y-327908D01*
X+1784228Y-327908D02*
X+1992508Y-327908D01*
X+2439548Y-327908D02*
X+2632588Y-327908D01*
X-1065652Y-322828D02*
X-898012Y-322828D01*
X+1443868Y-322828D02*
X+1611508Y-322828D01*
X+1789308Y-322828D02*
X+2002668Y-322828D01*
X+2434468Y-322828D02*
X+2632588Y-322828D01*
X-1065652Y-317748D02*
X-898012Y-317748D01*
X+1443868Y-317748D02*
X+1611508Y-317748D01*
X+1789308Y-317748D02*
X+2007748Y-317748D01*
X+2429388Y-317748D02*
X+2632588Y-317748D01*
X-1065652Y-312668D02*
X-898012Y-312668D01*
X+1443868Y-312668D02*
X+1611508Y-312668D01*
X+1789308Y-312668D02*
X+2007748Y-312668D01*
X+2429388Y-312668D02*
X+2622428Y-312668D01*
X-1065652Y-307588D02*
X-898012Y-307588D01*
X+1443868Y-307588D02*
X+1611508Y-307588D01*
X+1789308Y-307588D02*
X+2017908Y-307588D01*
X+2419228Y-307588D02*
X+2622428Y-307588D01*
X-1065652Y-302508D02*
X-898012Y-302508D01*
X+1443868Y-302508D02*
X+1611508Y-302508D01*
X+1794388Y-302508D02*
X+2017908Y-302508D01*
X+2419228Y-302508D02*
X+2617348Y-302508D01*
X-1065652Y-297428D02*
X-898012Y-297428D01*
X+1443868Y-297428D02*
X+1611508Y-297428D01*
X+1799468Y-297428D02*
X+2022988Y-297428D01*
X+2414148Y-297428D02*
X+2612268Y-297428D01*
X-1065652Y-292348D02*
X-898012Y-292348D01*
X+1443868Y-292348D02*
X+1611508Y-292348D01*
X+1804548Y-292348D02*
X+2043308Y-292348D01*
X+2403988Y-292348D02*
X+2612268Y-292348D01*
X-1065652Y-287268D02*
X-898012Y-287268D01*
X+1443868Y-287268D02*
X+1611508Y-287268D01*
X+1809628Y-287268D02*
X+2043308Y-287268D01*
X+2403988Y-287268D02*
X+2612268Y-287268D01*
X-1065652Y-282188D02*
X-898012Y-282188D01*
X+1443868Y-282188D02*
X+1611508Y-282188D01*
X+1814708Y-282188D02*
X+2053468Y-282188D01*
X+2393828Y-282188D02*
X+2612268Y-282188D01*
X-1065652Y-277108D02*
X-898012Y-277108D01*
X+1443868Y-277108D02*
X+1611508Y-277108D01*
X+1814708Y-277108D02*
X+2053468Y-277108D01*
X+2393828Y-277108D02*
X+2607188Y-277108D01*
X-1065652Y-272028D02*
X-898012Y-272028D01*
X+1443868Y-272028D02*
X+1611508Y-272028D01*
X+1814708Y-272028D02*
X+2058548Y-272028D01*
X+2388748Y-272028D02*
X+2602108Y-272028D01*
X-1065652Y-266948D02*
X-898012Y-266948D01*
X+1443868Y-266948D02*
X+1611508Y-266948D01*
X+1814708Y-266948D02*
X+2078868Y-266948D01*
X+2368428Y-266948D02*
X+2597028Y-266948D01*
X-1065652Y-261868D02*
X-898012Y-261868D01*
X+1443868Y-261868D02*
X+1611508Y-261868D01*
X+1819788Y-261868D02*
X+2078868Y-261868D01*
X+2368428Y-261868D02*
X+2591948Y-261868D01*
X-1065652Y-256788D02*
X-898012Y-256788D01*
X+1443868Y-256788D02*
X+1611508Y-256788D01*
X+1824868Y-256788D02*
X+2089028Y-256788D01*
X+2358268Y-256788D02*
X+2586868Y-256788D01*
X-1065652Y-251708D02*
X-898012Y-251708D01*
X+1443868Y-251708D02*
X+1611508Y-251708D01*
X+1824868Y-251708D02*
X+2104268Y-251708D01*
X+2332868Y-251708D02*
X+2586868Y-251708D01*
X-1065652Y-246628D02*
X-892932Y-246628D01*
X+1443868Y-246628D02*
X+1611508Y-246628D01*
X+1835028Y-246628D02*
X+2109348Y-246628D01*
X+2327788Y-246628D02*
X+2586868Y-246628D01*
X-1482212Y-241548D02*
X-1477132Y-241548D01*
X-1446652Y-241548D02*
X-517012Y-241548D01*
X+1443868Y-241548D02*
X+1611508Y-241548D01*
X+1840108Y-241548D02*
X+2190628Y-241548D01*
X+2271908Y-241548D02*
X+2586868Y-241548D01*
X-1487292Y-236468D02*
X-1477132Y-236468D01*
X-1446652Y-236468D02*
X-511932Y-236468D01*
X+1443868Y-236468D02*
X+1611508Y-236468D01*
X+1840108Y-236468D02*
X+2190628Y-236468D01*
X+2271908Y-236468D02*
X+2581788Y-236468D01*
X-1487292Y-231388D02*
X-1477132Y-231388D01*
X-1446652Y-231388D02*
X-511932Y-231388D01*
X+1443868Y-231388D02*
X+1611508Y-231388D01*
X+1850268Y-231388D02*
X+2195708Y-231388D01*
X+2266828Y-231388D02*
X+2576708Y-231388D01*
X-1497452Y-226308D02*
X-1477132Y-226308D01*
X-1446652Y-226308D02*
X-511932Y-226308D01*
X+1443868Y-226308D02*
X+1611508Y-226308D01*
X+1850268Y-226308D02*
X+2571628Y-226308D01*
X-1497452Y-221228D02*
X-1477132Y-221228D01*
X-1446652Y-221228D02*
X-511932Y-221228D01*
X+1443868Y-221228D02*
X+1611508Y-221228D01*
X+1860428Y-221228D02*
X+2566548Y-221228D01*
X-1497452Y-216148D02*
X-1477132Y-216148D01*
X-1446652Y-216148D02*
X-511932Y-216148D01*
X+1443868Y-216148D02*
X+1611508Y-216148D01*
X+1860428Y-216148D02*
X+2561468Y-216148D01*
X-1497452Y-211068D02*
X-1477132Y-211068D01*
X-1446652Y-211068D02*
X-511932Y-211068D01*
X+1443868Y-211068D02*
X+1611508Y-211068D01*
X+1865508Y-211068D02*
X+2556388Y-211068D01*
X-1502532Y-205988D02*
X-1477132Y-205988D01*
X-1446652Y-205988D02*
X-511932Y-205988D01*
X+1443868Y-205988D02*
X+1611508Y-205988D01*
X+1870588Y-205988D02*
X+2551308Y-205988D01*
X-1507612Y-200908D02*
X-1477132Y-200908D01*
X-1446652Y-200908D02*
X-511932Y-200908D01*
X+1443868Y-200908D02*
X+1611508Y-200908D01*
X+1875668Y-200908D02*
X+2546228Y-200908D01*
X-1507612Y-195828D02*
X-1477132Y-195828D01*
X-1446652Y-195828D02*
X-511932Y-195828D01*
X+1443868Y-195828D02*
X+1611508Y-195828D01*
X+1880748Y-195828D02*
X+2530988Y-195828D01*
X-1517772Y-190748D02*
X-1477132Y-190748D01*
X-1446652Y-190748D02*
X-511932Y-190748D01*
X+1443868Y-190748D02*
X+1611508Y-190748D01*
X+1885828Y-190748D02*
X+2525908Y-190748D01*
X-1522852Y-185668D02*
X-1477132Y-185668D01*
X-1446652Y-185668D02*
X-511932Y-185668D01*
X+1443868Y-185668D02*
X+1611508Y-185668D01*
X+1890908Y-185668D02*
X+2520828Y-185668D01*
X-1522852Y-180588D02*
X-1477132Y-180588D01*
X-1446652Y-180588D02*
X-511932Y-180588D01*
X+1443868Y-180588D02*
X+1611508Y-180588D01*
X+1895988Y-180588D02*
X+2515748Y-180588D01*
X-1522852Y-175508D02*
X-1477132Y-175508D01*
X-1446652Y-175508D02*
X-511932Y-175508D01*
X+1443868Y-175508D02*
X+1611508Y-175508D01*
X+1901068Y-175508D02*
X+2510668Y-175508D01*
X-1522852Y-170428D02*
X-1482212Y-170428D01*
X-1446652Y-170428D02*
X-511932Y-170428D01*
X+1443868Y-170428D02*
X+1611508Y-170428D01*
X+1901068Y-170428D02*
X+2510668Y-170428D01*
X-1527932Y-165348D02*
X-1487292Y-165348D01*
X-1446652Y-165348D02*
X-511932Y-165348D01*
X+1443868Y-165348D02*
X+1611508Y-165348D01*
X+1921388Y-165348D02*
X+2500508Y-165348D01*
X-1533012Y-160268D02*
X-1492372Y-160268D01*
X-1446652Y-160268D02*
X-511932Y-160268D01*
X+1443868Y-160268D02*
X+1611508Y-160268D01*
X+1926468Y-160268D02*
X+2500508Y-160268D01*
X-1533012Y-155188D02*
X-1492372Y-155188D01*
X-1446652Y-155188D02*
X-511932Y-155188D01*
X+1443868Y-155188D02*
X+1611508Y-155188D01*
X+1931548Y-155188D02*
X+2480188Y-155188D01*
X-1543172Y-150108D02*
X-1492372Y-150108D01*
X-1446652Y-150108D02*
X-511932Y-150108D01*
X+1443868Y-150108D02*
X+1611508Y-150108D01*
X+1936628Y-150108D02*
X+2475108Y-150108D01*
X-1548252Y-145028D02*
X-1492372Y-145028D01*
X-1446652Y-145028D02*
X-511932Y-145028D01*
X+1443868Y-145028D02*
X+1611508Y-145028D01*
X+1936628Y-145028D02*
X+2475108Y-145028D01*
X-1548252Y-139948D02*
X-1492372Y-139948D01*
X-1446652Y-139948D02*
X-511932Y-139948D01*
X+1443868Y-139948D02*
X+1611508Y-139948D01*
X+1956948Y-139948D02*
X+2454788Y-139948D01*
X-1558412Y-134868D02*
X-1492372Y-134868D01*
X-1446652Y-134868D02*
X-511932Y-134868D01*
X+1443868Y-134868D02*
X+1611508Y-134868D01*
X+1962028Y-134868D02*
X+2449708Y-134868D01*
X-1558412Y-129788D02*
X-1492372Y-129788D01*
X-1446652Y-129788D02*
X-511932Y-129788D01*
X+1443868Y-129788D02*
X+1611508Y-129788D01*
X+1977268Y-129788D02*
X+2434468Y-129788D01*
X-1563492Y-124708D02*
X-1492372Y-124708D01*
X-1446652Y-124708D02*
X-511932Y-124708D01*
X+1443868Y-124708D02*
X+1611508Y-124708D01*
X+1987428Y-124708D02*
X+2424308Y-124708D01*
X-1568572Y-119628D02*
X-1492372Y-119628D01*
X-1446652Y-119628D02*
X-511932Y-119628D01*
X+1443868Y-119628D02*
X+1611508Y-119628D01*
X+1987428Y-119628D02*
X+2424308Y-119628D01*
X-1568572Y-114548D02*
X-1492372Y-114548D01*
X-1446652Y-114548D02*
X-511932Y-114548D01*
X+1443868Y-114548D02*
X+1611508Y-114548D01*
X+2007748Y-114548D02*
X+2393828Y-114548D01*
X-1568572Y-109468D02*
X-1492372Y-109468D01*
X-1446652Y-109468D02*
X-511932Y-109468D01*
X+1443868Y-109468D02*
X+1611508Y-109468D01*
X+2012828Y-109468D02*
X+2388748Y-109468D01*
X-1568572Y-104388D02*
X-1492372Y-104388D01*
X-1446652Y-104388D02*
X-517012Y-104388D01*
X+1443868Y-104388D02*
X+1611508Y-104388D01*
X+2012828Y-104388D02*
X+2383668Y-104388D01*
X-1573652Y-99308D02*
X-1502532Y-99308D01*
X-979292Y-99308D02*
X-633852Y-99308D01*
X+1443868Y-99308D02*
X+1611508Y-99308D01*
X+2048388Y-99308D02*
X+2363348Y-99308D01*
X-1583812Y-94228D02*
X-1502532Y-94228D01*
X-979292Y-94228D02*
X-638932Y-94228D01*
X+1443868Y-94228D02*
X+1611508Y-94228D01*
X+2048388Y-94228D02*
X+2363348Y-94228D01*
X-1583812Y-89148D02*
X-1502532Y-89148D01*
X+1443868Y-89148D02*
X+1611508Y-89148D01*
X+2104268Y-89148D02*
X+2282068Y-89148D01*
X-1588892Y-84068D02*
X-1502532Y-84068D01*
X+1443868Y-84068D02*
X+1611508Y-84068D01*
X+2109348Y-84068D02*
X+2276988Y-84068D01*
X-1593972Y-78988D02*
X-1502532Y-78988D01*
X+1443868Y-78988D02*
X+1611508Y-78988D01*
X+2109348Y-78988D02*
X+2276988Y-78988D01*
X-1599052Y-73908D02*
X-1502532Y-73908D01*
X+1443868Y-73908D02*
X+1611508Y-73908D01*
X-1619372Y-68828D02*
X-1502532Y-68828D01*
X+1443868Y-68828D02*
X+1611508Y-68828D01*
X-1619372Y-63748D02*
X-1507612Y-63748D01*
X+1443868Y-63748D02*
X+1611508Y-63748D01*
X-1624452Y-58668D02*
X-1512692Y-58668D01*
X+1443868Y-58668D02*
X+1611508Y-58668D01*
X-1629532Y-53588D02*
X-1512692Y-53588D01*
X+1443868Y-53588D02*
X+1611508Y-53588D01*
X-1634612Y-48508D02*
X-1512692Y-48508D01*
X+1443868Y-48508D02*
X+1611508Y-48508D01*
X-1639692Y-43428D02*
X-1512692Y-43428D01*
X+1443868Y-43428D02*
X+1611508Y-43428D01*
X-1644772Y-38348D02*
X-1512692Y-38348D01*
X+1443868Y-38348D02*
X+1611508Y-38348D01*
X-1649852Y-33268D02*
X-1512692Y-33268D01*
X+1443868Y-33268D02*
X+1611508Y-33268D01*
X-1654932Y-28188D02*
X-1512692Y-28188D01*
X+1443868Y-28188D02*
X+1611508Y-28188D01*
X-1660012Y-23108D02*
X-1517772Y-23108D01*
X+1443868Y-23108D02*
X+1611508Y-23108D01*
X-1665092Y-18028D02*
X-1527932Y-18028D01*
X+1443868Y-18028D02*
X+1611508Y-18028D01*
X-1680332Y-12948D02*
X-1527932Y-12948D01*
X+1443868Y-12948D02*
X+1611508Y-12948D01*
X-1685412Y-7868D02*
X-1527932Y-7868D01*
X+1448948Y-7868D02*
X+1611508Y-7868D01*
X-1690492Y-2788D02*
X-1527932Y-2788D01*
X+1454028Y-2788D02*
X+1611508Y-2788D01*
X-1695572Y+2292D02*
X-1527932Y+2292D01*
X+1459108Y+2292D02*
X+1606428Y+2292D01*
X-1695572Y+7372D02*
X-1527932Y+7372D01*
X-1715892Y+12452D02*
X-1527932Y+12452D01*
X-1720972Y+17532D02*
X-1533012Y+17532D01*
X-1726052Y+22612D02*
X-1538092Y+22612D01*
X-1731132Y+27692D02*
X-1538092Y+27692D01*
X-1736212Y+32772D02*
X-1538092Y+32772D01*
X-1756532Y+37852D02*
X-1538092Y+37852D01*
X-1756532Y+42932D02*
X-1538092Y+42932D01*
X-1761612Y+48012D02*
X-1538092Y+48012D01*
X-1781932Y+53092D02*
X-1538092Y+53092D01*
X-1781932Y+58172D02*
X-1548252Y+58172D01*
X-1802252Y+63252D02*
X-1553332Y+63252D01*
X-1807332Y+68332D02*
X-1553332Y+68332D01*
X-1807332Y+73412D02*
X-1553332Y+73412D01*
X-1842892Y+78492D02*
X-1553332Y+78492D01*
X-1842892Y+83572D02*
X-1558412Y+83572D01*
X-1847972Y+88652D02*
X-1563492Y+88652D01*
X-1868292Y+93732D02*
X-1563492Y+93732D01*
X-1868292Y+98812D02*
X-1563492Y+98812D01*
X-1888612Y+103892D02*
X-1563492Y+103892D01*
X-1893692Y+108972D02*
X-1568572Y+108972D01*
X-1893692Y+114052D02*
X-1573652Y+114052D01*
X-1914012Y+119132D02*
X-1578732Y+119132D01*
X-1919092Y+124212D02*
X-1578732Y+124212D01*
X-1924172Y+129292D02*
X-1578732Y+129292D01*
X-1954652Y+134372D02*
X-1578732Y+134372D01*
X-1954652Y+139452D02*
X-1578732Y+139452D01*
X-1974972Y+144532D02*
X-1578732Y+144532D01*
X-1980052Y+149612D02*
X-1578732Y+149612D01*
X-1985132Y+154692D02*
X-1588892Y+154692D01*
X-2015612Y+159772D02*
X-1588892Y+159772D01*
X-2015612Y+164852D02*
X-1588892Y+164852D01*
X-2035932Y+169932D02*
X-1588892Y+169932D01*
X-2041012Y+175012D02*
X-1588892Y+175012D01*
X-1309492Y+175012D02*
X-1304412Y+175012D01*
X-2041012Y+180092D02*
X-1599052Y+180092D01*
X-1309492Y+180092D02*
X-1304412Y+180092D01*
X-2061332Y+185172D02*
X-1599052Y+185172D01*
X-1309492Y+185172D02*
X-1304412Y+185172D01*
X-2066412Y+190252D02*
X-1599052Y+190252D01*
X-1309492Y+190252D02*
X-1304412Y+190252D01*
X-2071492Y+195332D02*
X-1599052Y+195332D01*
X-1309492Y+195332D02*
X-1299332Y+195332D01*
X-2086732Y+200412D02*
X-1604132Y+200412D01*
X-1309492Y+200412D02*
X-1294252Y+200412D01*
X-2091812Y+205492D02*
X-1609212Y+205492D01*
X-1309492Y+205492D02*
X-1289172Y+205492D01*
X-2112132Y+210572D02*
X-1614292Y+210572D01*
X-1309492Y+210572D02*
X-1284092Y+210572D01*
X-2112132Y+215652D02*
X-1614292Y+215652D01*
X-1309492Y+215652D02*
X-1279012Y+215652D01*
X-2117212Y+220732D02*
X-1614292Y+220732D01*
X-1299332Y+220732D02*
X-1273932Y+220732D01*
X-2137532Y+225812D02*
X-1614292Y+225812D01*
X-1472052Y+225812D02*
X-1466972Y+225812D01*
X-1299332Y+225812D02*
X-1268852Y+225812D01*
X-384932Y+225812D02*
X-379852Y+225812D01*
X-2137532Y+230892D02*
X-1619372Y+230892D01*
X-1472052Y+230892D02*
X-1466972Y+230892D01*
X-1299332Y+230892D02*
X-1263772Y+230892D01*
X-2147692Y+235972D02*
X-1624452Y+235972D01*
X-1482212Y+235972D02*
X-1466972Y+235972D01*
X-1299332Y+235972D02*
X-1258692Y+235972D01*
X-2162932Y+241052D02*
X-1629532Y+241052D01*
X-1482212Y+241052D02*
X-1466972Y+241052D01*
X-1299332Y+241052D02*
X-1253612Y+241052D01*
X-2168012Y+246132D02*
X-1634612Y+246132D01*
X-1487292Y+246132D02*
X-1466972Y+246132D01*
X-1299332Y+246132D02*
X-1253612Y+246132D01*
X-2731892Y+251212D02*
X-2726812Y+251212D01*
X-2173092Y+251212D02*
X-1639692Y+251212D01*
X-1492372Y+251212D02*
X-1466972Y+251212D01*
X-1299332Y+251212D02*
X-1253612Y+251212D01*
X-2731892Y+256292D02*
X-2726812Y+256292D01*
X-2178172Y+256292D02*
X-1639692Y+256292D01*
X-1497452Y+256292D02*
X-1466972Y+256292D01*
X-1299332Y+256292D02*
X-1253612Y+256292D01*
X-2731892Y+261372D02*
X-2726812Y+261372D01*
X-2183252Y+261372D02*
X-1639692Y+261372D01*
X-1497452Y+261372D02*
X-1466972Y+261372D01*
X-1299332Y+261372D02*
X-1248532Y+261372D01*
X-2731892Y+266452D02*
X-2726812Y+266452D01*
X-2198492Y+266452D02*
X-1639692Y+266452D01*
X-1497452Y+266452D02*
X-1466972Y+266452D01*
X-1299332Y+266452D02*
X-1243452Y+266452D01*
X-359532Y+266452D02*
X-354452Y+266452D01*
X-2203572Y+271532D02*
X-1644772Y+271532D01*
X-1497452Y+271532D02*
X-1461892Y+271532D01*
X-1299332Y+271532D02*
X-1243452Y+271532D01*
X-2223892Y+276612D02*
X-1649852Y+276612D01*
X-1507612Y+276612D02*
X-1456812Y+276612D01*
X-1299332Y+276612D02*
X-1233292Y+276612D01*
X-2742052Y+281692D02*
X-2736972Y+281692D01*
X-2223892Y+281692D02*
X-1649852Y+281692D01*
X-1507612Y+281692D02*
X-1451732Y+281692D01*
X-1299332Y+281692D02*
X-1228212Y+281692D01*
X-2228972Y+286772D02*
X-1649852Y+286772D01*
X-1507612Y+286772D02*
X-1451732Y+286772D01*
X-1289172Y+286772D02*
X-1228212Y+286772D01*
X-2757292Y+291852D02*
X-2752212Y+291852D01*
X-2234052Y+291852D02*
X-1649852Y+291852D01*
X-1507612Y+291852D02*
X-1451732Y+291852D01*
X-1284092Y+291852D02*
X-1218052Y+291852D01*
X-334132Y+291852D02*
X-329052Y+291852D01*
X-2239132Y+296932D02*
X-1654932Y+296932D01*
X-1507612Y+296932D02*
X-1451732Y+296932D01*
X-1284092Y+296932D02*
X-1218052Y+296932D01*
X-334132Y+296932D02*
X-329052Y+296932D01*
X-2244212Y+302012D02*
X-1660012Y+302012D01*
X-1517772Y+302012D02*
X-1451732Y+302012D01*
X-1284092Y+302012D02*
X-1212972Y+302012D01*
X-334132Y+302012D02*
X-329052Y+302012D01*
X-2767452Y+307092D02*
X-2762372Y+307092D01*
X-2264532Y+307092D02*
X-1665092Y+307092D01*
X-1522852Y+307092D02*
X-1451732Y+307092D01*
X-1284092Y+307092D02*
X-1192652Y+307092D01*
X-334132Y+307092D02*
X-329052Y+307092D01*
X-2767452Y+312172D02*
X-2762372Y+312172D01*
X-2264532Y+312172D02*
X-1665092Y+312172D01*
X-1522852Y+312172D02*
X-1451732Y+312172D01*
X-1284092Y+312172D02*
X-1192652Y+312172D01*
X-2767452Y+317252D02*
X-2762372Y+317252D01*
X-2274692Y+317252D02*
X-1665092Y+317252D01*
X-1522852Y+317252D02*
X-1451732Y+317252D01*
X-1284092Y+317252D02*
X-1182492Y+317252D01*
X-2767452Y+322332D02*
X-2762372Y+322332D01*
X-2274692Y+322332D02*
X-1665092Y+322332D01*
X-1522852Y+322332D02*
X-1451732Y+322332D01*
X-1284092Y+322332D02*
X-1182492Y+322332D01*
X-2279772Y+327412D02*
X-1675252Y+327412D01*
X-1522852Y+327412D02*
X-1451732Y+327412D01*
X-1284092Y+327412D02*
X-1177412Y+327412D01*
X-2782692Y+332492D02*
X-2772532Y+332492D01*
X-2300092Y+332492D02*
X-1675252Y+332492D01*
X-1533012Y+332492D02*
X-1451732Y+332492D01*
X-1284092Y+332492D02*
X-1167252Y+332492D01*
X-308732Y+332492D02*
X-303652Y+332492D01*
X-2300092Y+337572D02*
X-1680332Y+337572D01*
X-1533012Y+337572D02*
X-1451732Y+337572D01*
X-1279012Y+337572D02*
X-1167252Y+337572D01*
X-308732Y+337572D02*
X-303652Y+337572D01*
X-2305172Y+342652D02*
X-1685412Y+342652D01*
X-1533012Y+342652D02*
X-1451732Y+342652D01*
X-1273932Y+342652D02*
X-1162172Y+342652D01*
X-308732Y+342652D02*
X-293492Y+342652D01*
X-2792852Y+347732D02*
X-2787772Y+347732D01*
X-2310252Y+347732D02*
X-1685412Y+347732D01*
X-1533012Y+347732D02*
X-1451732Y+347732D01*
X-1273932Y+347732D02*
X-1157092Y+347732D01*
X-308732Y+347732D02*
X-293492Y+347732D01*
X-2792852Y+352812D02*
X-2787772Y+352812D01*
X-2315332Y+352812D02*
X-1685412Y+352812D01*
X-1538092Y+352812D02*
X-1451732Y+352812D01*
X-1273932Y+352812D02*
X-1152012Y+352812D01*
X-303652Y+352812D02*
X-293492Y+352812D01*
X-2792852Y+357892D02*
X-2787772Y+357892D01*
X-2320412Y+357892D02*
X-1685412Y+357892D01*
X-1543172Y+357892D02*
X-1451732Y+357892D01*
X-1273932Y+357892D02*
X-1131692Y+357892D01*
X-298572Y+357892D02*
X-293492Y+357892D01*
X-2325492Y+362972D02*
X-1690492Y+362972D01*
X-1548252Y+362972D02*
X-1451732Y+362972D01*
X-1268852Y+362972D02*
X-1131692Y+362972D01*
X-2330572Y+368052D02*
X-1700652Y+368052D01*
X-1553332Y+368052D02*
X-1451732Y+368052D01*
X-1263772Y+368052D02*
X-1126612Y+368052D01*
X-2803012Y+373132D02*
X-2797932Y+373132D01*
X-2335652Y+373132D02*
X-1700652Y+373132D01*
X-1558412Y+373132D02*
X-1451732Y+373132D01*
X-1263772Y+373132D02*
X-1106292Y+373132D01*
X-288412Y+373132D02*
X-278252Y+373132D01*
X-2808092Y+378212D02*
X-2797932Y+378212D01*
X-2335652Y+378212D02*
X-1705732Y+378212D01*
X-1558412Y+378212D02*
X-1451732Y+378212D01*
X-1263772Y+378212D02*
X-1106292Y+378212D01*
X-288412Y+378212D02*
X-278252Y+378212D01*
X-2813172Y+383292D02*
X-2797932Y+383292D01*
X-2345812Y+383292D02*
X-1710812Y+383292D01*
X-1558412Y+383292D02*
X-1451732Y+383292D01*
X-1263772Y+383292D02*
X-1085972Y+383292D01*
X-288412Y+383292D02*
X-278252Y+383292D01*
X-2818252Y+388372D02*
X-2803012Y+388372D01*
X-2350892Y+388372D02*
X-1710812Y+388372D01*
X-1558412Y+388372D02*
X-1451732Y+388372D01*
X-1263772Y+388372D02*
X-1080892Y+388372D01*
X-2818252Y+393452D02*
X-2808092Y+393452D01*
X-2350892Y+393452D02*
X-1710812Y+393452D01*
X-1563492Y+393452D02*
X-1451732Y+393452D01*
X-1263772Y+393452D02*
X-1080892Y+393452D01*
X-2818252Y+398532D02*
X-2813172Y+398532D01*
X-2361052Y+398532D02*
X-1710812Y+398532D01*
X-1568572Y+398532D02*
X-1451732Y+398532D01*
X-1263772Y+398532D02*
X-1060572Y+398532D01*
X-273172Y+398532D02*
X-268092Y+398532D01*
X-2818252Y+403612D02*
X-2813172Y+403612D01*
X-2361052Y+403612D02*
X-1715892Y+403612D01*
X-1573652Y+403612D02*
X-1451732Y+403612D01*
X-1253612Y+403612D02*
X-1055492Y+403612D01*
X-273172Y+403612D02*
X-268092Y+403612D01*
X-2823332Y+408692D02*
X-2813172Y+408692D01*
X-2366132Y+408692D02*
X-1720972Y+408692D01*
X-1578732Y+408692D02*
X-1446652Y+408692D01*
X-1248532Y+408692D02*
X-1050412Y+408692D01*
X-273172Y+408692D02*
X-263012Y+408692D01*
X-2828412Y+413772D02*
X-2813172Y+413772D01*
X-2371212Y+413772D02*
X-1726052Y+413772D01*
X-1583812Y+413772D02*
X-1441572Y+413772D01*
X-1248532Y+413772D02*
X-1035172Y+413772D01*
X-273172Y+413772D02*
X-252852Y+413772D01*
X-2833492Y+418852D02*
X-2818252Y+418852D01*
X-2376292Y+418852D02*
X-1731132Y+418852D01*
X-1583812Y+418852D02*
X-1441572Y+418852D01*
X-1248532Y+418852D02*
X-1030092Y+418852D01*
X-263012Y+418852D02*
X-252852Y+418852D01*
X-2838572Y+423932D02*
X-2823332Y+423932D01*
X-2381372Y+423932D02*
X-1736212Y+423932D01*
X-1583812Y+423932D02*
X-1441572Y+423932D01*
X-1248532Y+423932D02*
X-999612Y+423932D01*
X-263012Y+423932D02*
X-252852Y+423932D01*
X-2843652Y+429012D02*
X-2828412Y+429012D01*
X-2386452Y+429012D02*
X-1736212Y+429012D01*
X-1583812Y+429012D02*
X-1441572Y+429012D01*
X-1248532Y+429012D02*
X-994532Y+429012D01*
X-263012Y+429012D02*
X-252852Y+429012D01*
X-2843652Y+434092D02*
X-2833492Y+434092D01*
X-2391532Y+434092D02*
X-1736212Y+434092D01*
X-1588892Y+434092D02*
X-1441572Y+434092D01*
X-1238372Y+434092D02*
X-989452Y+434092D01*
X-263012Y+434092D02*
X-252852Y+434092D01*
X-2843652Y+439172D02*
X-2838572Y+439172D01*
X-2396612Y+439172D02*
X-1736212Y+439172D01*
X-1593972Y+439172D02*
X-1441572Y+439172D01*
X-1238372Y+439172D02*
X-969132Y+439172D01*
X-263012Y+439172D02*
X-242692Y+439172D01*
X-2843652Y+444252D02*
X-2838572Y+444252D01*
X-2401692Y+444252D02*
X-1746372Y+444252D01*
X-1599052Y+444252D02*
X-1441572Y+444252D01*
X-1238372Y+444252D02*
X-969132Y+444252D01*
X-252852Y+444252D02*
X-242692Y+444252D01*
X-2848732Y+449332D02*
X-2838572Y+449332D01*
X-2406772Y+449332D02*
X-1746372Y+449332D01*
X-1604132Y+449332D02*
X-1441572Y+449332D01*
X-1238372Y+449332D02*
X-964052Y+449332D01*
X-247772Y+449332D02*
X-242692Y+449332D01*
X-2853812Y+454412D02*
X-2838572Y+454412D01*
X-2411852Y+454412D02*
X-1751452Y+454412D01*
X-1609212Y+454412D02*
X-1441572Y+454412D01*
X-1238372Y+454412D02*
X-948812Y+454412D01*
X-247772Y+454412D02*
X-242692Y+454412D01*
X-2853812Y+459492D02*
X-2843652Y+459492D01*
X-2411852Y+459492D02*
X-1756532Y+459492D01*
X-1609212Y+459492D02*
X-1441572Y+459492D01*
X-1238372Y+459492D02*
X-943732Y+459492D01*
X-247772Y+459492D02*
X-237612Y+459492D01*
X-2853812Y+464572D02*
X-2848732Y+464572D01*
X-2422012Y+464572D02*
X-1761612Y+464572D01*
X-1609212Y+464572D02*
X-1441572Y+464572D01*
X-1238372Y+464572D02*
X-923412Y+464572D01*
X-247772Y+464572D02*
X-232532Y+464572D01*
X-2853812Y+469652D02*
X-2848732Y+469652D01*
X-2422012Y+469652D02*
X-1761612Y+469652D01*
X-1609212Y+469652D02*
X-1441572Y+469652D01*
X-1233292Y+469652D02*
X-923412Y+469652D01*
X-242692Y+469652D02*
X-232532Y+469652D01*
X-2858892Y+474732D02*
X-2848732Y+474732D01*
X-2427092Y+474732D02*
X-1761612Y+474732D01*
X-1614292Y+474732D02*
X-1441572Y+474732D01*
X-1228212Y+474732D02*
X-918332Y+474732D01*
X-237612Y+474732D02*
X-232532Y+474732D01*
X-2869052Y+479812D02*
X-2848732Y+479812D01*
X-2437252Y+479812D02*
X-1761612Y+479812D01*
X-1619372Y+479812D02*
X-1441572Y+479812D01*
X-1223132Y+479812D02*
X-882772Y+479812D01*
X-237612Y+479812D02*
X-232532Y+479812D01*
X-2869052Y+484892D02*
X-2848732Y+484892D01*
X-2437252Y+484892D02*
X-1771772Y+484892D01*
X-1619372Y+484892D02*
X-1441572Y+484892D01*
X-1218052Y+484892D02*
X-882772Y+484892D01*
X-237612Y+484892D02*
X-227452Y+484892D01*
X-2869052Y+489972D02*
X-2848732Y+489972D01*
X-2437252Y+489972D02*
X-1771772Y+489972D01*
X-1629532Y+489972D02*
X-1441572Y+489972D01*
X-1212972Y+489972D02*
X-862452Y+489972D01*
X-237612Y+489972D02*
X-222372Y+489972D01*
X-2869052Y+495052D02*
X-2848732Y+495052D01*
X-2437252Y+495052D02*
X-1776852Y+495052D01*
X-1634612Y+495052D02*
X-1441572Y+495052D01*
X-1212972Y+495052D02*
X-857372Y+495052D01*
X-232532Y+495052D02*
X-217292Y+495052D01*
X-2869052Y+500132D02*
X-2858892Y+500132D01*
X-2437252Y+500132D02*
X-1781932Y+500132D01*
X-1634612Y+500132D02*
X-1441572Y+500132D01*
X-1212972Y+500132D02*
X-857372Y+500132D01*
X-227452Y+500132D02*
X-217292Y+500132D01*
X-2879212Y+505212D02*
X-2858892Y+505212D01*
X-2447412Y+505212D02*
X-1787012Y+505212D01*
X-1634612Y+505212D02*
X-1441572Y+505212D01*
X-1212972Y+505212D02*
X-837052Y+505212D01*
X-222372Y+505212D02*
X-217292Y+505212D01*
X-2879212Y+510292D02*
X-2858892Y+510292D01*
X-2447412Y+510292D02*
X-1792092Y+510292D01*
X-1634612Y+510292D02*
X-1441572Y+510292D01*
X-1207892Y+510292D02*
X-831972Y+510292D01*
X-222372Y+510292D02*
X-217292Y+510292D01*
X-2879212Y+515372D02*
X-2858892Y+515372D01*
X-2452492Y+515372D02*
X-1797172Y+515372D01*
X-1639692Y+515372D02*
X-1441572Y+515372D01*
X-1202812Y+515372D02*
X-826892Y+515372D01*
X-222372Y+515372D02*
X-212212Y+515372D01*
X-2879212Y+520452D02*
X-2863972Y+520452D01*
X-2457572Y+520452D02*
X-1797172Y+520452D01*
X-1644772Y+520452D02*
X-1441572Y+520452D01*
X-1324732Y+520452D02*
X-1314572Y+520452D01*
X-1197732Y+520452D02*
X-811652Y+520452D01*
X-222372Y+520452D02*
X-207132Y+520452D01*
X-2884292Y+525532D02*
X-2869052Y+525532D01*
X-2462652Y+525532D02*
X-1797172Y+525532D01*
X-1644772Y+525532D02*
X-1441572Y+525532D01*
X-1324732Y+525532D02*
X-1314572Y+525532D01*
X-1197732Y+525532D02*
X-806572Y+525532D01*
X-217292Y+525532D02*
X-207132Y+525532D01*
X-2889372Y+530612D02*
X-2874132Y+530612D01*
X-2467732Y+530612D02*
X-1797172Y+530612D01*
X-1654932Y+530612D02*
X-1441572Y+530612D01*
X-1324732Y+530612D02*
X-1304412Y+530612D01*
X-1197732Y+530612D02*
X-786252Y+530612D01*
X-212212Y+530612D02*
X-207132Y+530612D01*
X-2889372Y+535692D02*
X-2874132Y+535692D01*
X-2472812Y+535692D02*
X-1802252Y+535692D01*
X-1660012Y+535692D02*
X-1441572Y+535692D01*
X-1324732Y+535692D02*
X-1304412Y+535692D01*
X-1197732Y+535692D02*
X-786252Y+535692D01*
X-212212Y+535692D02*
X-207132Y+535692D01*
X-2889372Y+540772D02*
X-2874132Y+540772D01*
X-2472812Y+540772D02*
X-1807332Y+540772D01*
X-1660012Y+540772D02*
X-1441572Y+540772D01*
X-1324732Y+540772D02*
X-1304412Y+540772D01*
X-1187572Y+540772D02*
X-781172Y+540772D01*
X-212212Y+540772D02*
X-202052Y+540772D01*
X-2889372Y+545852D02*
X-2874132Y+545852D01*
X-2472812Y+545852D02*
X-1812412Y+545852D01*
X-1670172Y+545852D02*
X-1441572Y+545852D01*
X-1324732Y+545852D02*
X-1304412Y+545852D01*
X-1187572Y+545852D02*
X-776092Y+545852D01*
X-212212Y+545852D02*
X-191892Y+545852D01*
X-2894452Y+550932D02*
X-2879212Y+550932D01*
X-2472812Y+550932D02*
X-1817492Y+550932D01*
X-1670172Y+550932D02*
X-1441572Y+550932D01*
X-1324732Y+550932D02*
X-1304412Y+550932D01*
X-1187572Y+550932D02*
X-771012Y+550932D01*
X-212212Y+550932D02*
X-191892Y+550932D01*
X-2899532Y+556012D02*
X-2884292Y+556012D01*
X-2482972Y+556012D02*
X-1822572Y+556012D01*
X-1670172Y+556012D02*
X-1441572Y+556012D01*
X-1334892Y+556012D02*
X-1294252Y+556012D01*
X-1187572Y+556012D02*
X-765932Y+556012D01*
X-212212Y+556012D02*
X-191892Y+556012D01*
X-2904612Y+561092D02*
X-2884292Y+561092D01*
X-2482972Y+561092D02*
X-1822572Y+561092D01*
X-1670172Y+561092D02*
X-1441572Y+561092D01*
X-1334892Y+561092D02*
X-1294252Y+561092D01*
X-1187572Y+561092D02*
X-750692Y+561092D01*
X-212212Y+561092D02*
X-191892Y+561092D01*
X-2904612Y+566172D02*
X-2884292Y+566172D01*
X-2488052Y+566172D02*
X-1832732Y+566172D01*
X-1670172Y+566172D02*
X-1441572Y+566172D01*
X-1334892Y+566172D02*
X-1294252Y+566172D01*
X-1177412Y+566172D02*
X-745612Y+566172D01*
X-202052Y+566172D02*
X-191892Y+566172D01*
X-2904612Y+571252D02*
X-2884292Y+571252D01*
X-2493132Y+571252D02*
X-1837812Y+571252D01*
X-1680332Y+571252D02*
X-1441572Y+571252D01*
X-1334892Y+571252D02*
X-1294252Y+571252D01*
X-1177412Y+571252D02*
X-735452Y+571252D01*
X-202052Y+571252D02*
X-181732Y+571252D01*
X-2904612Y+576332D02*
X-2889372Y+576332D01*
X-2498212Y+576332D02*
X-1837812Y+576332D01*
X-1680332Y+576332D02*
X-1441572Y+576332D01*
X-1334892Y+576332D02*
X-1289172Y+576332D01*
X-1172332Y+576332D02*
X-735452Y+576332D01*
X-196972Y+576332D02*
X-181732Y+576332D01*
X-2909692Y+581412D02*
X-2894452Y+581412D01*
X-2498212Y+581412D02*
X-1847972Y+581412D01*
X-1685412Y+581412D02*
X-1441572Y+581412D01*
X-1334892Y+581412D02*
X-1289172Y+581412D01*
X-1162172Y+581412D02*
X-730372Y+581412D01*
X-196972Y+581412D02*
X-181732Y+581412D01*
X-2914772Y+586492D02*
X-2899532Y+586492D01*
X-2498212Y+586492D02*
X-1847972Y+586492D01*
X-1695572Y+586492D02*
X-1441572Y+586492D01*
X-1334892Y+586492D02*
X-1279012Y+586492D01*
X-1162172Y+586492D02*
X-710052Y+586492D01*
X-196972Y+586492D02*
X-181732Y+586492D01*
X-2914772Y+591572D02*
X-2899532Y+591572D01*
X-2498212Y+591572D02*
X-1847972Y+591572D01*
X-1695572Y+591572D02*
X-1446652Y+591572D01*
X-1334892Y+591572D02*
X-1279012Y+591572D01*
X-1162172Y+591572D02*
X-710052Y+591572D01*
X-191892Y+591572D02*
X-176652Y+591572D01*
X-2914772Y+596652D02*
X-2899532Y+596652D01*
X-2508372Y+596652D02*
X-1847972Y+596652D01*
X-1705732Y+596652D02*
X-1451732Y+596652D01*
X-1334892Y+596652D02*
X-1279012Y+596652D01*
X-1162172Y+596652D02*
X-699892Y+596652D01*
X-186812Y+596652D02*
X-171572Y+596652D01*
X-2914772Y+601732D02*
X-2899532Y+601732D01*
X-2508372Y+601732D02*
X-1847972Y+601732D01*
X-1705732Y+601732D02*
X-1451732Y+601732D01*
X-1334892Y+601732D02*
X-1279012Y+601732D01*
X-1162172Y+601732D02*
X-699892Y+601732D01*
X-186812Y+601732D02*
X-166492Y+601732D01*
X-2919852Y+606812D02*
X-2899532Y+606812D01*
X-2513452Y+606812D02*
X-1858132Y+606812D01*
X-1710812Y+606812D02*
X-1451732Y+606812D01*
X-1334892Y+606812D02*
X-1273932Y+606812D01*
X-1152012Y+606812D02*
X-694812Y+606812D01*
X-186812Y+606812D02*
X-166492Y+606812D01*
X-2930012Y+611892D02*
X-2899532Y+611892D01*
X-2518532Y+611892D02*
X-1858132Y+611892D01*
X-1715892Y+611892D02*
X-1451732Y+611892D01*
X-1334892Y+611892D02*
X-1268852Y+611892D01*
X-1152012Y+611892D02*
X-689732Y+611892D01*
X-186812Y+611892D02*
X-166492Y+611892D01*
X-2930012Y+616972D02*
X-2904612Y+616972D01*
X-2523612Y+616972D02*
X-1868292Y+616972D01*
X-1720972Y+616972D02*
X-1451732Y+616972D01*
X-1334892Y+616972D02*
X-1268852Y+616972D01*
X-1152012Y+616972D02*
X-684652Y+616972D01*
X-186812Y+616972D02*
X-166492Y+616972D01*
X-2930012Y+622052D02*
X-2909692Y+622052D01*
X-2523612Y+622052D02*
X-1873372Y+622052D01*
X-1720972Y+622052D02*
X-1451732Y+622052D01*
X-1334892Y+622052D02*
X-1258692Y+622052D01*
X-1152012Y+622052D02*
X-679572Y+622052D01*
X-186812Y+622052D02*
X-161412Y+622052D01*
X-2930012Y+627132D02*
X-2909692Y+627132D01*
X-2523612Y+627132D02*
X-1873372Y+627132D01*
X-1720972Y+627132D02*
X-1451732Y+627132D01*
X-1334892Y+627132D02*
X-1253612Y+627132D01*
X-1152012Y+627132D02*
X-674492Y+627132D01*
X-186812Y+627132D02*
X-156332Y+627132D01*
X-2930012Y+632212D02*
X-2909692Y+632212D01*
X-2523612Y+632212D02*
X-1883532Y+632212D01*
X-1720972Y+632212D02*
X-1451732Y+632212D01*
X-1334892Y+632212D02*
X-1253612Y+632212D01*
X-1141852Y+632212D02*
X-674492Y+632212D01*
X-176652Y+632212D02*
X-156332Y+632212D01*
X-2940172Y+637292D02*
X-2909692Y+637292D01*
X-2533772Y+637292D02*
X-1883532Y+637292D01*
X-1731132Y+637292D02*
X-1451732Y+637292D01*
X-1334892Y+637292D02*
X-1253612Y+637292D01*
X-1136772Y+637292D02*
X-664332Y+637292D01*
X-176652Y+637292D02*
X-156332Y+637292D01*
X-2940172Y+642372D02*
X-2914772Y+642372D01*
X-2533772Y+642372D02*
X-1888612Y+642372D01*
X-1731132Y+642372D02*
X-1451732Y+642372D01*
X-1334892Y+642372D02*
X-1253612Y+642372D01*
X-1136772Y+642372D02*
X-659252Y+642372D01*
X-176652Y+642372D02*
X-156332Y+642372D01*
X-2940172Y+647452D02*
X-2919852Y+647452D01*
X-2533772Y+647452D02*
X-1893692Y+647452D01*
X-1736212Y+647452D02*
X-1451732Y+647452D01*
X-1334892Y+647452D02*
X-1248532Y+647452D01*
X-1126612Y+647452D02*
X-659252Y+647452D01*
X-176652Y+647452D02*
X-151252Y+647452D01*
X-2940172Y+652532D02*
X-2924932Y+652532D01*
X-2533772Y+652532D02*
X-1898772Y+652532D01*
X-1741292Y+652532D02*
X-1451732Y+652532D01*
X-1334892Y+652532D02*
X-1243452Y+652532D01*
X-1126612Y+652532D02*
X-638932Y+652532D01*
X-176652Y+652532D02*
X-146172Y+652532D01*
X-2940172Y+657612D02*
X-2924932Y+657612D01*
X-2533772Y+657612D02*
X-1898772Y+657612D01*
X-1746372Y+657612D02*
X-1451732Y+657612D01*
X-1339972Y+657612D02*
X-1243452Y+657612D01*
X-1126612Y+657612D02*
X-638932Y+657612D01*
X-166492Y+657612D02*
X-146172Y+657612D01*
X-2940172Y+662692D02*
X-2924932Y+662692D01*
X-2543932Y+662692D02*
X-1898772Y+662692D01*
X-1751452Y+662692D02*
X-1451732Y+662692D01*
X-1345052Y+662692D02*
X-1243452Y+662692D01*
X-1126612Y+662692D02*
X-638932Y+662692D01*
X-161412Y+662692D02*
X-146172Y+662692D01*
X-2940172Y+667772D02*
X-2924932Y+667772D01*
X-2543932Y+667772D02*
X-1898772Y+667772D01*
X-1756532Y+667772D02*
X-1451732Y+667772D01*
X-1350132Y+667772D02*
X-1243452Y+667772D01*
X-1126612Y+667772D02*
X-638932Y+667772D01*
X-161412Y+667772D02*
X-146172Y+667772D01*
X-2945252Y+672852D02*
X-2924932Y+672852D01*
X-2543932Y+672852D02*
X-1908932Y+672852D01*
X-1756532Y+672852D02*
X-1451732Y+672852D01*
X-1350132Y+672852D02*
X-1238372Y+672852D01*
X-1116452Y+672852D02*
X-633852Y+672852D01*
X-161412Y+672852D02*
X-146172Y+672852D01*
X-2950332Y+677932D02*
X-2924932Y+677932D01*
X-2543932Y+677932D02*
X-1908932Y+677932D01*
X-1766692Y+677932D02*
X-1451732Y+677932D01*
X-1350132Y+677932D02*
X-1233292Y+677932D01*
X-1111372Y+677932D02*
X-628772Y+677932D01*
X-161412Y+677932D02*
X-146172Y+677932D01*
X-2955412Y+683012D02*
X-2924932Y+683012D01*
X-2549012Y+683012D02*
X-1914012Y+683012D01*
X-1766692Y+683012D02*
X-1451732Y+683012D01*
X-1350132Y+683012D02*
X-1228212Y+683012D01*
X-1111372Y+683012D02*
X-623692Y+683012D01*
X-161412Y+683012D02*
X-141092Y+683012D01*
X-2955412Y+688092D02*
X-2935092Y+688092D01*
X-2554092Y+688092D02*
X-1919092Y+688092D01*
X-1771772Y+688092D02*
X-1451732Y+688092D01*
X-1350132Y+688092D02*
X-1223132Y+688092D01*
X-1101212Y+688092D02*
X-618612Y+688092D01*
X-161412Y+688092D02*
X-136012Y+688092D01*
X-2955412Y+693172D02*
X-2935092Y+693172D01*
X-2559172Y+693172D02*
X-1924172Y+693172D01*
X-1781932Y+693172D02*
X-1451732Y+693172D01*
X-1350132Y+693172D02*
X-1218052Y+693172D01*
X-1101212Y+693172D02*
X-613532Y+693172D01*
X-161412Y+693172D02*
X-130932Y+693172D01*
X-2955412Y+698252D02*
X-2935092Y+698252D01*
X-2559172Y+698252D02*
X-1929252Y+698252D01*
X-1781932Y+698252D02*
X-1451732Y+698252D01*
X-1350132Y+698252D02*
X-1218052Y+698252D01*
X-1101212Y+698252D02*
X-613532Y+698252D01*
X-156332Y+698252D02*
X-130932Y+698252D01*
X-2955412Y+703332D02*
X-2935092Y+703332D01*
X-2559172Y+703332D02*
X-1934332Y+703332D01*
X-1781932Y+703332D02*
X-1451732Y+703332D01*
X-1350132Y+703332D02*
X-1207892Y+703332D01*
X-1101212Y+703332D02*
X-603372Y+703332D01*
X-151252Y+703332D02*
X-130932Y+703332D01*
X-2955412Y+708412D02*
X-2935092Y+708412D01*
X-2559172Y+708412D02*
X-1934332Y+708412D01*
X-1781932Y+708412D02*
X-1456812Y+708412D01*
X-1350132Y+708412D02*
X-1207892Y+708412D01*
X-1101212Y+708412D02*
X-598292Y+708412D01*
X-151252Y+708412D02*
X-130932Y+708412D01*
X-2955412Y+713492D02*
X-2935092Y+713492D01*
X-2564252Y+713492D02*
X-1944492Y+713492D01*
X-1781932Y+713492D02*
X-1461892Y+713492D01*
X-1350132Y+713492D02*
X-1207892Y+713492D01*
X-1091052Y+713492D02*
X-598292Y+713492D01*
X-151252Y+713492D02*
X-130932Y+713492D01*
X-2965572Y+718572D02*
X-2935092Y+718572D01*
X-2569332Y+718572D02*
X-1944492Y+718572D01*
X-1792092Y+718572D02*
X-1466972Y+718572D01*
X-1350132Y+718572D02*
X-1207892Y+718572D01*
X-1091052Y+718572D02*
X-588132Y+718572D01*
X-151252Y+718572D02*
X-130932Y+718572D01*
X-2965572Y+723652D02*
X-2940172Y+723652D01*
X-2569332Y+723652D02*
X-1954652Y+723652D01*
X-1792092Y+723652D02*
X-1466972Y+723652D01*
X-1350132Y+723652D02*
X-1202812Y+723652D01*
X-1080892Y+723652D02*
X-588132Y+723652D01*
X-151252Y+723652D02*
X-130932Y+723652D01*
X-2965572Y+728732D02*
X-2945252Y+728732D01*
X-2569332Y+728732D02*
X-1959732Y+728732D01*
X-1802252Y+728732D02*
X-1466972Y+728732D01*
X-1350132Y+728732D02*
X-1197732Y+728732D01*
X-1075812Y+728732D02*
X-583052Y+728732D01*
X-151252Y+728732D02*
X-125852Y+728732D01*
X-2965572Y+733812D02*
X-2945252Y+733812D01*
X-2569332Y+733812D02*
X-1959732Y+733812D01*
X-1807332Y+733812D02*
X-1466972Y+733812D01*
X-1350132Y+733812D02*
X-1192652Y+733812D01*
X-1075812Y+733812D02*
X-577972Y+733812D01*
X-151252Y+733812D02*
X-120772Y+733812D01*
X-2965572Y+738892D02*
X-2945252Y+738892D01*
X-2569332Y+738892D02*
X-1959732Y+738892D01*
X-1807332Y+738892D02*
X-1466972Y+738892D01*
X-1350132Y+738892D02*
X-1192652Y+738892D01*
X-1065652Y+738892D02*
X-572892Y+738892D01*
X-141092Y+738892D02*
X-120772Y+738892D01*
X-2965572Y+743972D02*
X-2945252Y+743972D01*
X-2569332Y+743972D02*
X-1959732Y+743972D01*
X-1817492Y+743972D02*
X-1466972Y+743972D01*
X-1350132Y+743972D02*
X-1182492Y+743972D01*
X-1065652Y+743972D02*
X-567812Y+743972D01*
X-136012Y+743972D02*
X-120772Y+743972D01*
X-2965572Y+749052D02*
X-2945252Y+749052D01*
X-2569332Y+749052D02*
X-1959732Y+749052D01*
X-1817492Y+749052D02*
X-1466972Y+749052D01*
X-1350132Y+749052D02*
X-1182492Y+749052D01*
X-1060572Y+749052D02*
X-562732Y+749052D01*
X-136012Y+749052D02*
X-120772Y+749052D01*
X-2970652Y+754132D02*
X-2945252Y+754132D01*
X-2574412Y+754132D02*
X-1969892Y+754132D01*
X-1822572Y+754132D02*
X-1466972Y+754132D01*
X-1350132Y+754132D02*
X-1182492Y+754132D01*
X-1055492Y+754132D02*
X-562732Y+754132D01*
X-136012Y+754132D02*
X-120772Y+754132D01*
X-2975732Y+759212D02*
X-2945252Y+759212D01*
X-2584572Y+759212D02*
X-1969892Y+759212D01*
X-1827652Y+759212D02*
X-1466972Y+759212D01*
X-1350132Y+759212D02*
X-1182492Y+759212D01*
X-1050412Y+759212D02*
X-562732Y+759212D01*
X-136012Y+759212D02*
X-120772Y+759212D01*
X-2975732Y+764292D02*
X-2955412Y+764292D01*
X-2584572Y+764292D02*
X-1980052Y+764292D01*
X-1832732Y+764292D02*
X-1466972Y+764292D01*
X-1350132Y+764292D02*
X-1177412Y+764292D01*
X-1050412Y+764292D02*
X-562732Y+764292D01*
X-136012Y+764292D02*
X-115692Y+764292D01*
X-2975732Y+769372D02*
X-2960492Y+769372D01*
X-2584572Y+769372D02*
X-1985132Y+769372D01*
X-1837812Y+769372D02*
X-1466972Y+769372D01*
X-1350132Y+769372D02*
X-1172332Y+769372D01*
X-1050412Y+769372D02*
X-552572Y+769372D01*
X-136012Y+769372D02*
X-110612Y+769372D01*
X-2975732Y+774452D02*
X-2960492Y+774452D01*
X-2584572Y+774452D02*
X-1985132Y+774452D01*
X-1842892Y+774452D02*
X-1466972Y+774452D01*
X-1350132Y+774452D02*
X-1167252Y+774452D01*
X-1050412Y+774452D02*
X-552572Y+774452D01*
X-136012Y+774452D02*
X-105532Y+774452D01*
X-2975732Y+779532D02*
X-2960492Y+779532D01*
X-2584572Y+779532D02*
X-1995292Y+779532D01*
X-1842892Y+779532D02*
X-1477132Y+779532D01*
X-1350132Y+779532D02*
X-1167252Y+779532D01*
X-1040252Y+779532D02*
X-547492Y+779532D01*
X-136012Y+779532D02*
X-105532Y+779532D01*
X-2975732Y+784612D02*
X-2960492Y+784612D01*
X-2594732Y+784612D02*
X-1995292Y+784612D01*
X-1853052Y+784612D02*
X-1477132Y+784612D01*
X-1350132Y+784612D02*
X-1157092Y+784612D01*
X-1040252Y+784612D02*
X-542412Y+784612D01*
X-136012Y+784612D02*
X-105532Y+784612D01*
X-2980812Y+789692D02*
X-2960492Y+789692D01*
X-2594732Y+789692D02*
X-2000372Y+789692D01*
X-1858132Y+789692D02*
X-1477132Y+789692D01*
X-1345052Y+789692D02*
X-1157092Y+789692D01*
X-1035172Y+789692D02*
X-537332Y+789692D01*
X-130932Y+789692D02*
X-105532Y+789692D01*
X-2985892Y+794772D02*
X-2960492Y+794772D01*
X-2594732Y+794772D02*
X-2005452Y+794772D01*
X-1858132Y+794772D02*
X-1477132Y+794772D01*
X-1334892Y+794772D02*
X-1152012Y+794772D01*
X-1030092Y+794772D02*
X-537332Y+794772D01*
X-125852Y+794772D02*
X-105532Y+794772D01*
X-2990972Y+799852D02*
X-2960492Y+799852D01*
X-2594732Y+799852D02*
X-2010532Y+799852D01*
X-1868292Y+799852D02*
X-1477132Y+799852D01*
X-1334892Y+799852D02*
X-1141852Y+799852D01*
X-1025012Y+799852D02*
X-537332Y+799852D01*
X-125852Y+799852D02*
X-105532Y+799852D01*
X-2990972Y+804932D02*
X-2960492Y+804932D01*
X-2599812Y+804932D02*
X-2015612Y+804932D01*
X-1868292Y+804932D02*
X-1477132Y+804932D01*
X-1334892Y+804932D02*
X-1141852Y+804932D01*
X-1019932Y+804932D02*
X-537332Y+804932D01*
X-125852Y+804932D02*
X-105532Y+804932D01*
X-2990972Y+810012D02*
X-2960492Y+810012D01*
X-2604892Y+810012D02*
X-2020692Y+810012D01*
X-1878452Y+810012D02*
X-1477132Y+810012D01*
X-1334892Y+810012D02*
X-1131692Y+810012D01*
X-1014852Y+810012D02*
X-527172Y+810012D01*
X-125852Y+810012D02*
X-95372Y+810012D01*
X-2990972Y+815092D02*
X-2960492Y+815092D01*
X-2609972Y+815092D02*
X-2020692Y+815092D01*
X-1878452Y+815092D02*
X-1477132Y+815092D01*
X-1334892Y+815092D02*
X-1131692Y+815092D01*
X-1014852Y+815092D02*
X-527172Y+815092D01*
X-125852Y+815092D02*
X-95372Y+815092D01*
X-2990972Y+820172D02*
X-2960492Y+820172D01*
X-2609972Y+820172D02*
X-2020692Y+820172D01*
X-1883532Y+820172D02*
X-1477132Y+820172D01*
X-1334892Y+820172D02*
X-1131692Y+820172D01*
X-1004692Y+820172D02*
X-527172Y+820172D01*
X-125852Y+820172D02*
X-95372Y+820172D01*
X-2990972Y+825252D02*
X-2960492Y+825252D01*
X-2609972Y+825252D02*
X-2020692Y+825252D01*
X-1888612Y+825252D02*
X-1477132Y+825252D01*
X-1334892Y+825252D02*
X-1131692Y+825252D01*
X-1004692Y+825252D02*
X-527172Y+825252D01*
X-125852Y+825252D02*
X-95372Y+825252D01*
X-2990972Y+830332D02*
X-2965572Y+830332D01*
X-2609972Y+830332D02*
X-2025772Y+830332D01*
X-1893692Y+830332D02*
X-1482212Y+830332D01*
X-1334892Y+830332D02*
X-1131692Y+830332D01*
X-1004692Y+830332D02*
X-527172Y+830332D01*
X-125852Y+830332D02*
X-95372Y+830332D01*
X-2996052Y+835412D02*
X-2970652Y+835412D01*
X-2609972Y+835412D02*
X-2030852Y+835412D01*
X-1898772Y+835412D02*
X-1487292Y+835412D01*
X-1334892Y+835412D02*
X-1126612Y+835412D01*
X-1004692Y+835412D02*
X-517012Y+835412D01*
X-125852Y+835412D02*
X-95372Y+835412D01*
X-3001132Y+840492D02*
X-2970652Y+840492D01*
X-2609972Y+840492D02*
X-2035932Y+840492D01*
X-1903852Y+840492D02*
X-1492372Y+840492D01*
X-1334892Y+840492D02*
X-1121532Y+840492D01*
X-999612Y+840492D02*
X-511932Y+840492D01*
X-125852Y+840492D02*
X-95372Y+840492D01*
X-3001132Y+845572D02*
X-2970652Y+845572D01*
X-2609972Y+845572D02*
X-2041012Y+845572D01*
X-1908932Y+845572D02*
X-1492372Y+845572D01*
X-1334892Y+845572D02*
X-1116452Y+845572D01*
X-994532Y+845572D02*
X-511932Y+845572D01*
X-115692Y+845572D02*
X-90292Y+845572D01*
X-3001132Y+850652D02*
X-2970652Y+850652D01*
X-2609972Y+850652D02*
X-2046092Y+850652D01*
X-1914012Y+850652D02*
X-1492372Y+850652D01*
X-1334892Y+850652D02*
X-1106292Y+850652D01*
X-989452Y+850652D02*
X-511932Y+850652D01*
X-115692Y+850652D02*
X-85212Y+850652D01*
X-3001132Y+855732D02*
X-2970652Y+855732D01*
X-2609972Y+855732D02*
X-2051172Y+855732D01*
X-1919092Y+855732D02*
X-1492372Y+855732D01*
X-1334892Y+855732D02*
X-1106292Y+855732D01*
X-989452Y+855732D02*
X-511932Y+855732D01*
X-110612Y+855732D02*
X-80132Y+855732D01*
X-3001132Y+860812D02*
X-2970652Y+860812D01*
X-2615052Y+860812D02*
X-2056252Y+860812D01*
X-1919092Y+860812D02*
X-1492372Y+860812D01*
X-1334892Y+860812D02*
X-1101212Y+860812D01*
X-979292Y+860812D02*
X-506852Y+860812D01*
X-110612Y+860812D02*
X-80132Y+860812D01*
X-3001132Y+865892D02*
X-2970652Y+865892D01*
X-2620132Y+865892D02*
X-2056252Y+865892D01*
X-1929252Y+865892D02*
X-1492372Y+865892D01*
X-1334892Y+865892D02*
X-1096132Y+865892D01*
X-979292Y+865892D02*
X-501772Y+865892D01*
X-110612Y+865892D02*
X-80132Y+865892D01*
X-3001132Y+870972D02*
X-2970652Y+870972D01*
X-2620132Y+870972D02*
X-2066412Y+870972D01*
X-1929252Y+870972D02*
X-1492372Y+870972D01*
X-1329812Y+870972D02*
X-1091052Y+870972D01*
X-969132Y+870972D02*
X-501772Y+870972D01*
X-110612Y+870972D02*
X-80132Y+870972D01*
X-3001132Y+876052D02*
X-2970652Y+876052D01*
X-2620132Y+876052D02*
X-2071492Y+876052D01*
X-1929252Y+876052D02*
X-1492372Y+876052D01*
X-1324732Y+876052D02*
X-1085972Y+876052D01*
X-964052Y+876052D02*
X-501772Y+876052D01*
X-110612Y+876052D02*
X-80132Y+876052D01*
X-3001132Y+881132D02*
X-2970652Y+881132D01*
X-2620132Y+881132D02*
X-2071492Y+881132D01*
X-1929252Y+881132D02*
X-1492372Y+881132D01*
X-1324732Y+881132D02*
X-1080892Y+881132D01*
X-964052Y+881132D02*
X-501772Y+881132D01*
X-110612Y+881132D02*
X-80132Y+881132D01*
X-3006212Y+886212D02*
X-2970652Y+886212D01*
X-2620132Y+886212D02*
X-2081652Y+886212D01*
X-1934332Y+886212D02*
X-1497452Y+886212D01*
X-1324732Y+886212D02*
X-1080892Y+886212D01*
X-953892Y+886212D02*
X-496692Y+886212D01*
X-110612Y+886212D02*
X-80132Y+886212D01*
X-3016372Y+891292D02*
X-2970652Y+891292D01*
X-2620132Y+891292D02*
X-2081652Y+891292D01*
X-1939412Y+891292D02*
X-1502532Y+891292D01*
X-1324732Y+891292D02*
X-1070732Y+891292D01*
X-953892Y+891292D02*
X-491612Y+891292D01*
X-110612Y+891292D02*
X-80132Y+891292D01*
X-3016372Y+896372D02*
X-2970652Y+896372D01*
X-2620132Y+896372D02*
X-2081652Y+896372D01*
X-1944492Y+896372D02*
X-1502532Y+896372D01*
X-1324732Y+896372D02*
X-1070732Y+896372D01*
X-948812Y+896372D02*
X-491612Y+896372D01*
X-110612Y+896372D02*
X-80132Y+896372D01*
X-3016372Y+901452D02*
X-2970652Y+901452D01*
X-2620132Y+901452D02*
X-2081652Y+901452D01*
X-1949572Y+901452D02*
X-1502532Y+901452D01*
X-1324732Y+901452D02*
X-1065652Y+901452D01*
X-943732Y+901452D02*
X-491612Y+901452D01*
X-110612Y+901452D02*
X-75052Y+901452D01*
X-3016372Y+906532D02*
X-2970652Y+906532D01*
X-2620132Y+906532D02*
X-2081652Y+906532D01*
X-1954652Y+906532D02*
X-1502532Y+906532D01*
X-1324732Y+906532D02*
X-1055492Y+906532D01*
X-938652Y+906532D02*
X-491612Y+906532D01*
X-110612Y+906532D02*
X-69972Y+906532D01*
X-3016372Y+911612D02*
X-2980812Y+911612D01*
X-2620132Y+911612D02*
X-2091812Y+911612D01*
X-1954652Y+911612D02*
X-1512692Y+911612D01*
X-1324732Y+911612D02*
X-1055492Y+911612D01*
X-938652Y+911612D02*
X-486532Y+911612D01*
X-110612Y+911612D02*
X-69972Y+911612D01*
X-3016372Y+916692D02*
X-2985892Y+916692D01*
X-2630292Y+916692D02*
X-2096892Y+916692D01*
X-1964812Y+916692D02*
X-1512692Y+916692D01*
X-1324732Y+916692D02*
X-1045332Y+916692D01*
X-938652Y+916692D02*
X-481452Y+916692D01*
X-110612Y+916692D02*
X-69972Y+916692D01*
X-3016372Y+921772D02*
X-2985892Y+921772D01*
X-2630292Y+921772D02*
X-2096892Y+921772D01*
X-1964812Y+921772D02*
X-1512692Y+921772D01*
X-1319652Y+921772D02*
X-1045332Y+921772D01*
X-938652Y+921772D02*
X-476372Y+921772D01*
X-110612Y+921772D02*
X-69972Y+921772D01*
X-3016372Y+926852D02*
X-2985892Y+926852D01*
X-2630292Y+926852D02*
X-2107052Y+926852D01*
X-1969892Y+926852D02*
X-1512692Y+926852D01*
X-1314572Y+926852D02*
X-1040252Y+926852D01*
X-928492Y+926852D02*
X-476372Y+926852D01*
X-100452Y+926852D02*
X-69972Y+926852D01*
X-3016372Y+931932D02*
X-2985892Y+931932D01*
X-2630292Y+931932D02*
X-2107052Y+931932D01*
X-1974972Y+931932D02*
X-1512692Y+931932D01*
X-1309492Y+931932D02*
X-1035172Y+931932D01*
X-928492Y+931932D02*
X-476372Y+931932D01*
X-100452Y+931932D02*
X-69972Y+931932D01*
X-3016372Y+937012D02*
X-2985892Y+937012D01*
X-2630292Y+937012D02*
X-2112132Y+937012D01*
X-1980052Y+937012D02*
X-1512692Y+937012D01*
X-1309492Y+937012D02*
X-1030092Y+937012D01*
X-923412Y+937012D02*
X-476372Y+937012D01*
X-100452Y+937012D02*
X-69972Y+937012D01*
X-3016372Y+942092D02*
X-2985892Y+942092D01*
X-2630292Y+942092D02*
X-2117212Y+942092D01*
X-1985132Y+942092D02*
X-1512692Y+942092D01*
X-1309492Y+942092D02*
X-1025012Y+942092D01*
X-918332Y+942092D02*
X-476372Y+942092D01*
X-100452Y+942092D02*
X-69972Y+942092D01*
X-3016372Y+947172D02*
X-2985892Y+947172D01*
X-2630292Y+947172D02*
X-2122292Y+947172D01*
X-1990212Y+947172D02*
X-1517772Y+947172D01*
X-1309492Y+947172D02*
X-1019932Y+947172D01*
X-913252Y+947172D02*
X-476372Y+947172D01*
X-100452Y+947172D02*
X-69972Y+947172D01*
X-3016372Y+952252D02*
X-2985892Y+952252D01*
X-2630292Y+952252D02*
X-2127372Y+952252D01*
X-1995292Y+952252D02*
X-1522852Y+952252D01*
X-1309492Y+952252D02*
X-1019932Y+952252D01*
X-908172Y+952252D02*
X-476372Y+952252D01*
X-100452Y+952252D02*
X-69972Y+952252D01*
X-3016372Y+957332D02*
X-2985892Y+957332D01*
X-2630292Y+957332D02*
X-2132452Y+957332D01*
X-2000372Y+957332D02*
X-1527932Y+957332D01*
X-1309492Y+957332D02*
X-1019932Y+957332D01*
X-903092Y+957332D02*
X-466212Y+957332D01*
X-100452Y+957332D02*
X-69972Y+957332D01*
X-3016372Y+962412D02*
X-2985892Y+962412D01*
X-2630292Y+962412D02*
X-2137532Y+962412D01*
X-2005452Y+962412D02*
X-1527932Y+962412D01*
X-1309492Y+962412D02*
X-1019932Y+962412D01*
X-898012Y+962412D02*
X-466212Y+962412D01*
X-100452Y+962412D02*
X-69972Y+962412D01*
X-3021452Y+967492D02*
X-2985892Y+967492D01*
X-2630292Y+967492D02*
X-2142612Y+967492D01*
X-2005452Y+967492D02*
X-1527932Y+967492D01*
X-1309492Y+967492D02*
X-1014852Y+967492D01*
X-892932Y+967492D02*
X-466212Y+967492D01*
X-100452Y+967492D02*
X-64892Y+967492D01*
X-3026532Y+972572D02*
X-2985892Y+972572D01*
X-2630292Y+972572D02*
X-2142612Y+972572D01*
X-2015612Y+972572D02*
X-1527932Y+972572D01*
X-1309492Y+972572D02*
X-1009772Y+972572D01*
X-892932Y+972572D02*
X-466212Y+972572D01*
X-100452Y+972572D02*
X-59812Y+972572D01*
X-3026532Y+977652D02*
X-2985892Y+977652D01*
X-2630292Y+977652D02*
X-2142612Y+977652D01*
X-2015612Y+977652D02*
X-1533012Y+977652D01*
X-1309492Y+977652D02*
X-1004692Y+977652D01*
X-882772Y+977652D02*
X-466212Y+977652D01*
X-100452Y+977652D02*
X-59812Y+977652D01*
X-3026532Y+982732D02*
X-2985892Y+982732D01*
X-2630292Y+982732D02*
X-2142612Y+982732D01*
X-2025772Y+982732D02*
X-1538092Y+982732D01*
X-1309492Y+982732D02*
X-999612Y+982732D01*
X-877692Y+982732D02*
X-466212Y+982732D01*
X-100452Y+982732D02*
X-59812Y+982732D01*
X-3026532Y+987812D02*
X-2985892Y+987812D01*
X-2630292Y+987812D02*
X-2147692Y+987812D01*
X-2025772Y+987812D02*
X-1538092Y+987812D01*
X-1309492Y+987812D02*
X-994532Y+987812D01*
X-877692Y+987812D02*
X-466212Y+987812D01*
X-100452Y+987812D02*
X-59812Y+987812D01*
X-3026532Y+992892D02*
X-2985892Y+992892D01*
X-2630292Y+992892D02*
X-2152772Y+992892D01*
X-2030852Y+992892D02*
X-1538092Y+992892D01*
X-1299332Y+992892D02*
X-994532Y+992892D01*
X-877692Y+992892D02*
X-461132Y+992892D01*
X-100452Y+992892D02*
X-59812Y+992892D01*
X-3026532Y+997972D02*
X-2985892Y+997972D01*
X-2630292Y+997972D02*
X-2157852Y+997972D01*
X-2041012Y+997972D02*
X-1538092Y+997972D01*
X-1299332Y+997972D02*
X-984372Y+997972D01*
X-877692Y+997972D02*
X-456052Y+997972D01*
X-100452Y+997972D02*
X-59812Y+997972D01*
X-3026532Y+1003052D02*
X-2985892Y+1003052D01*
X-2630292Y+1003052D02*
X-2162932Y+1003052D01*
X-2041012Y+1003052D02*
X-1543172Y+1003052D01*
X-1299332Y+1003052D02*
X-984372Y+1003052D01*
X-872612Y+1003052D02*
X-450972Y+1003052D01*
X-100452Y+1003052D02*
X-59812Y+1003052D01*
X-3026532Y+1008132D02*
X-2985892Y+1008132D01*
X-2630292Y+1008132D02*
X-2168012Y+1008132D01*
X-2046092Y+1008132D02*
X-1548252Y+1008132D01*
X-1299332Y+1008132D02*
X-979292Y+1008132D01*
X-867532Y+1008132D02*
X-450972Y+1008132D01*
X-100452Y+1008132D02*
X-59812Y+1008132D01*
X-3026532Y+1013212D02*
X-2985892Y+1013212D01*
X-2630292Y+1013212D02*
X-2168012Y+1013212D01*
X-2051172Y+1013212D02*
X-1553332Y+1013212D01*
X-1299332Y+1013212D02*
X-969132Y+1013212D01*
X-867532Y+1013212D02*
X-450972Y+1013212D01*
X-100452Y+1013212D02*
X-59812Y+1013212D01*
X-3026532Y+1018292D02*
X-2990972Y+1018292D01*
X-2630292Y+1018292D02*
X-2178172Y+1018292D01*
X-2056252Y+1018292D02*
X-1558412Y+1018292D01*
X-1299332Y+1018292D02*
X-969132Y+1018292D01*
X-857372Y+1018292D02*
X-450972Y+1018292D01*
X-100452Y+1018292D02*
X-59812Y+1018292D01*
X-3026532Y+1023372D02*
X-2996052Y+1023372D01*
X-2630292Y+1023372D02*
X-2183252Y+1023372D01*
X-2061332Y+1023372D02*
X-1563492Y+1023372D01*
X-1299332Y+1023372D02*
X-958972Y+1023372D01*
X-852292Y+1023372D02*
X-450972Y+1023372D01*
X-100452Y+1023372D02*
X-59812Y+1023372D01*
X-3026532Y+1028452D02*
X-2996052Y+1028452D01*
X-2630292Y+1028452D02*
X-2183252Y+1028452D01*
X-2066412Y+1028452D02*
X-1563492Y+1028452D01*
X-1294252Y+1028452D02*
X-958972Y+1028452D01*
X-852292Y+1028452D02*
X-450972Y+1028452D01*
X-100452Y+1028452D02*
X-59812Y+1028452D01*
X-3026532Y+1033532D02*
X-2996052Y+1033532D01*
X-2630292Y+1033532D02*
X-2183252Y+1033532D01*
X-2066412Y+1033532D02*
X-1563492Y+1033532D01*
X-1289172Y+1033532D02*
X-953892Y+1033532D01*
X-842132Y+1033532D02*
X-450972Y+1033532D01*
X-100452Y+1033532D02*
X-59812Y+1033532D01*
X-3026532Y+1038612D02*
X-2996052Y+1038612D01*
X-2630292Y+1038612D02*
X-2183252Y+1038612D01*
X-2076572Y+1038612D02*
X-1563492Y+1038612D01*
X-1284092Y+1038612D02*
X-948812Y+1038612D01*
X-842132Y+1038612D02*
X-450972Y+1038612D01*
X-100452Y+1038612D02*
X-59812Y+1038612D01*
X-3031612Y+1043692D02*
X-2996052Y+1043692D01*
X-2630292Y+1043692D02*
X-2188332Y+1043692D01*
X-2076572Y+1043692D02*
X-1568572Y+1043692D01*
X-1284092Y+1043692D02*
X-943732Y+1043692D01*
X-837052Y+1043692D02*
X-450972Y+1043692D01*
X-100452Y+1043692D02*
X-54732Y+1043692D01*
X-3036692Y+1048772D02*
X-2996052Y+1048772D01*
X-2630292Y+1048772D02*
X-2193412Y+1048772D01*
X-2086732Y+1048772D02*
X-1573652Y+1048772D01*
X-1284092Y+1048772D02*
X-938652Y+1048772D01*
X-831972Y+1048772D02*
X-450972Y+1048772D01*
X-100452Y+1048772D02*
X-49652Y+1048772D01*
X-3041772Y+1053852D02*
X-2996052Y+1053852D01*
X-2630292Y+1053852D02*
X-2193412Y+1053852D01*
X-2091812Y+1053852D02*
X-1578732Y+1053852D01*
X-1284092Y+1053852D02*
X-933572Y+1053852D01*
X-826892Y+1053852D02*
X-450972Y+1053852D01*
X-100452Y+1053852D02*
X-44572Y+1053852D01*
X-3041772Y+1058932D02*
X-2996052Y+1058932D01*
X-2630292Y+1058932D02*
X-2203572Y+1058932D01*
X-2091812Y+1058932D02*
X-1583812Y+1058932D01*
X-1284092Y+1058932D02*
X-933572Y+1058932D01*
X-821812Y+1058932D02*
X-450972Y+1058932D01*
X-90292Y+1058932D02*
X-44572Y+1058932D01*
X-3041772Y+1064012D02*
X-2996052Y+1064012D01*
X-2630292Y+1064012D02*
X-2203572Y+1064012D01*
X-2101972Y+1064012D02*
X-1588892Y+1064012D01*
X-1284092Y+1064012D02*
X-923412Y+1064012D01*
X-816732Y+1064012D02*
X-440812Y+1064012D01*
X-90292Y+1064012D02*
X-44572Y+1064012D01*
X-3041772Y+1069092D02*
X-2996052Y+1069092D01*
X-2630292Y+1069092D02*
X-2208652Y+1069092D01*
X-2101972Y+1069092D02*
X-1588892Y+1069092D01*
X-1284092Y+1069092D02*
X-923412Y+1069092D01*
X-816732Y+1069092D02*
X-440812Y+1069092D01*
X-90292Y+1069092D02*
X-44572Y+1069092D01*
X-3041772Y+1074172D02*
X-2996052Y+1074172D01*
X-2630292Y+1074172D02*
X-2218812Y+1074172D01*
X-2107052Y+1074172D02*
X-1588892Y+1074172D01*
X-1273932Y+1074172D02*
X-918332Y+1074172D01*
X-816732Y+1074172D02*
X-440812Y+1074172D01*
X-90292Y+1074172D02*
X-44572Y+1074172D01*
X-3041772Y+1079252D02*
X-2996052Y+1079252D01*
X-2630292Y+1079252D02*
X-2218812Y+1079252D01*
X-2112132Y+1079252D02*
X-1588892Y+1079252D01*
X-1273932Y+1079252D02*
X-908172Y+1079252D01*
X-816732Y+1079252D02*
X-440812Y+1079252D01*
X-90292Y+1079252D02*
X-44572Y+1079252D01*
X-3041772Y+1084332D02*
X-2996052Y+1084332D01*
X-2630292Y+1084332D02*
X-2218812Y+1084332D01*
X-2117212Y+1084332D02*
X-1599052Y+1084332D01*
X-1273932Y+1084332D02*
X-908172Y+1084332D01*
X-811652Y+1084332D02*
X-440812Y+1084332D01*
X-90292Y+1084332D02*
X-44572Y+1084332D01*
X-3041772Y+1089412D02*
X-2996052Y+1089412D01*
X-2630292Y+1089412D02*
X-2218812Y+1089412D01*
X-2122292Y+1089412D02*
X-1599052Y+1089412D01*
X-1273932Y+1089412D02*
X-898012Y+1089412D01*
X-806572Y+1089412D02*
X-440812Y+1089412D01*
X-90292Y+1089412D02*
X-44572Y+1089412D01*
X-3041772Y+1094492D02*
X-2996052Y+1094492D01*
X-2630292Y+1094492D02*
X-2218812Y+1094492D01*
X-2127372Y+1094492D02*
X-1604132Y+1094492D01*
X-1273932Y+1094492D02*
X-898012Y+1094492D01*
X-801492Y+1094492D02*
X-440812Y+1094492D01*
X-90292Y+1094492D02*
X-44572Y+1094492D01*
X-3041772Y+1099572D02*
X-2996052Y+1099572D01*
X-2630292Y+1099572D02*
X-2228972Y+1099572D01*
X-2127372Y+1099572D02*
X-1609212Y+1099572D01*
X-1263772Y+1099572D02*
X-892932Y+1099572D01*
X-796412Y+1099572D02*
X-440812Y+1099572D01*
X-90292Y+1099572D02*
X-44572Y+1099572D01*
X-3041772Y+1104652D02*
X-2996052Y+1104652D01*
X-2630292Y+1104652D02*
X-2228972Y+1104652D01*
X-2127372Y+1104652D02*
X-1614292Y+1104652D01*
X-1263772Y+1104652D02*
X-887852Y+1104652D01*
X-791332Y+1104652D02*
X-440812Y+1104652D01*
X-90292Y+1104652D02*
X-44572Y+1104652D01*
X-3041772Y+1109732D02*
X-3001132Y+1109732D01*
X-2630292Y+1109732D02*
X-2234052Y+1109732D01*
X-2127372Y+1109732D02*
X-1619372Y+1109732D01*
X-1258692Y+1109732D02*
X-882772Y+1109732D01*
X-786252Y+1109732D02*
X-440812Y+1109732D01*
X-90292Y+1109732D02*
X-44572Y+1109732D01*
X-3041772Y+1114812D02*
X-3006212Y+1114812D01*
X-2630292Y+1114812D02*
X-2244212Y+1114812D01*
X-2132452Y+1114812D02*
X-1624452Y+1114812D01*
X-1248532Y+1114812D02*
X-877692Y+1114812D01*
X-781172Y+1114812D02*
X-440812Y+1114812D01*
X-90292Y+1114812D02*
X-44572Y+1114812D01*
X-3041772Y+1119892D02*
X-3011292Y+1119892D01*
X-2630292Y+1119892D02*
X-2244212Y+1119892D01*
X-2137532Y+1119892D02*
X-1624452Y+1119892D01*
X-1248532Y+1119892D02*
X-872612Y+1119892D01*
X-781172Y+1119892D02*
X-440812Y+1119892D01*
X-90292Y+1119892D02*
X-44572Y+1119892D01*
X-3041772Y+1124972D02*
X-3011292Y+1124972D01*
X-2630292Y+1124972D02*
X-2254372Y+1124972D01*
X-2142612Y+1124972D02*
X-1634612Y+1124972D01*
X-1248532Y+1124972D02*
X-872612Y+1124972D01*
X-771012Y+1124972D02*
X-440812Y+1124972D01*
X-90292Y+1124972D02*
X-44572Y+1124972D01*
X-3041772Y+1130052D02*
X-3011292Y+1130052D01*
X-2630292Y+1130052D02*
X-2254372Y+1130052D01*
X-2147692Y+1130052D02*
X-1639692Y+1130052D01*
X-1248532Y+1130052D02*
X-862452Y+1130052D01*
X-765932Y+1130052D02*
X-440812Y+1130052D01*
X-90292Y+1130052D02*
X-44572Y+1130052D01*
X-3041772Y+1135132D02*
X-3011292Y+1135132D01*
X-2630292Y+1135132D02*
X-2254372Y+1135132D01*
X-2152772Y+1135132D02*
X-1639692Y+1135132D01*
X-1248532Y+1135132D02*
X-857372Y+1135132D01*
X-765932Y+1135132D02*
X-440812Y+1135132D01*
X-90292Y+1135132D02*
X-44572Y+1135132D01*
X-3041772Y+1140212D02*
X-3011292Y+1140212D01*
X-2630292Y+1140212D02*
X-2254372Y+1140212D01*
X-2152772Y+1140212D02*
X-1649852Y+1140212D01*
X-1238372Y+1140212D02*
X-857372Y+1140212D01*
X-765932Y+1140212D02*
X-440812Y+1140212D01*
X-90292Y+1140212D02*
X-44572Y+1140212D01*
X-3041772Y+1145292D02*
X-3011292Y+1145292D01*
X-2630292Y+1145292D02*
X-2254372Y+1145292D01*
X-2162932Y+1145292D02*
X-1649852Y+1145292D01*
X-1238372Y+1145292D02*
X-847212Y+1145292D01*
X-765932Y+1145292D02*
X-440812Y+1145292D01*
X-90292Y+1145292D02*
X-44572Y+1145292D01*
X-3041772Y+1150372D02*
X-3011292Y+1150372D01*
X-2630292Y+1150372D02*
X-2264532Y+1150372D01*
X-2162932Y+1150372D02*
X-1654932Y+1150372D01*
X-1228212Y+1150372D02*
X-847212Y+1150372D01*
X-760852Y+1150372D02*
X-440812Y+1150372D01*
X-90292Y+1150372D02*
X-44572Y+1150372D01*
X-3041772Y+1155452D02*
X-3011292Y+1155452D01*
X-2630292Y+1155452D02*
X-2264532Y+1155452D01*
X-2173092Y+1155452D02*
X-1660012Y+1155452D01*
X-1223132Y+1155452D02*
X-847212Y+1155452D01*
X-755772Y+1155452D02*
X-440812Y+1155452D01*
X-90292Y+1155452D02*
X-44572Y+1155452D01*
X-3041772Y+1160532D02*
X-3011292Y+1160532D01*
X-2630292Y+1160532D02*
X-2269612Y+1160532D01*
X-2178172Y+1160532D02*
X-1665092Y+1160532D01*
X-1223132Y+1160532D02*
X-847212Y+1160532D01*
X-755772Y+1160532D02*
X-440812Y+1160532D01*
X-90292Y+1160532D02*
X-44572Y+1160532D01*
X-3041772Y+1165612D02*
X-3011292Y+1165612D01*
X-2630292Y+1165612D02*
X-2279772Y+1165612D01*
X-2178172Y+1165612D02*
X-1670172Y+1165612D01*
X-1212972Y+1165612D02*
X-847212Y+1165612D01*
X-745612Y+1165612D02*
X-440812Y+1165612D01*
X-90292Y+1165612D02*
X-44572Y+1165612D01*
X-3041772Y+1170692D02*
X-3011292Y+1170692D01*
X-2630292Y+1170692D02*
X-2279772Y+1170692D01*
X-2188332Y+1170692D02*
X-1675252Y+1170692D01*
X-1212972Y+1170692D02*
X-837052Y+1170692D01*
X-745612Y+1170692D02*
X-440812Y+1170692D01*
X-90292Y+1170692D02*
X-44572Y+1170692D01*
X-3041772Y+1175772D02*
X-3011292Y+1175772D01*
X-2630292Y+1175772D02*
X-2284852Y+1175772D01*
X-2188332Y+1175772D02*
X-1690492Y+1175772D01*
X-1207892Y+1175772D02*
X-831972Y+1175772D01*
X-740532Y+1175772D02*
X-440812Y+1175772D01*
X-90292Y+1175772D02*
X-44572Y+1175772D01*
X-3041772Y+1180852D02*
X-3011292Y+1180852D01*
X-2630292Y+1180852D02*
X-2289932Y+1180852D01*
X-2193412Y+1180852D02*
X-1700652Y+1180852D01*
X-1202812Y+1180852D02*
X-831972Y+1180852D01*
X-730372Y+1180852D02*
X-440812Y+1180852D01*
X-90292Y+1180852D02*
X-44572Y+1180852D01*
X-3041772Y+1185932D02*
X-3011292Y+1185932D01*
X-2630292Y+1185932D02*
X-2295012Y+1185932D01*
X-2198492Y+1185932D02*
X-1700652Y+1185932D01*
X-1197732Y+1185932D02*
X-821812Y+1185932D01*
X-730372Y+1185932D02*
X-440812Y+1185932D01*
X-90292Y+1185932D02*
X-44572Y+1185932D01*
X-3041772Y+1191012D02*
X-3011292Y+1191012D01*
X-2630292Y+1191012D02*
X-2295012Y+1191012D01*
X-2203572Y+1191012D02*
X-1705732Y+1191012D01*
X-1192652Y+1191012D02*
X-821812Y+1191012D01*
X-730372Y+1191012D02*
X-440812Y+1191012D01*
X-90292Y+1191012D02*
X-44572Y+1191012D01*
X-3041772Y+1196092D02*
X-3011292Y+1196092D01*
X-2630292Y+1196092D02*
X-2295012Y+1196092D01*
X-2208652Y+1196092D02*
X-1710812Y+1196092D01*
X-1187572Y+1196092D02*
X-811652Y+1196092D01*
X-730372Y+1196092D02*
X-440812Y+1196092D01*
X-90292Y+1196092D02*
X-44572Y+1196092D01*
X-3041772Y+1201172D02*
X-3011292Y+1201172D01*
X-2630292Y+1201172D02*
X-2295012Y+1201172D01*
X-2213732Y+1201172D02*
X-1715892Y+1201172D01*
X-1187572Y+1201172D02*
X-811652Y+1201172D01*
X-730372Y+1201172D02*
X-440812Y+1201172D01*
X-90292Y+1201172D02*
X-44572Y+1201172D01*
X-3041772Y+1206252D02*
X-3011292Y+1206252D01*
X-2630292Y+1206252D02*
X-2305172Y+1206252D01*
X-2213732Y+1206252D02*
X-1720972Y+1206252D01*
X-1177412Y+1206252D02*
X-806572Y+1206252D01*
X-720212Y+1206252D02*
X-440812Y+1206252D01*
X-90292Y+1206252D02*
X-44572Y+1206252D01*
X-3041772Y+1211332D02*
X-3011292Y+1211332D01*
X-2630292Y+1211332D02*
X-2305172Y+1211332D01*
X-2223892Y+1211332D02*
X-1726052Y+1211332D01*
X-1177412Y+1211332D02*
X-801492Y+1211332D01*
X-720212Y+1211332D02*
X-440812Y+1211332D01*
X-90292Y+1211332D02*
X-44572Y+1211332D01*
X-3041772Y+1216412D02*
X-3006212Y+1216412D01*
X-2630292Y+1216412D02*
X-2310252Y+1216412D01*
X-2223892Y+1216412D02*
X-1731132Y+1216412D01*
X-1172332Y+1216412D02*
X-796412Y+1216412D01*
X-715132Y+1216412D02*
X-440812Y+1216412D01*
X-90292Y+1216412D02*
X-44572Y+1216412D01*
X-3041772Y+1221492D02*
X-3001132Y+1221492D01*
X-2630292Y+1221492D02*
X-2315332Y+1221492D01*
X-2234052Y+1221492D02*
X-1736212Y+1221492D01*
X-1162172Y+1221492D02*
X-791332Y+1221492D01*
X-704972Y+1221492D02*
X-440812Y+1221492D01*
X-90292Y+1221492D02*
X-44572Y+1221492D01*
X-3041772Y+1226572D02*
X-2996052Y+1226572D01*
X-2630292Y+1226572D02*
X-2315332Y+1226572D01*
X-2239132Y+1226572D02*
X-1736212Y+1226572D01*
X-1162172Y+1226572D02*
X-786252Y+1226572D01*
X-704972Y+1226572D02*
X-440812Y+1226572D01*
X-90292Y+1226572D02*
X-44572Y+1226572D01*
X-3041772Y+1231652D02*
X-2996052Y+1231652D01*
X-2630292Y+1231652D02*
X-2315332Y+1231652D01*
X-2239132Y+1231652D02*
X-1756532Y+1231652D01*
X-1152012Y+1231652D02*
X-781172Y+1231652D01*
X-704972Y+1231652D02*
X-440812Y+1231652D01*
X-90292Y+1231652D02*
X-44572Y+1231652D01*
X-3041772Y+1236732D02*
X-2996052Y+1236732D01*
X-2630292Y+1236732D02*
X-2315332Y+1236732D01*
X-2249292Y+1236732D02*
X-1761612Y+1236732D01*
X-1152012Y+1236732D02*
X-776092Y+1236732D01*
X-704972Y+1236732D02*
X-440812Y+1236732D01*
X-90292Y+1236732D02*
X-44572Y+1236732D01*
X-3041772Y+1241812D02*
X-2996052Y+1241812D01*
X-2630292Y+1241812D02*
X-2320412Y+1241812D01*
X-2249292Y+1241812D02*
X-1766692Y+1241812D01*
X-1522852Y+1241812D02*
X-1512692Y+1241812D01*
X-1146932Y+1241812D02*
X-771012Y+1241812D01*
X-704972Y+1241812D02*
X-440812Y+1241812D01*
X-90292Y+1241812D02*
X-44572Y+1241812D01*
X-3041772Y+1246892D02*
X-2996052Y+1246892D01*
X-2630292Y+1246892D02*
X-2325492Y+1246892D01*
X-2254372Y+1246892D02*
X-1771772Y+1246892D01*
X-1522852Y+1246892D02*
X-1512692Y+1246892D01*
X-1141852Y+1246892D02*
X-771012Y+1246892D01*
X-694812Y+1246892D02*
X-440812Y+1246892D01*
X-90292Y+1246892D02*
X-44572Y+1246892D01*
X-3041772Y+1251972D02*
X-2996052Y+1251972D01*
X-2630292Y+1251972D02*
X-2330572Y+1251972D01*
X-2259452Y+1251972D02*
X-1771772Y+1251972D01*
X-1522852Y+1251972D02*
X-1502532Y+1251972D01*
X-1136772Y+1251972D02*
X-760852Y+1251972D01*
X-694812Y+1251972D02*
X-440812Y+1251972D01*
X-90292Y+1251972D02*
X-44572Y+1251972D01*
X-3041772Y+1257052D02*
X-2996052Y+1257052D01*
X-2630292Y+1257052D02*
X-2335652Y+1257052D01*
X-2264532Y+1257052D02*
X-1792092Y+1257052D01*
X-1522852Y+1257052D02*
X-1502532Y+1257052D01*
X-1131692Y+1257052D02*
X-760852Y+1257052D01*
X-684652Y+1257052D02*
X-440812Y+1257052D01*
X-90292Y+1257052D02*
X-44572Y+1257052D01*
X-3041772Y+1262132D02*
X-2996052Y+1262132D01*
X-2630292Y+1262132D02*
X-2340732Y+1262132D01*
X-2269612Y+1262132D02*
X-1797172Y+1262132D01*
X-1522852Y+1262132D02*
X-1492372Y+1262132D01*
X-1126612Y+1262132D02*
X-750692Y+1262132D01*
X-684652Y+1262132D02*
X-440812Y+1262132D01*
X-90292Y+1262132D02*
X-44572Y+1262132D01*
X-3041772Y+1267212D02*
X-2996052Y+1267212D01*
X-2630292Y+1267212D02*
X-2340732Y+1267212D01*
X-2274692Y+1267212D02*
X-1802252Y+1267212D01*
X-1522852Y+1267212D02*
X-1487292Y+1267212D01*
X-1126612Y+1267212D02*
X-750692Y+1267212D01*
X-679572Y+1267212D02*
X-440812Y+1267212D01*
X-90292Y+1267212D02*
X-44572Y+1267212D01*
X-3041772Y+1272292D02*
X-2996052Y+1272292D01*
X-2630292Y+1272292D02*
X-2340732Y+1272292D01*
X-2279772Y+1272292D02*
X-1807332Y+1272292D01*
X-1522852Y+1272292D02*
X-1487292Y+1272292D01*
X-1106292Y+1272292D02*
X-745612Y+1272292D01*
X-679572Y+1272292D02*
X-440812Y+1272292D01*
X-90292Y+1272292D02*
X-44572Y+1272292D01*
X-3041772Y+1277372D02*
X-2996052Y+1277372D01*
X-2630292Y+1277372D02*
X-2340732Y+1277372D01*
X-2284852Y+1277372D02*
X-1812412Y+1277372D01*
X-1522852Y+1277372D02*
X-1477132Y+1277372D01*
X-1101212Y+1277372D02*
X-735452Y+1277372D01*
X-679572Y+1277372D02*
X-440812Y+1277372D01*
X-90292Y+1277372D02*
X-44572Y+1277372D01*
X-3041772Y+1282452D02*
X-2996052Y+1282452D01*
X-2630292Y+1282452D02*
X-2345812Y+1282452D01*
X-2289932Y+1282452D02*
X-1827652Y+1282452D01*
X-1522852Y+1282452D02*
X-1477132Y+1282452D01*
X-1096132Y+1282452D02*
X-735452Y+1282452D01*
X-679572Y+1282452D02*
X-445892Y+1282452D01*
X-90292Y+1282452D02*
X-44572Y+1282452D01*
X-3041772Y+1287532D02*
X-2996052Y+1287532D01*
X-2630292Y+1287532D02*
X-2350892Y+1287532D01*
X-2289932Y+1287532D02*
X-1832732Y+1287532D01*
X-1522852Y+1287532D02*
X-1472052Y+1287532D01*
X-1091052Y+1287532D02*
X-730372Y+1287532D01*
X-669412Y+1287532D02*
X-450972Y+1287532D01*
X-95372Y+1287532D02*
X-44572Y+1287532D01*
X-3041772Y+1292612D02*
X-2996052Y+1292612D01*
X-2630292Y+1292612D02*
X-2355972Y+1292612D01*
X-2300092Y+1292612D02*
X-1837812Y+1292612D01*
X-1522852Y+1292612D02*
X-1466972Y+1292612D01*
X-1085972Y+1292612D02*
X-725292Y+1292612D01*
X-669412Y+1292612D02*
X-450972Y+1292612D01*
X-100452Y+1292612D02*
X-44572Y+1292612D01*
X-3041772Y+1297692D02*
X-2996052Y+1297692D01*
X-2630292Y+1297692D02*
X-2355972Y+1297692D01*
X-2300092Y+1297692D02*
X-1842892Y+1297692D01*
X-1522852Y+1297692D02*
X-1466972Y+1297692D01*
X-1070732Y+1297692D02*
X-720212Y+1297692D01*
X-659252Y+1297692D02*
X-450972Y+1297692D01*
X-100452Y+1297692D02*
X-44572Y+1297692D01*
X-3041772Y+1302772D02*
X-2996052Y+1302772D01*
X-2630292Y+1302772D02*
X-2355972Y+1302772D01*
X-2310252Y+1302772D02*
X-1847972Y+1302772D01*
X-1522852Y+1302772D02*
X-1466972Y+1302772D01*
X-1065652Y+1302772D02*
X-715132Y+1302772D01*
X-659252Y+1302772D02*
X-450972Y+1302772D01*
X-100452Y+1302772D02*
X-44572Y+1302772D01*
X-3041772Y+1307852D02*
X-2996052Y+1307852D01*
X-2630292Y+1307852D02*
X-2355972Y+1307852D01*
X-2310252Y+1307852D02*
X-1847972Y+1307852D01*
X-1522852Y+1307852D02*
X-1466972Y+1307852D01*
X-1060572Y+1307852D02*
X-710052Y+1307852D01*
X-654172Y+1307852D02*
X-450972Y+1307852D01*
X-100452Y+1307852D02*
X-44572Y+1307852D01*
X-3041772Y+1312932D02*
X-2996052Y+1312932D01*
X-2620132Y+1312932D02*
X-2366132Y+1312932D01*
X-2315332Y+1312932D02*
X-1868292Y+1312932D01*
X-1522852Y+1312932D02*
X-1461892Y+1312932D01*
X-1055492Y+1312932D02*
X-710052Y+1312932D01*
X-654172Y+1312932D02*
X-450972Y+1312932D01*
X-100452Y+1312932D02*
X-44572Y+1312932D01*
X-3041772Y+1318012D02*
X-2996052Y+1318012D01*
X-2620132Y+1318012D02*
X-2366132Y+1318012D01*
X-2325492Y+1318012D02*
X-1873372Y+1318012D01*
X-1522852Y+1318012D02*
X-1441572Y+1318012D01*
X-1050412Y+1318012D02*
X-699892Y+1318012D01*
X-654172Y+1318012D02*
X-450972Y+1318012D01*
X-100452Y+1318012D02*
X-44572Y+1318012D01*
X-3041772Y+1323092D02*
X-2996052Y+1323092D01*
X-2620132Y+1323092D02*
X-2371212Y+1323092D01*
X-2325492Y+1323092D02*
X-1878452Y+1323092D01*
X-1522852Y+1323092D02*
X-1441572Y+1323092D01*
X-1035172Y+1323092D02*
X-699892Y+1323092D01*
X-649092Y+1323092D02*
X-450972Y+1323092D01*
X-100452Y+1323092D02*
X-44572Y+1323092D01*
X-3041772Y+1328172D02*
X-2996052Y+1328172D01*
X-2620132Y+1328172D02*
X-2376292Y+1328172D01*
X-2330572Y+1328172D02*
X-1883532Y+1328172D01*
X-1522852Y+1328172D02*
X-1431412Y+1328172D01*
X-1030092Y+1328172D02*
X-694812Y+1328172D01*
X-644012Y+1328172D02*
X-450972Y+1328172D01*
X-100452Y+1328172D02*
X-44572Y+1328172D01*
X-3041772Y+1333252D02*
X-2996052Y+1333252D01*
X-2620132Y+1333252D02*
X-2381372Y+1333252D01*
X-2335652Y+1333252D02*
X-1883532Y+1333252D01*
X-1522852Y+1333252D02*
X-1426332Y+1333252D01*
X-1025012Y+1333252D02*
X-684652Y+1333252D01*
X-644012Y+1333252D02*
X-450972Y+1333252D01*
X-100452Y+1333252D02*
X-44572Y+1333252D01*
X-3041772Y+1338332D02*
X-2996052Y+1338332D01*
X-2620132Y+1338332D02*
X-2381372Y+1338332D01*
X-2340732Y+1338332D02*
X-1903852Y+1338332D01*
X-1522852Y+1338332D02*
X-1426332Y+1338332D01*
X-1019932Y+1338332D02*
X-684652Y+1338332D01*
X-644012Y+1338332D02*
X-450972Y+1338332D01*
X-100452Y+1338332D02*
X-44572Y+1338332D01*
X-3041772Y+1343412D02*
X-2996052Y+1343412D01*
X-2620132Y+1343412D02*
X-2381372Y+1343412D01*
X-2345812Y+1343412D02*
X-1908932Y+1343412D01*
X-1522852Y+1343412D02*
X-1416172Y+1343412D01*
X-1014852Y+1343412D02*
X-674492Y+1343412D01*
X-644012Y+1343412D02*
X-450972Y+1343412D01*
X-100452Y+1343412D02*
X-44572Y+1343412D01*
X-3041772Y+1348492D02*
X-2996052Y+1348492D01*
X-2620132Y+1348492D02*
X-2381372Y+1348492D01*
X-2350892Y+1348492D02*
X-1914012Y+1348492D01*
X-1517772Y+1348492D02*
X-1416172Y+1348492D01*
X-1009772Y+1348492D02*
X-674492Y+1348492D01*
X-644012Y+1348492D02*
X-450972Y+1348492D01*
X-100452Y+1348492D02*
X-44572Y+1348492D01*
X-3041772Y+1353572D02*
X-2996052Y+1353572D01*
X-2620132Y+1353572D02*
X-2391532Y+1353572D01*
X-2350892Y+1353572D02*
X-1934332Y+1353572D01*
X-1512692Y+1353572D02*
X-1411092Y+1353572D01*
X-989452Y+1353572D02*
X-669412Y+1353572D01*
X-633852Y+1353572D02*
X-450972Y+1353572D01*
X-100452Y+1353572D02*
X-44572Y+1353572D01*
X-3041772Y+1358652D02*
X-2996052Y+1358652D01*
X-2620132Y+1358652D02*
X-2391532Y+1358652D01*
X-2361052Y+1358652D02*
X-1934332Y+1358652D01*
X-1507612Y+1358652D02*
X-1406012Y+1358652D01*
X-989452Y+1358652D02*
X-664332Y+1358652D01*
X-633852Y+1358652D02*
X-450972Y+1358652D01*
X-100452Y+1358652D02*
X-44572Y+1358652D01*
X-3041772Y+1363732D02*
X-2996052Y+1363732D01*
X-2620132Y+1363732D02*
X-2391532Y+1363732D01*
X-2361052Y+1363732D02*
X-1939412Y+1363732D01*
X-1507612Y+1363732D02*
X-1400932Y+1363732D01*
X-969132Y+1363732D02*
X-659252Y+1363732D01*
X-633852Y+1363732D02*
X-450972Y+1363732D01*
X-100452Y+1363732D02*
X-44572Y+1363732D01*
X-3041772Y+1368812D02*
X-2985892Y+1368812D01*
X-2620132Y+1368812D02*
X-2391532Y+1368812D01*
X-2371212Y+1368812D02*
X-1944492Y+1368812D01*
X-1507612Y+1368812D02*
X-1395852Y+1368812D01*
X-964052Y+1368812D02*
X-654172Y+1368812D01*
X-633852Y+1368812D02*
X-450972Y+1368812D01*
X-100452Y+1368812D02*
X-44572Y+1368812D01*
X-3041772Y+1373892D02*
X-2985892Y+1373892D01*
X-2620132Y+1373892D02*
X-2391532Y+1373892D01*
X-2371212Y+1373892D02*
X-1949572Y+1373892D01*
X-1507612Y+1373892D02*
X-1380612Y+1373892D01*
X-964052Y+1373892D02*
X-649092Y+1373892D01*
X-633852Y+1373892D02*
X-456052Y+1373892D01*
X-100452Y+1373892D02*
X-44572Y+1373892D01*
X-3041772Y+1378972D02*
X-2985892Y+1378972D01*
X-2620132Y+1378972D02*
X-2386452Y+1378972D01*
X-2376292Y+1378972D02*
X-1969892Y+1378972D01*
X-1507612Y+1378972D02*
X-1375532Y+1378972D01*
X-953892Y+1378972D02*
X-649092Y+1378972D01*
X-633852Y+1378972D02*
X-461132Y+1378972D01*
X-100452Y+1378972D02*
X-44572Y+1378972D01*
X-3041772Y+1384052D02*
X-2985892Y+1384052D01*
X-2620132Y+1384052D02*
X-1969892Y+1384052D01*
X-1507612Y+1384052D02*
X-1355212Y+1384052D01*
X-953892Y+1384052D02*
X-466212Y+1384052D01*
X-100452Y+1384052D02*
X-44572Y+1384052D01*
X-3041772Y+1389132D02*
X-2985892Y+1389132D01*
X-2615052Y+1389132D02*
X-1990212Y+1389132D01*
X-1507612Y+1389132D02*
X-1355212Y+1389132D01*
X-938652Y+1389132D02*
X-466212Y+1389132D01*
X-100452Y+1389132D02*
X-44572Y+1389132D01*
X-3041772Y+1394212D02*
X-2985892Y+1394212D01*
X-2609972Y+1394212D02*
X-1995292Y+1394212D01*
X-1507612Y+1394212D02*
X-1350132Y+1394212D01*
X-928492Y+1394212D02*
X-466212Y+1394212D01*
X-100452Y+1394212D02*
X-44572Y+1394212D01*
X-3041772Y+1399292D02*
X-2985892Y+1399292D01*
X-2609972Y+1399292D02*
X-1995292Y+1399292D01*
X-1507612Y+1399292D02*
X-1339972Y+1399292D01*
X-928492Y+1399292D02*
X-466212Y+1399292D01*
X-100452Y+1399292D02*
X-44572Y+1399292D01*
X-3041772Y+1404372D02*
X-2985892Y+1404372D01*
X-2609972Y+1404372D02*
X-2005452Y+1404372D01*
X-1507612Y+1404372D02*
X-1339972Y+1404372D01*
X-908172Y+1404372D02*
X-466212Y+1404372D01*
X-100452Y+1404372D02*
X-44572Y+1404372D01*
X-3041772Y+1409452D02*
X-2985892Y+1409452D01*
X-2609972Y+1409452D02*
X-2010532Y+1409452D01*
X-1507612Y+1409452D02*
X-1319652Y+1409452D01*
X-903092Y+1409452D02*
X-466212Y+1409452D01*
X-100452Y+1409452D02*
X-44572Y+1409452D01*
X-3041772Y+1414532D02*
X-2985892Y+1414532D01*
X-2609972Y+1414532D02*
X-2010532Y+1414532D01*
X-1507612Y+1414532D02*
X-1314572Y+1414532D01*
X-903092Y+1414532D02*
X-466212Y+1414532D01*
X-100452Y+1414532D02*
X-44572Y+1414532D01*
X-3041772Y+1419612D02*
X-2985892Y+1419612D01*
X-2609972Y+1419612D02*
X-2030852Y+1419612D01*
X-1507612Y+1419612D02*
X-1314572Y+1419612D01*
X-892932Y+1419612D02*
X-466212Y+1419612D01*
X-100452Y+1419612D02*
X-44572Y+1419612D01*
X-3041772Y+1424692D02*
X-2985892Y+1424692D01*
X-2609972Y+1424692D02*
X-2030852Y+1424692D01*
X-1507612Y+1424692D02*
X-1304412Y+1424692D01*
X-892932Y+1424692D02*
X-466212Y+1424692D01*
X-100452Y+1424692D02*
X-44572Y+1424692D01*
X-3041772Y+1429772D02*
X-2985892Y+1429772D01*
X-2599812Y+1429772D02*
X-2051172Y+1429772D01*
X-1507612Y+1429772D02*
X-1304412Y+1429772D01*
X-872612Y+1429772D02*
X-471292Y+1429772D01*
X-100452Y+1429772D02*
X-44572Y+1429772D01*
X-3041772Y+1434852D02*
X-2985892Y+1434852D01*
X-2594732Y+1434852D02*
X-2056252Y+1434852D01*
X-1507612Y+1434852D02*
X-1299332Y+1434852D01*
X-867532Y+1434852D02*
X-476372Y+1434852D01*
X-105532Y+1434852D02*
X-44572Y+1434852D01*
X-3041772Y+1439932D02*
X-2985892Y+1439932D01*
X-2594732Y+1439932D02*
X-2061332Y+1439932D01*
X-1507612Y+1439932D02*
X-1279012Y+1439932D01*
X-867532Y+1439932D02*
X-476372Y+1439932D01*
X-110612Y+1439932D02*
X-44572Y+1439932D01*
X-3041772Y+1445012D02*
X-2980812Y+1445012D01*
X-2594732Y+1445012D02*
X-2066412Y+1445012D01*
X-1507612Y+1445012D02*
X-1279012Y+1445012D01*
X-857372Y+1445012D02*
X-476372Y+1445012D01*
X-110612Y+1445012D02*
X-44572Y+1445012D01*
X-3041772Y+1450092D02*
X-2975732Y+1450092D01*
X-2594732Y+1450092D02*
X-2071492Y+1450092D01*
X-1507612Y+1450092D02*
X-1258692Y+1450092D01*
X-852292Y+1450092D02*
X-476372Y+1450092D01*
X-110612Y+1450092D02*
X-44572Y+1450092D01*
X-3036692Y+1455172D02*
X-2970652Y+1455172D01*
X-2594732Y+1455172D02*
X-2071492Y+1455172D01*
X-1507612Y+1455172D02*
X-1253612Y+1455172D01*
X-852292Y+1455172D02*
X-476372Y+1455172D01*
X-110612Y+1455172D02*
X-49652Y+1455172D01*
X-3031612Y+1460252D02*
X-2970652Y+1460252D01*
X-2594732Y+1460252D02*
X-2091812Y+1460252D01*
X-1507612Y+1460252D02*
X-1248532Y+1460252D01*
X-831972Y+1460252D02*
X-476372Y+1460252D01*
X-110612Y+1460252D02*
X-54732Y+1460252D01*
X-3026532Y+1465332D02*
X-2970652Y+1465332D01*
X-2594732Y+1465332D02*
X-2096892Y+1465332D01*
X-1593972Y+1465332D02*
X-1588892Y+1465332D01*
X-1507612Y+1465332D02*
X-1243452Y+1465332D01*
X-826892Y+1465332D02*
X-476372Y+1465332D01*
X-110612Y+1465332D02*
X-59812Y+1465332D01*
X-3026532Y+1470412D02*
X-2970652Y+1470412D01*
X-2589652Y+1470412D02*
X-2101972Y+1470412D01*
X-1599052Y+1470412D02*
X-1588892Y+1470412D01*
X-1507612Y+1470412D02*
X-1243452Y+1470412D01*
X-821812Y+1470412D02*
X-486532Y+1470412D01*
X-110612Y+1470412D02*
X-59812Y+1470412D01*
X-3026532Y+1475492D02*
X-2970652Y+1475492D01*
X-2584572Y+1475492D02*
X-2107052Y+1475492D01*
X-1604132Y+1475492D02*
X-1578732Y+1475492D01*
X-1507612Y+1475492D02*
X-1233292Y+1475492D01*
X-816732Y+1475492D02*
X-486532Y+1475492D01*
X-110612Y+1475492D02*
X-59812Y+1475492D01*
X-3026532Y+1480572D02*
X-2970652Y+1480572D01*
X-2584572Y+1480572D02*
X-2107052Y+1480572D01*
X-1609212Y+1480572D02*
X-1578732Y+1480572D01*
X-1507612Y+1480572D02*
X-1218052Y+1480572D01*
X-816732Y+1480572D02*
X-491612Y+1480572D01*
X-110612Y+1480572D02*
X-59812Y+1480572D01*
X-3026532Y+1485652D02*
X-2970652Y+1485652D01*
X-2584572Y+1485652D02*
X-2117212Y+1485652D01*
X-1609212Y+1485652D02*
X-1578732Y+1485652D01*
X-1507612Y+1485652D02*
X-1212972Y+1485652D01*
X-806572Y+1485652D02*
X-491612Y+1485652D01*
X-110612Y+1485652D02*
X-59812Y+1485652D01*
X-3026532Y+1490732D02*
X-2970652Y+1490732D01*
X-2584572Y+1490732D02*
X-2117212Y+1490732D01*
X-1619372Y+1490732D02*
X-1578732Y+1490732D01*
X-1507612Y+1490732D02*
X-1207892Y+1490732D01*
X-806572Y+1490732D02*
X-491612Y+1490732D01*
X-110612Y+1490732D02*
X-59812Y+1490732D01*
X-3026532Y+1495812D02*
X-2970652Y+1495812D01*
X-2584572Y+1495812D02*
X-2137532Y+1495812D01*
X-1619372Y+1495812D02*
X-1578732Y+1495812D01*
X-1507612Y+1495812D02*
X-1202812Y+1495812D01*
X-786252Y+1495812D02*
X-491612Y+1495812D01*
X-110612Y+1495812D02*
X-59812Y+1495812D01*
X-3026532Y+1500892D02*
X-2970652Y+1500892D01*
X-2584572Y+1500892D02*
X-2142612Y+1500892D01*
X-1619372Y+1500892D02*
X-1578732Y+1500892D01*
X-1507612Y+1500892D02*
X-1197732Y+1500892D01*
X-781172Y+1500892D02*
X-501772Y+1500892D01*
X-110612Y+1500892D02*
X-59812Y+1500892D01*
X-3026532Y+1505972D02*
X-2970652Y+1505972D01*
X-2584572Y+1505972D02*
X-2142612Y+1505972D01*
X-1619372Y+1505972D02*
X-1578732Y+1505972D01*
X-1507612Y+1505972D02*
X-1192652Y+1505972D01*
X-781172Y+1505972D02*
X-501772Y+1505972D01*
X-110612Y+1505972D02*
X-59812Y+1505972D01*
X-3026532Y+1511052D02*
X-2970652Y+1511052D01*
X-2574412Y+1511052D02*
X-2152772Y+1511052D01*
X-1624452Y+1511052D02*
X-1578732Y+1511052D01*
X-1502532Y+1511052D02*
X-1192652Y+1511052D01*
X-771012Y+1511052D02*
X-501772Y+1511052D01*
X-110612Y+1511052D02*
X-59812Y+1511052D01*
X-3026532Y+1516132D02*
X-2970652Y+1516132D01*
X-2569332Y+1516132D02*
X-2157852Y+1516132D01*
X-1629532Y+1516132D02*
X-1578732Y+1516132D01*
X-1497452Y+1516132D02*
X-1172332Y+1516132D01*
X-765932Y+1516132D02*
X-501772Y+1516132D01*
X-110612Y+1516132D02*
X-59812Y+1516132D01*
X-3026532Y+1521212D02*
X-2970652Y+1521212D01*
X-2569332Y+1521212D02*
X-2157852Y+1521212D01*
X-1634612Y+1521212D02*
X-1573652Y+1521212D01*
X-1497452Y+1521212D02*
X-1167252Y+1521212D01*
X-765932Y+1521212D02*
X-501772Y+1521212D01*
X-115692Y+1521212D02*
X-59812Y+1521212D01*
X-3026532Y+1526292D02*
X-2970652Y+1526292D01*
X-2569332Y+1526292D02*
X-2168012Y+1526292D01*
X-1634612Y+1526292D02*
X-1573652Y+1526292D01*
X-1497452Y+1526292D02*
X-1167252Y+1526292D01*
X-755772Y+1526292D02*
X-501772Y+1526292D01*
X-115692Y+1526292D02*
X-59812Y+1526292D01*
X-3026532Y+1531372D02*
X-2960492Y+1531372D01*
X-2569332Y+1531372D02*
X-2168012Y+1531372D01*
X-1644772Y+1531372D02*
X-1563492Y+1531372D01*
X-1497452Y+1531372D02*
X-1157092Y+1531372D01*
X-755772Y+1531372D02*
X-501772Y+1531372D01*
X-125852Y+1531372D02*
X-59812Y+1531372D01*
X-3026532Y+1536452D02*
X-2960492Y+1536452D01*
X-2569332Y+1536452D02*
X-2188332Y+1536452D01*
X-1644772Y+1536452D02*
X-1563492Y+1536452D01*
X-1497452Y+1536452D02*
X-1157092Y+1536452D01*
X-750692Y+1536452D02*
X-506852Y+1536452D01*
X-125852Y+1536452D02*
X-59812Y+1536452D01*
X-3026532Y+1541532D02*
X-2960492Y+1541532D01*
X-2569332Y+1541532D02*
X-2193412Y+1541532D01*
X-1644772Y+1541532D02*
X-1563492Y+1541532D01*
X-1497452Y+1541532D02*
X-1146932Y+1541532D01*
X-745612Y+1541532D02*
X-511932Y+1541532D01*
X-125852Y+1541532D02*
X-59812Y+1541532D01*
X-3026532Y+1546612D02*
X-2960492Y+1546612D01*
X-2569332Y+1546612D02*
X-2193412Y+1546612D01*
X-1644772Y+1546612D02*
X-1563492Y+1546612D01*
X-1497452Y+1546612D02*
X-1141852Y+1546612D01*
X-740532Y+1546612D02*
X-511932Y+1546612D01*
X-125852Y+1546612D02*
X-59812Y+1546612D01*
X-3016372Y+1551692D02*
X-2960492Y+1551692D01*
X-2564252Y+1551692D02*
X-2203572Y+1551692D01*
X-1644772Y+1551692D02*
X-1563492Y+1551692D01*
X-1497452Y+1551692D02*
X-1141852Y+1551692D01*
X-735452Y+1551692D02*
X-511932Y+1551692D01*
X-125852Y+1551692D02*
X-64892Y+1551692D01*
X-3016372Y+1556772D02*
X-2960492Y+1556772D01*
X-2559172Y+1556772D02*
X-2203572Y+1556772D01*
X-1654932Y+1556772D02*
X-1563492Y+1556772D01*
X-1497452Y+1556772D02*
X-1131692Y+1556772D01*
X-730372Y+1556772D02*
X-511932Y+1556772D01*
X-125852Y+1556772D02*
X-69972Y+1556772D01*
X-3016372Y+1561852D02*
X-2960492Y+1561852D01*
X-2559172Y+1561852D02*
X-2208652Y+1561852D01*
X-1654932Y+1561852D02*
X-1563492Y+1561852D01*
X-1492372Y+1561852D02*
X-1131692Y+1561852D01*
X-725292Y+1561852D02*
X-511932Y+1561852D01*
X-125852Y+1561852D02*
X-69972Y+1561852D01*
X-3016372Y+1566932D02*
X-2960492Y+1566932D01*
X-2559172Y+1566932D02*
X-2218812Y+1566932D01*
X-1654932Y+1566932D02*
X-1563492Y+1566932D01*
X-1487292Y+1566932D02*
X-1126612Y+1566932D01*
X-720212Y+1566932D02*
X-511932Y+1566932D01*
X-125852Y+1566932D02*
X-69972Y+1566932D01*
X-3016372Y+1572012D02*
X-2960492Y+1572012D01*
X-2559172Y+1572012D02*
X-2218812Y+1572012D01*
X-1654932Y+1572012D02*
X-1563492Y+1572012D01*
X-1482212Y+1572012D02*
X-1121532Y+1572012D01*
X-720212Y+1572012D02*
X-511932Y+1572012D01*
X-125852Y+1572012D02*
X-69972Y+1572012D01*
X-3016372Y+1577092D02*
X-2955412Y+1577092D01*
X-2549012Y+1577092D02*
X-2223892Y+1577092D01*
X-1660012Y+1577092D02*
X-1563492Y+1577092D01*
X-1482212Y+1577092D02*
X-1121532Y+1577092D01*
X-710052Y+1577092D02*
X-522092Y+1577092D01*
X-125852Y+1577092D02*
X-69972Y+1577092D01*
X-3016372Y+1582172D02*
X-2950332Y+1582172D01*
X-2549012Y+1582172D02*
X-2228972Y+1582172D01*
X-1665092Y+1582172D02*
X-1553332Y+1582172D01*
X-1482212Y+1582172D02*
X-1121532Y+1582172D01*
X-704972Y+1582172D02*
X-527172Y+1582172D01*
X-136012Y+1582172D02*
X-69972Y+1582172D01*
X-3016372Y+1587252D02*
X-2945252Y+1587252D01*
X-2543932Y+1587252D02*
X-2234052Y+1587252D01*
X-1670172Y+1587252D02*
X-1553332Y+1587252D01*
X-1482212Y+1587252D02*
X-1121532Y+1587252D01*
X-704972Y+1587252D02*
X-527172Y+1587252D01*
X-136012Y+1587252D02*
X-69972Y+1587252D01*
X-3016372Y+1592332D02*
X-2945252Y+1592332D01*
X-2543932Y+1592332D02*
X-2239132Y+1592332D01*
X-1670172Y+1592332D02*
X-1553332Y+1592332D01*
X-1482212Y+1592332D02*
X-1116452Y+1592332D01*
X-704972Y+1592332D02*
X-527172Y+1592332D01*
X-136012Y+1592332D02*
X-69972Y+1592332D01*
X-3016372Y+1597412D02*
X-2945252Y+1597412D01*
X-2543932Y+1597412D02*
X-2244212Y+1597412D01*
X-1670172Y+1597412D02*
X-1553332Y+1597412D01*
X-1482212Y+1597412D02*
X-1106292Y+1597412D01*
X-704972Y+1597412D02*
X-527172Y+1597412D01*
X-136012Y+1597412D02*
X-69972Y+1597412D01*
X-3016372Y+1602492D02*
X-2945252Y+1602492D01*
X-2543932Y+1602492D02*
X-2249292Y+1602492D01*
X-1670172Y+1602492D02*
X-1553332Y+1602492D01*
X-1477132Y+1602492D02*
X-1106292Y+1602492D01*
X-699892Y+1602492D02*
X-532252Y+1602492D01*
X-136012Y+1602492D02*
X-69972Y+1602492D01*
X-3016372Y+1607572D02*
X-2945252Y+1607572D01*
X-2543932Y+1607572D02*
X-2254372Y+1607572D01*
X-1670172Y+1607572D02*
X-1553332Y+1607572D01*
X-1472052Y+1607572D02*
X-1101212Y+1607572D01*
X-694812Y+1607572D02*
X-537332Y+1607572D01*
X-136012Y+1607572D02*
X-69972Y+1607572D01*
X-3016372Y+1612652D02*
X-2945252Y+1612652D01*
X-2543932Y+1612652D02*
X-2254372Y+1612652D01*
X-1670172Y+1612652D02*
X-1553332Y+1612652D01*
X-1472052Y+1612652D02*
X-1096132Y+1612652D01*
X-694812Y+1612652D02*
X-537332Y+1612652D01*
X-136012Y+1612652D02*
X-69972Y+1612652D01*
X-3016372Y+1617732D02*
X-2945252Y+1617732D01*
X-2538852Y+1617732D02*
X-2264532Y+1617732D01*
X-1670172Y+1617732D02*
X-1548252Y+1617732D01*
X-1472052Y+1617732D02*
X-1096132Y+1617732D01*
X-684652Y+1617732D02*
X-537332Y+1617732D01*
X-141092Y+1617732D02*
X-80132Y+1617732D01*
X-3016372Y+1622812D02*
X-2945252Y+1622812D01*
X-2533772Y+1622812D02*
X-2269612Y+1622812D01*
X-1680332Y+1622812D02*
X-1543172Y+1622812D01*
X-1472052Y+1622812D02*
X-1096132Y+1622812D01*
X-679572Y+1622812D02*
X-537332Y+1622812D01*
X-146172Y+1622812D02*
X-80132Y+1622812D01*
X-3011292Y+1627892D02*
X-2945252Y+1627892D01*
X-2533772Y+1627892D02*
X-2269612Y+1627892D01*
X-1680332Y+1627892D02*
X-1538092Y+1627892D01*
X-1472052Y+1627892D02*
X-1096132Y+1627892D01*
X-679572Y+1627892D02*
X-542412Y+1627892D01*
X-151252Y+1627892D02*
X-80132Y+1627892D01*
X-3006212Y+1632972D02*
X-2945252Y+1632972D01*
X-2533772Y+1632972D02*
X-2279772Y+1632972D01*
X-1680332Y+1632972D02*
X-1538092Y+1632972D01*
X-1472052Y+1632972D02*
X-1091052Y+1632972D01*
X-679572Y+1632972D02*
X-547492Y+1632972D01*
X-151252Y+1632972D02*
X-80132Y+1632972D01*
X-3001132Y+1638052D02*
X-2935092Y+1638052D01*
X-2533772Y+1638052D02*
X-2279772Y+1638052D01*
X-1680332Y+1638052D02*
X-1538092Y+1638052D01*
X-1472052Y+1638052D02*
X-1080892Y+1638052D01*
X-679572Y+1638052D02*
X-552572Y+1638052D01*
X-151252Y+1638052D02*
X-80132Y+1638052D01*
X-3001132Y+1643132D02*
X-2935092Y+1643132D01*
X-2528692Y+1643132D02*
X-2279772Y+1643132D01*
X-1680332Y+1643132D02*
X-1538092Y+1643132D01*
X-1472052Y+1643132D02*
X-1080892Y+1643132D01*
X-674492Y+1643132D02*
X-552572Y+1643132D01*
X-151252Y+1643132D02*
X-80132Y+1643132D01*
X-3001132Y+1648212D02*
X-2935092Y+1648212D01*
X-2523612Y+1648212D02*
X-2279772Y+1648212D01*
X-1680332Y+1648212D02*
X-1538092Y+1648212D01*
X-1472052Y+1648212D02*
X-1080892Y+1648212D01*
X-669412Y+1648212D02*
X-552572Y+1648212D01*
X-151252Y+1648212D02*
X-80132Y+1648212D01*
X-3001132Y+1653292D02*
X-2935092Y+1653292D01*
X-2523612Y+1653292D02*
X-2279772Y+1653292D01*
X-1680332Y+1653292D02*
X-1538092Y+1653292D01*
X-1472052Y+1653292D02*
X-1080892Y+1653292D01*
X-669412Y+1653292D02*
X-552572Y+1653292D01*
X-151252Y+1653292D02*
X-85212Y+1653292D01*
X-3001132Y+1658372D02*
X-2935092Y+1658372D01*
X-2523612Y+1658372D02*
X-2289932Y+1658372D01*
X-1680332Y+1658372D02*
X-1538092Y+1658372D01*
X-1461892Y+1658372D02*
X-1080892Y+1658372D01*
X-669412Y+1658372D02*
X-552572Y+1658372D01*
X-151252Y+1658372D02*
X-90292Y+1658372D01*
X-3001132Y+1663452D02*
X-2935092Y+1663452D01*
X-2523612Y+1663452D02*
X-2289932Y+1663452D01*
X-1680332Y+1663452D02*
X-1527932Y+1663452D01*
X-1461892Y+1663452D02*
X-1070732Y+1663452D01*
X-669412Y+1663452D02*
X-552572Y+1663452D01*
X-161412Y+1663452D02*
X-95372Y+1663452D01*
X-3001132Y+1668532D02*
X-2935092Y+1668532D01*
X-2518532Y+1668532D02*
X-2295012Y+1668532D01*
X-1680332Y+1668532D02*
X-1527932Y+1668532D01*
X-1456812Y+1668532D02*
X-1070732Y+1668532D01*
X-664332Y+1668532D02*
X-552572Y+1668532D01*
X-161412Y+1668532D02*
X-95372Y+1668532D01*
X-3001132Y+1673612D02*
X-2930012Y+1673612D01*
X-2508372Y+1673612D02*
X-2305172Y+1673612D01*
X-1680332Y+1673612D02*
X-1527932Y+1673612D01*
X-1456812Y+1673612D02*
X-1070732Y+1673612D01*
X-659252Y+1673612D02*
X-562732Y+1673612D01*
X-161412Y+1673612D02*
X-95372Y+1673612D01*
X-3001132Y+1678692D02*
X-2924932Y+1678692D01*
X-2508372Y+1678692D02*
X-2305172Y+1678692D01*
X-1680332Y+1678692D02*
X-1527932Y+1678692D01*
X-1456812Y+1678692D02*
X-1070732Y+1678692D01*
X-654172Y+1678692D02*
X-562732Y+1678692D01*
X-161412Y+1678692D02*
X-95372Y+1678692D01*
X-2996052Y+1683772D02*
X-2924932Y+1683772D01*
X-2508372Y+1683772D02*
X-2305172Y+1683772D01*
X-1680332Y+1683772D02*
X-1522852Y+1683772D01*
X-1451732Y+1683772D02*
X-1070732Y+1683772D01*
X-654172Y+1683772D02*
X-562732Y+1683772D01*
X-161412Y+1683772D02*
X-95372Y+1683772D01*
X-2990972Y+1688852D02*
X-2924932Y+1688852D01*
X-2508372Y+1688852D02*
X-2305172Y+1688852D01*
X-1680332Y+1688852D02*
X-1517772Y+1688852D01*
X-1446652Y+1688852D02*
X-1070732Y+1688852D01*
X-654172Y+1688852D02*
X-562732Y+1688852D01*
X-161412Y+1688852D02*
X-95372Y+1688852D01*
X-2990972Y+1693932D02*
X-2924932Y+1693932D01*
X-2508372Y+1693932D02*
X-2305172Y+1693932D01*
X-1680332Y+1693932D02*
X-1512692Y+1693932D01*
X-1446652Y+1693932D02*
X-1070732Y+1693932D01*
X-654172Y+1693932D02*
X-567812Y+1693932D01*
X-161412Y+1693932D02*
X-95372Y+1693932D01*
X-2990972Y+1699012D02*
X-2924932Y+1699012D01*
X-2508372Y+1699012D02*
X-2315332Y+1699012D01*
X-1680332Y+1699012D02*
X-1512692Y+1699012D01*
X-1446652Y+1699012D02*
X-1070732Y+1699012D01*
X-649092Y+1699012D02*
X-572892Y+1699012D01*
X-166492Y+1699012D02*
X-95372Y+1699012D01*
X-2990972Y+1704092D02*
X-2924932Y+1704092D01*
X-2508372Y+1704092D02*
X-2315332Y+1704092D01*
X-1680332Y+1704092D02*
X-1502532Y+1704092D01*
X-1446652Y+1704092D02*
X-1070732Y+1704092D01*
X-644012Y+1704092D02*
X-577972Y+1704092D01*
X-171572Y+1704092D02*
X-95372Y+1704092D01*
X-2990972Y+1709172D02*
X-2919852Y+1709172D01*
X-2503292Y+1709172D02*
X-2320412Y+1709172D01*
X-1680332Y+1709172D02*
X-1502532Y+1709172D01*
X-1441572Y+1709172D02*
X-1070732Y+1709172D01*
X-644012Y+1709172D02*
X-577972Y+1709172D01*
X-176652Y+1709172D02*
X-100452Y+1709172D01*
X-2990972Y+1714252D02*
X-2914772Y+1714252D01*
X-2498212Y+1714252D02*
X-2330572Y+1714252D01*
X-1680332Y+1714252D02*
X-1502532Y+1714252D01*
X-1436492Y+1714252D02*
X-1065652Y+1714252D01*
X-644012Y+1714252D02*
X-577972Y+1714252D01*
X-176652Y+1714252D02*
X-105532Y+1714252D01*
X-2990972Y+1719332D02*
X-2909692Y+1719332D01*
X-2498212Y+1719332D02*
X-2330572Y+1719332D01*
X-1680332Y+1719332D02*
X-1502532Y+1719332D01*
X-1436492Y+1719332D02*
X-1055492Y+1719332D01*
X-644012Y+1719332D02*
X-577972Y+1719332D01*
X-176652Y+1719332D02*
X-105532Y+1719332D01*
X-2980812Y+1724412D02*
X-2909692Y+1724412D01*
X-2498212Y+1724412D02*
X-2330572Y+1724412D01*
X-1680332Y+1724412D02*
X-1502532Y+1724412D01*
X-1436492Y+1724412D02*
X-1055492Y+1724412D01*
X-644012Y+1724412D02*
X-583052Y+1724412D01*
X-176652Y+1724412D02*
X-105532Y+1724412D01*
X-2980812Y+1729492D02*
X-2909692Y+1729492D01*
X-2498212Y+1729492D02*
X-2330572Y+1729492D01*
X-1680332Y+1729492D02*
X-1492372Y+1729492D01*
X-1436492Y+1729492D02*
X-1055492Y+1729492D01*
X-644012Y+1729492D02*
X-588132Y+1729492D01*
X-176652Y+1729492D02*
X-105532Y+1729492D01*
X-2975732Y+1734572D02*
X-2909692Y+1734572D01*
X-2493132Y+1734572D02*
X-2330572Y+1734572D01*
X-1680332Y+1734572D02*
X-1492372Y+1734572D01*
X-1436492Y+1734572D02*
X-1055492Y+1734572D01*
X-644012Y+1734572D02*
X-588132Y+1734572D01*
X-176652Y+1734572D02*
X-105532Y+1734572D01*
X-2975732Y+1739652D02*
X-2904612Y+1739652D01*
X-2488052Y+1739652D02*
X-2340732Y+1739652D01*
X-1680332Y+1739652D02*
X-1492372Y+1739652D01*
X-1436492Y+1739652D02*
X-1055492Y+1739652D01*
X-644012Y+1739652D02*
X-588132Y+1739652D01*
X-176652Y+1739652D02*
X-105532Y+1739652D01*
X-2975732Y+1744732D02*
X-2899532Y+1744732D01*
X-2482972Y+1744732D02*
X-2340732Y+1744732D01*
X-1680332Y+1744732D02*
X-1492372Y+1744732D01*
X-1436492Y+1744732D02*
X-1055492Y+1744732D01*
X-644012Y+1744732D02*
X-588132Y+1744732D01*
X-186812Y+1744732D02*
X-105532Y+1744732D01*
X-2975732Y+1749812D02*
X-2899532Y+1749812D01*
X-2482972Y+1749812D02*
X-2340732Y+1749812D01*
X-1680332Y+1749812D02*
X-1487292Y+1749812D01*
X-1426332Y+1749812D02*
X-1055492Y+1749812D01*
X-638932Y+1749812D02*
X-593212Y+1749812D01*
X-186812Y+1749812D02*
X-110612Y+1749812D01*
X-2975732Y+1754892D02*
X-2899532Y+1754892D01*
X-2482972Y+1754892D02*
X-2340732Y+1754892D01*
X-1680332Y+1754892D02*
X-1482212Y+1754892D01*
X-1421252Y+1754892D02*
X-1055492Y+1754892D01*
X-633852Y+1754892D02*
X-598292Y+1754892D01*
X-186812Y+1754892D02*
X-115692Y+1754892D01*
X-2975732Y+1759972D02*
X-2899532Y+1759972D01*
X-2482972Y+1759972D02*
X-2345812Y+1759972D01*
X-1680332Y+1759972D02*
X-1477132Y+1759972D01*
X-1421252Y+1759972D02*
X-1055492Y+1759972D01*
X-633852Y+1759972D02*
X-603372Y+1759972D01*
X-186812Y+1759972D02*
X-120772Y+1759972D01*
X-2970652Y+1765052D02*
X-2899532Y+1765052D01*
X-2472812Y+1765052D02*
X-2350892Y+1765052D01*
X-1680332Y+1765052D02*
X-1477132Y+1765052D01*
X-1421252Y+1765052D02*
X-1055492Y+1765052D01*
X-633852Y+1765052D02*
X-603372Y+1765052D01*
X-191892Y+1765052D02*
X-120772Y+1765052D01*
X-2965572Y+1770132D02*
X-2899532Y+1770132D01*
X-2472812Y+1770132D02*
X-2355972Y+1770132D01*
X-1680332Y+1770132D02*
X-1466972Y+1770132D01*
X-1421252Y+1770132D02*
X-1055492Y+1770132D01*
X-633852Y+1770132D02*
X-603372Y+1770132D01*
X-196972Y+1770132D02*
X-120772Y+1770132D01*
X-2965572Y+1775212D02*
X-2899532Y+1775212D01*
X-2472812Y+1775212D02*
X-2355972Y+1775212D01*
X-1680332Y+1775212D02*
X-1466972Y+1775212D01*
X-1421252Y+1775212D02*
X-1055492Y+1775212D01*
X-633852Y+1775212D02*
X-603372Y+1775212D01*
X-196972Y+1775212D02*
X-120772Y+1775212D01*
X-2965572Y+1780292D02*
X-2894452Y+1780292D01*
X-2472812Y+1780292D02*
X-2355972Y+1780292D01*
X-1670172Y+1780292D02*
X-1466972Y+1780292D01*
X-1411092Y+1780292D02*
X-1055492Y+1780292D01*
X-633852Y+1780292D02*
X-613532Y+1780292D01*
X-196972Y+1780292D02*
X-120772Y+1780292D01*
X-2965572Y+1785372D02*
X-2884292Y+1785372D01*
X-2472812Y+1785372D02*
X-2355972Y+1785372D01*
X-1670172Y+1785372D02*
X-1466972Y+1785372D01*
X-1411092Y+1785372D02*
X-1055492Y+1785372D01*
X-633852Y+1785372D02*
X-613532Y+1785372D01*
X-196972Y+1785372D02*
X-120772Y+1785372D01*
X-2960492Y+1790452D02*
X-2884292Y+1790452D01*
X-2462652Y+1790452D02*
X-2355972Y+1790452D01*
X-1670172Y+1790452D02*
X-1461892Y+1790452D01*
X-1400932Y+1790452D02*
X-1055492Y+1790452D01*
X-633852Y+1790452D02*
X-618612Y+1790452D01*
X-196972Y+1790452D02*
X-125852Y+1790452D01*
X-2955412Y+1795532D02*
X-2884292Y+1795532D01*
X-2462652Y+1795532D02*
X-2355972Y+1795532D01*
X-1670172Y+1795532D02*
X-1456812Y+1795532D01*
X-1395852Y+1795532D02*
X-1055492Y+1795532D01*
X-633852Y+1795532D02*
X-623692Y+1795532D01*
X-196972Y+1795532D02*
X-130932Y+1795532D01*
X-2955412Y+1800612D02*
X-2884292Y+1800612D01*
X-2457572Y+1800612D02*
X-2355972Y+1800612D01*
X-1670172Y+1800612D02*
X-1451732Y+1800612D01*
X-1395852Y+1800612D02*
X-1055492Y+1800612D01*
X-633852Y+1800612D02*
X-623692Y+1800612D01*
X-202052Y+1800612D02*
X-130932Y+1800612D01*
X-2955412Y+1805692D02*
X-2884292Y+1805692D01*
X-2457572Y+1805692D02*
X-2366132Y+1805692D01*
X-1670172Y+1805692D02*
X-1451732Y+1805692D01*
X-1395852Y+1805692D02*
X-1055492Y+1805692D01*
X-633852Y+1805692D02*
X-623692Y+1805692D01*
X-202052Y+1805692D02*
X-130932Y+1805692D01*
X-2955412Y+1810772D02*
X-2874132Y+1810772D01*
X-2457572Y+1810772D02*
X-2366132Y+1810772D01*
X-1670172Y+1810772D02*
X-1441572Y+1810772D01*
X-1395852Y+1810772D02*
X-1055492Y+1810772D01*
X-633852Y+1810772D02*
X-623692Y+1810772D01*
X-212212Y+1810772D02*
X-130932Y+1810772D01*
X-2955412Y+1815852D02*
X-2874132Y+1815852D01*
X-2452492Y+1815852D02*
X-2366132Y+1815852D01*
X-1665092Y+1815852D02*
X-1441572Y+1815852D01*
X-1390772Y+1815852D02*
X-1055492Y+1815852D01*
X-212212Y+1815852D02*
X-130932Y+1815852D01*
X-2955412Y+1820932D02*
X-2874132Y+1820932D01*
X-2447412Y+1820932D02*
X-2366132Y+1820932D01*
X-1660012Y+1820932D02*
X-1441572Y+1820932D01*
X-1385692Y+1820932D02*
X-1055492Y+1820932D01*
X-212212Y+1820932D02*
X-130932Y+1820932D01*
X-2955412Y+1826012D02*
X-2874132Y+1826012D01*
X-2447412Y+1826012D02*
X-2366132Y+1826012D01*
X-1654932Y+1826012D02*
X-1441572Y+1826012D01*
X-1385692Y+1826012D02*
X-1055492Y+1826012D01*
X-212212Y+1826012D02*
X-130932Y+1826012D01*
X-2945252Y+1831092D02*
X-2874132Y+1831092D01*
X-2447412Y+1831092D02*
X-2366132Y+1831092D01*
X-1654932Y+1831092D02*
X-1436492Y+1831092D01*
X-1385692Y+1831092D02*
X-1055492Y+1831092D01*
X-212212Y+1831092D02*
X-141092Y+1831092D01*
X-2940172Y+1836172D02*
X-2874132Y+1836172D01*
X-2447412Y+1836172D02*
X-2366132Y+1836172D01*
X-1654932Y+1836172D02*
X-1431412Y+1836172D01*
X-1385692Y+1836172D02*
X-1055492Y+1836172D01*
X-222372Y+1836172D02*
X-141092Y+1836172D01*
X-2940172Y+1841252D02*
X-2874132Y+1841252D01*
X-2447412Y+1841252D02*
X-2371212Y+1841252D01*
X-1654932Y+1841252D02*
X-1426332Y+1841252D01*
X-1380612Y+1841252D02*
X-1055492Y+1841252D01*
X-222372Y+1841252D02*
X-146172Y+1841252D01*
X-2940172Y+1846332D02*
X-2869052Y+1846332D01*
X-2437252Y+1846332D02*
X-2376292Y+1846332D01*
X-1644772Y+1846332D02*
X-1426332Y+1846332D01*
X-1375532Y+1846332D02*
X-1055492Y+1846332D01*
X-222372Y+1846332D02*
X-146172Y+1846332D01*
X-2940172Y+1851412D02*
X-2858892Y+1851412D01*
X-2437252Y+1851412D02*
X-2381372Y+1851412D01*
X-1644772Y+1851412D02*
X-1416172Y+1851412D01*
X-1370452Y+1851412D02*
X-1055492Y+1851412D01*
X-222372Y+1851412D02*
X-146172Y+1851412D01*
X-2940172Y+1856492D02*
X-2858892Y+1856492D01*
X-2427092Y+1856492D02*
X-2381372Y+1856492D01*
X-1644772Y+1856492D02*
X-1416172Y+1856492D01*
X-1370452Y+1856492D02*
X-1055492Y+1856492D01*
X-227452Y+1856492D02*
X-146172Y+1856492D01*
X-2940172Y+1861572D02*
X-2858892Y+1861572D01*
X-2422012Y+1861572D02*
X-2381372Y+1861572D01*
X-1644772Y+1861572D02*
X-1406012Y+1861572D01*
X-1370452Y+1861572D02*
X-1055492Y+1861572D01*
X-232532Y+1861572D02*
X-146172Y+1861572D01*
X-2940172Y+1866652D02*
X-2858892Y+1866652D01*
X-2422012Y+1866652D02*
X-2381372Y+1866652D01*
X-1644772Y+1866652D02*
X-1406012Y+1866652D01*
X-1370452Y+1866652D02*
X-1055492Y+1866652D01*
X-237612Y+1866652D02*
X-146172Y+1866652D01*
X-2930012Y+1871732D02*
X-2858892Y+1871732D01*
X-2422012Y+1871732D02*
X-2381372Y+1871732D01*
X-1634612Y+1871732D02*
X-1406012Y+1871732D01*
X-1365372Y+1871732D02*
X-1055492Y+1871732D01*
X-237612Y+1871732D02*
X-151252Y+1871732D01*
X-2930012Y+1876812D02*
X-2848732Y+1876812D01*
X-2422012Y+1876812D02*
X-2381372Y+1876812D01*
X-1634612Y+1876812D02*
X-1406012Y+1876812D01*
X-1360292Y+1876812D02*
X-1055492Y+1876812D01*
X-237612Y+1876812D02*
X-156332Y+1876812D01*
X-2930012Y+1881892D02*
X-2848732Y+1881892D01*
X-2416932Y+1881892D02*
X-2381372Y+1881892D01*
X-1629532Y+1881892D02*
X-1400932Y+1881892D01*
X-1360292Y+1881892D02*
X-1055492Y+1881892D01*
X-237612Y+1881892D02*
X-156332Y+1881892D01*
X-2930012Y+1886972D02*
X-2848732Y+1886972D01*
X-2411852Y+1886972D02*
X-2381372Y+1886972D01*
X-1619372Y+1886972D02*
X-1400932Y+1886972D01*
X-1360292Y+1886972D02*
X-1055492Y+1886972D01*
X-242692Y+1886972D02*
X-156332Y+1886972D01*
X-2930012Y+1892052D02*
X-2848732Y+1892052D01*
X-2411852Y+1892052D02*
X-2381372Y+1892052D01*
X-1619372Y+1892052D02*
X-1390772Y+1892052D01*
X-1360292Y+1892052D02*
X-1055492Y+1892052D01*
X-247772Y+1892052D02*
X-156332Y+1892052D01*
X-2919852Y+1897132D02*
X-2848732Y+1897132D01*
X-2411852Y+1897132D02*
X-2381372Y+1897132D01*
X-1619372Y+1897132D02*
X-1390772Y+1897132D01*
X-1355212Y+1897132D02*
X-1055492Y+1897132D01*
X-247772Y+1897132D02*
X-161412Y+1897132D01*
X-2919852Y+1902212D02*
X-2838572Y+1902212D01*
X-2411852Y+1902212D02*
X-2381372Y+1902212D01*
X-1619372Y+1902212D02*
X-1390772Y+1902212D01*
X-1350132Y+1902212D02*
X-1055492Y+1902212D01*
X-247772Y+1902212D02*
X-166492Y+1902212D01*
X-2914772Y+1907292D02*
X-2838572Y+1907292D01*
X-2406772Y+1907292D02*
X-2381372Y+1907292D01*
X-1619372Y+1907292D02*
X-1390772Y+1907292D01*
X-1350132Y+1907292D02*
X-1055492Y+1907292D01*
X-247772Y+1907292D02*
X-166492Y+1907292D01*
X-2914772Y+1912372D02*
X-2838572Y+1912372D01*
X-2401692Y+1912372D02*
X-2391532Y+1912372D01*
X-1609212Y+1912372D02*
X-1385692Y+1912372D01*
X-1350132Y+1912372D02*
X-1055492Y+1912372D01*
X-252852Y+1912372D02*
X-166492Y+1912372D01*
X-2914772Y+1917452D02*
X-2838572Y+1917452D01*
X-2396612Y+1917452D02*
X-2391532Y+1917452D01*
X-1609212Y+1917452D02*
X-1380612Y+1917452D01*
X-1350132Y+1917452D02*
X-1055492Y+1917452D01*
X-257932Y+1917452D02*
X-166492Y+1917452D01*
X-2914772Y+1922532D02*
X-2833492Y+1922532D01*
X-1604132Y+1922532D02*
X-1380612Y+1922532D01*
X-1345052Y+1922532D02*
X-1060572Y+1922532D01*
X-263012Y+1922532D02*
X-166492Y+1922532D01*
X-2914772Y+1927612D02*
X-2828412Y+1927612D01*
X-1593972Y+1927612D02*
X-1380612Y+1927612D01*
X-1334892Y+1927612D02*
X-1070732Y+1927612D01*
X-263012Y+1927612D02*
X-166492Y+1927612D01*
X-2914772Y+1932692D02*
X-2823332Y+1932692D01*
X-1593972Y+1932692D02*
X-1380612Y+1932692D01*
X-1334892Y+1932692D02*
X-1070732Y+1932692D01*
X-263012Y+1932692D02*
X-171572Y+1932692D01*
X-2909692Y+1937772D02*
X-2823332Y+1937772D01*
X-1588892Y+1937772D02*
X-1375532Y+1937772D01*
X-1334892Y+1937772D02*
X-1070732Y+1937772D01*
X-263012Y+1937772D02*
X-176652Y+1937772D01*
X-2904612Y+1942852D02*
X-2823332Y+1942852D01*
X-1583812Y+1942852D02*
X-1370452Y+1942852D01*
X-1334892Y+1942852D02*
X-1070732Y+1942852D01*
X-273172Y+1942852D02*
X-181732Y+1942852D01*
X-2904612Y+1947932D02*
X-2823332Y+1947932D01*
X-1578732Y+1947932D02*
X-1365372Y+1947932D01*
X-1334892Y+1947932D02*
X-1070732Y+1947932D01*
X-273172Y+1947932D02*
X-181732Y+1947932D01*
X-2904612Y+1953012D02*
X-2818252Y+1953012D01*
X-1573652Y+1953012D02*
X-1365372Y+1953012D01*
X-1324732Y+1953012D02*
X-1070732Y+1953012D01*
X-273172Y+1953012D02*
X-181732Y+1953012D01*
X-2904612Y+1958092D02*
X-2813172Y+1958092D01*
X-1568572Y+1958092D02*
X-1365372Y+1958092D01*
X-1324732Y+1958092D02*
X-1070732Y+1958092D01*
X-273172Y+1958092D02*
X-181732Y+1958092D01*
X-2899532Y+1963172D02*
X-2808092Y+1963172D01*
X-1563492Y+1963172D02*
X-1365372Y+1963172D01*
X-1324732Y+1963172D02*
X-1070732Y+1963172D01*
X-273172Y+1963172D02*
X-186812Y+1963172D01*
X-2894452Y+1968252D02*
X-2803012Y+1968252D01*
X-1558412Y+1968252D02*
X-1360292Y+1968252D01*
X-1324732Y+1968252D02*
X-1070732Y+1968252D01*
X-283332Y+1968252D02*
X-191892Y+1968252D01*
X-2889372Y+1973332D02*
X-2797932Y+1973332D01*
X-1558412Y+1973332D02*
X-1355212Y+1973332D01*
X-1324732Y+1973332D02*
X-1070732Y+1973332D01*
X-288412Y+1973332D02*
X-191892Y+1973332D01*
X-2889372Y+1978412D02*
X-2797932Y+1978412D01*
X-1548252Y+1978412D02*
X-1355212Y+1978412D01*
X-1324732Y+1978412D02*
X-1080892Y+1978412D01*
X-288412Y+1978412D02*
X-191892Y+1978412D01*
X-2889372Y+1983492D02*
X-2797932Y+1983492D01*
X-1548252Y+1983492D02*
X-1355212Y+1983492D01*
X-1324732Y+1983492D02*
X-1080892Y+1983492D01*
X-288412Y+1983492D02*
X-191892Y+1983492D01*
X-2889372Y+1988572D02*
X-2797932Y+1988572D01*
X-1543172Y+1988572D02*
X-1355212Y+1988572D01*
X-1324732Y+1988572D02*
X-1080892Y+1988572D01*
X-288412Y+1988572D02*
X-196972Y+1988572D01*
X-2879212Y+1993652D02*
X-2792852Y+1993652D01*
X-1533012Y+1993652D02*
X-1350132Y+1993652D01*
X-1324732Y+1993652D02*
X-1080892Y+1993652D01*
X-293492Y+1993652D02*
X-202052Y+1993652D01*
X-2879212Y+1998732D02*
X-2787772Y+1998732D01*
X-1533012Y+1998732D02*
X-1339972Y+1998732D01*
X-1324732Y+1998732D02*
X-1080892Y+1998732D01*
X-298572Y+1998732D02*
X-207132Y+1998732D01*
X-2879212Y+2003812D02*
X-2787772Y+2003812D01*
X-1527932Y+2003812D02*
X-1339972Y+2003812D01*
X-1314572Y+2003812D02*
X-1080892Y+2003812D01*
X-298572Y+2003812D02*
X-207132Y+2003812D01*
X-2879212Y+2008892D02*
X-2787772Y+2008892D01*
X-1522852Y+2008892D02*
X-1339972Y+2008892D01*
X-1309492Y+2008892D02*
X-1080892Y+2008892D01*
X-308732Y+2008892D02*
X-207132Y+2008892D01*
X-2879212Y+2013972D02*
X-2787772Y+2013972D01*
X-1517772Y+2013972D02*
X-1339972Y+2013972D01*
X-1309492Y+2013972D02*
X-1085972Y+2013972D01*
X-308732Y+2013972D02*
X-207132Y+2013972D01*
X-2869052Y+2019052D02*
X-2782692Y+2019052D01*
X-1512692Y+2019052D02*
X-1339972Y+2019052D01*
X-1309492Y+2019052D02*
X-1091052Y+2019052D01*
X-313812Y+2019052D02*
X-217292Y+2019052D01*
X-2869052Y+2024132D02*
X-2777612Y+2024132D01*
X-1507612Y+2024132D02*
X-1339972Y+2024132D01*
X-1309492Y+2024132D02*
X-1096132Y+2024132D01*
X-323972Y+2024132D02*
X-217292Y+2024132D01*
X-2869052Y+2029212D02*
X-2772532Y+2029212D01*
X-1502532Y+2029212D02*
X-1339972Y+2029212D01*
X-1309492Y+2029212D02*
X-1096132Y+2029212D01*
X-323972Y+2029212D02*
X-217292Y+2029212D01*
X-2869052Y+2034292D02*
X-2767452Y+2034292D01*
X-1497452Y+2034292D02*
X-1334892Y+2034292D01*
X-1309492Y+2034292D02*
X-1096132Y+2034292D01*
X-323972Y+2034292D02*
X-217292Y+2034292D01*
X-2863972Y+2039372D02*
X-2762372Y+2039372D01*
X-1497452Y+2039372D02*
X-1329812Y+2039372D01*
X-1309492Y+2039372D02*
X-1096132Y+2039372D01*
X-323972Y+2039372D02*
X-217292Y+2039372D01*
X-2858892Y+2044452D02*
X-2762372Y+2044452D01*
X-1487292Y+2044452D02*
X-1329812Y+2044452D01*
X-1309492Y+2044452D02*
X-1101212Y+2044452D01*
X-323972Y+2044452D02*
X-227452Y+2044452D01*
X-2853812Y+2049532D02*
X-2762372Y+2049532D01*
X-1482212Y+2049532D02*
X-1329812Y+2049532D01*
X-1309492Y+2049532D02*
X-1106292Y+2049532D01*
X-334132Y+2049532D02*
X-227452Y+2049532D01*
X-2853812Y+2054612D02*
X-2762372Y+2054612D01*
X-1482212Y+2054612D02*
X-1329812Y+2054612D01*
X-1309492Y+2054612D02*
X-1106292Y+2054612D01*
X-334132Y+2054612D02*
X-232532Y+2054612D01*
X-2843652Y+2059692D02*
X-2757292Y+2059692D01*
X-1472052Y+2059692D02*
X-1324732Y+2059692D01*
X-1314572Y+2059692D02*
X-1106292Y+2059692D01*
X-334132Y+2059692D02*
X-232532Y+2059692D01*
X-2843652Y+2064772D02*
X-2752212Y+2064772D01*
X-1472052Y+2064772D02*
X-1106292Y+2064772D01*
X-334132Y+2064772D02*
X-232532Y+2064772D01*
X-2843652Y+2069852D02*
X-2747132Y+2069852D01*
X-1466972Y+2069852D02*
X-1116452Y+2069852D01*
X-339212Y+2069852D02*
X-237612Y+2069852D01*
X-2843652Y+2074932D02*
X-2742052Y+2074932D01*
X-1461892Y+2074932D02*
X-1116452Y+2074932D01*
X-344292Y+2074932D02*
X-242692Y+2074932D01*
X-2843652Y+2080012D02*
X-2736972Y+2080012D01*
X-1456812Y+2080012D02*
X-1121532Y+2080012D01*
X-349372Y+2080012D02*
X-242692Y+2080012D01*
X-2833492Y+2085092D02*
X-2731892Y+2085092D01*
X-1451732Y+2085092D02*
X-1126612Y+2085092D01*
X-349372Y+2085092D02*
X-252852Y+2085092D01*
X-2828412Y+2090172D02*
X-2726812Y+2090172D01*
X-1446652Y+2090172D02*
X-1131692Y+2090172D01*
X-359532Y+2090172D02*
X-252852Y+2090172D01*
X-2828412Y+2095252D02*
X-2726812Y+2095252D01*
X-1446652Y+2095252D02*
X-1131692Y+2095252D01*
X-359532Y+2095252D02*
X-252852Y+2095252D01*
X-2828412Y+2100332D02*
X-2726812Y+2100332D01*
X-1446652Y+2100332D02*
X-1131692Y+2100332D01*
X-359532Y+2100332D02*
X-252852Y+2100332D01*
X-2828412Y+2105412D02*
X-2726812Y+2105412D01*
X-1446652Y+2105412D02*
X-1131692Y+2105412D01*
X-359532Y+2105412D02*
X-252852Y+2105412D01*
X-2823332Y+2110492D02*
X-2721732Y+2110492D01*
X-1436492Y+2110492D02*
X-1141852Y+2110492D01*
X-364612Y+2110492D02*
X-263012Y+2110492D01*
X-2818252Y+2115572D02*
X-2716652Y+2115572D01*
X-1436492Y+2115572D02*
X-1141852Y+2115572D01*
X-369692Y+2115572D02*
X-268092Y+2115572D01*
X-2818252Y+2120652D02*
X-2711572Y+2120652D01*
X-1431412Y+2120652D02*
X-1141852Y+2120652D01*
X-374772Y+2120652D02*
X-268092Y+2120652D01*
X-2808092Y+2125732D02*
X-2706492Y+2125732D01*
X-1426332Y+2125732D02*
X-1141852Y+2125732D01*
X-374772Y+2125732D02*
X-278252Y+2125732D01*
X-2808092Y+2130812D02*
X-2701412Y+2130812D01*
X-1421252Y+2130812D02*
X-1141852Y+2130812D01*
X-384932Y+2130812D02*
X-278252Y+2130812D01*
X-2803012Y+2135892D02*
X-2701412Y+2135892D01*
X-1416172Y+2135892D02*
X-1152012Y+2135892D01*
X-384932Y+2135892D02*
X-278252Y+2135892D01*
X-2803012Y+2140972D02*
X-2691252Y+2140972D01*
X-1411092Y+2140972D02*
X-1157092Y+2140972D01*
X-390012Y+2140972D02*
X-278252Y+2140972D01*
X-2803012Y+2146052D02*
X-2686172Y+2146052D01*
X-1411092Y+2146052D02*
X-1157092Y+2146052D01*
X-395092Y+2146052D02*
X-278252Y+2146052D01*
X-2797932Y+2151132D02*
X-2686172Y+2151132D01*
X-1400932Y+2151132D02*
X-1167252Y+2151132D01*
X-395092Y+2151132D02*
X-288412Y+2151132D01*
X-2792852Y+2156212D02*
X-2686172Y+2156212D01*
X-1395852Y+2156212D02*
X-1167252Y+2156212D01*
X-395092Y+2156212D02*
X-293492Y+2156212D01*
X-2792852Y+2161292D02*
X-2686172Y+2161292D01*
X-1395852Y+2161292D02*
X-1167252Y+2161292D01*
X-400172Y+2161292D02*
X-293492Y+2161292D01*
X-2792852Y+2166372D02*
X-2681092Y+2166372D01*
X-1385692Y+2166372D02*
X-1167252Y+2166372D01*
X-400172Y+2166372D02*
X-293492Y+2166372D01*
X-2792852Y+2171452D02*
X-2676012Y+2171452D01*
X-1385692Y+2171452D02*
X-1167252Y+2171452D01*
X-410332Y+2171452D02*
X-293492Y+2171452D01*
X-2787772Y+2176532D02*
X-2676012Y+2176532D01*
X-1385692Y+2176532D02*
X-1177412Y+2176532D01*
X-410332Y+2176532D02*
X-298572Y+2176532D01*
X-2782692Y+2181612D02*
X-2665852Y+2181612D01*
X-1385692Y+2181612D02*
X-1182492Y+2181612D01*
X-420492Y+2181612D02*
X-303652Y+2181612D01*
X-2777612Y+2186692D02*
X-2660772Y+2186692D01*
X-1385692Y+2186692D02*
X-1182492Y+2186692D01*
X-420492Y+2186692D02*
X-303652Y+2186692D01*
X-2772532Y+2191772D02*
X-2660772Y+2191772D01*
X-1375532Y+2191772D02*
X-1192652Y+2191772D01*
X-425572Y+2191772D02*
X-313812Y+2191772D01*
X-2767452Y+2196852D02*
X-2650612Y+2196852D01*
X-1375532Y+2196852D02*
X-1192652Y+2196852D01*
X-430652Y+2196852D02*
X-318892Y+2196852D01*
X-2762372Y+2201932D02*
X-2650612Y+2201932D01*
X-1370452Y+2201932D02*
X-1197732Y+2201932D01*
X-435732Y+2201932D02*
X-318892Y+2201932D01*
X-2757292Y+2207012D02*
X-2645532Y+2207012D01*
X-1370452Y+2207012D02*
X-1202812Y+2207012D01*
X-440812Y+2207012D02*
X-329052Y+2207012D01*
X-2757292Y+2212092D02*
X-2640452Y+2212092D01*
X-1370452Y+2212092D02*
X-1207892Y+2212092D01*
X-445892Y+2212092D02*
X-329052Y+2212092D01*
X-2757292Y+2217172D02*
X-2640452Y+2217172D01*
X-1365372Y+2217172D02*
X-1207892Y+2217172D01*
X-450972Y+2217172D02*
X-329052Y+2217172D01*
X-2757292Y+2222252D02*
X-2640452Y+2222252D01*
X-1360292Y+2222252D02*
X-1207892Y+2222252D01*
X-456052Y+2222252D02*
X-329052Y+2222252D01*
X-2752212Y+2227332D02*
X-2640452Y+2227332D01*
X-1360292Y+2227332D02*
X-1207892Y+2227332D01*
X-461132Y+2227332D02*
X-329052Y+2227332D01*
X-2747132Y+2232412D02*
X-2635372Y+2232412D01*
X-1360292Y+2232412D02*
X-1218052Y+2232412D01*
X-461132Y+2232412D02*
X-339212Y+2232412D01*
X-2742052Y+2237492D02*
X-2625212Y+2237492D01*
X-1360292Y+2237492D02*
X-1218052Y+2237492D01*
X-471292Y+2237492D02*
X-339212Y+2237492D01*
X-2736972Y+2242572D02*
X-2625212Y+2242572D01*
X-1360292Y+2242572D02*
X-1223132Y+2242572D01*
X-471292Y+2242572D02*
X-349372Y+2242572D01*
X-2731892Y+2247652D02*
X-2620132Y+2247652D01*
X-1360292Y+2247652D02*
X-1228212Y+2247652D01*
X-476372Y+2247652D02*
X-354452Y+2247652D01*
X-2731892Y+2252732D02*
X-2615052Y+2252732D01*
X-1360292Y+2252732D02*
X-1233292Y+2252732D01*
X-481452Y+2252732D02*
X-354452Y+2252732D01*
X-2721732Y+2257812D02*
X-2609972Y+2257812D01*
X-1350132Y+2257812D02*
X-1238372Y+2257812D01*
X-481452Y+2257812D02*
X-364612Y+2257812D01*
X-2721732Y+2262892D02*
X-2604892Y+2262892D01*
X-1350132Y+2262892D02*
X-1243452Y+2262892D01*
X-481452Y+2262892D02*
X-364612Y+2262892D01*
X-2716652Y+2267972D02*
X-2599812Y+2267972D01*
X-1350132Y+2267972D02*
X-1243452Y+2267972D01*
X-486532Y+2267972D02*
X-369692Y+2267972D01*
X-2706492Y+2273052D02*
X-2594732Y+2273052D01*
X-1350132Y+2273052D02*
X-1253612Y+2273052D01*
X-486532Y+2273052D02*
X-374772Y+2273052D01*
X-2706492Y+2278132D02*
X-2589652Y+2278132D01*
X-1350132Y+2278132D02*
X-1253612Y+2278132D01*
X-496692Y+2278132D02*
X-379852Y+2278132D01*
X-2706492Y+2283212D02*
X-2589652Y+2283212D01*
X-1350132Y+2283212D02*
X-1263772Y+2283212D01*
X-496692Y+2283212D02*
X-384932Y+2283212D01*
X-2706492Y+2288292D02*
X-2579492Y+2288292D01*
X-1350132Y+2288292D02*
X-1268852Y+2288292D01*
X-506852Y+2288292D02*
X-390012Y+2288292D01*
X-2706492Y+2293372D02*
X-2574412Y+2293372D01*
X-1350132Y+2293372D02*
X-1268852Y+2293372D01*
X-506852Y+2293372D02*
X-390012Y+2293372D01*
X-2696332Y+2298452D02*
X-2574412Y+2298452D01*
X-1350132Y+2298452D02*
X-1279012Y+2298452D01*
X-511932Y+2298452D02*
X-390012Y+2298452D01*
X-2696332Y+2303532D02*
X-2564252Y+2303532D01*
X-1350132Y+2303532D02*
X-1279012Y+2303532D01*
X-517012Y+2303532D02*
X-390012Y+2303532D01*
X-2691252Y+2308612D02*
X-2564252Y+2308612D01*
X-1350132Y+2308612D02*
X-1284092Y+2308612D01*
X-522092Y+2308612D02*
X-395092Y+2308612D01*
X-2681092Y+2313692D02*
X-2559172Y+2313692D01*
X-1350132Y+2313692D02*
X-1289172Y+2313692D01*
X-527172Y+2313692D02*
X-400172Y+2313692D01*
X-2681092Y+2318772D02*
X-2554092Y+2318772D01*
X-1350132Y+2318772D02*
X-1294252Y+2318772D01*
X-532252Y+2318772D02*
X-405252Y+2318772D01*
X-2676012Y+2323852D02*
X-2549012Y+2323852D01*
X-1350132Y+2323852D02*
X-1299332Y+2323852D01*
X-537332Y+2323852D02*
X-410332Y+2323852D01*
X-2670932Y+2328932D02*
X-2543932Y+2328932D01*
X-1350132Y+2328932D02*
X-1304412Y+2328932D01*
X-542412Y+2328932D02*
X-415412Y+2328932D01*
X-2665852Y+2334012D02*
X-2538852Y+2334012D01*
X-1350132Y+2334012D02*
X-1304412Y+2334012D01*
X-547492Y+2334012D02*
X-415412Y+2334012D01*
X-2660772Y+2339092D02*
X-2533772Y+2339092D01*
X-1350132Y+2339092D02*
X-1314572Y+2339092D01*
X-547492Y+2339092D02*
X-425572Y+2339092D01*
X-2655692Y+2344172D02*
X-2528692Y+2344172D01*
X-1350132Y+2344172D02*
X-1314572Y+2344172D01*
X-557652Y+2344172D02*
X-425572Y+2344172D01*
X-2650612Y+2349252D02*
X-2523612Y+2349252D01*
X-1350132Y+2349252D02*
X-1324732Y+2349252D01*
X-557652Y+2349252D02*
X-435732Y+2349252D01*
X-2645532Y+2354332D02*
X-2518532Y+2354332D01*
X-1350132Y+2354332D02*
X-1329812Y+2354332D01*
X-562732Y+2354332D02*
X-440812Y+2354332D01*
X-2645532Y+2359412D02*
X-2513452Y+2359412D01*
X-1350132Y+2359412D02*
X-1329812Y+2359412D01*
X-567812Y+2359412D02*
X-440812Y+2359412D01*
X-2635372Y+2364492D02*
X-2513452Y+2364492D01*
X-1350132Y+2364492D02*
X-1339972Y+2364492D01*
X-572892Y+2364492D02*
X-450972Y+2364492D01*
X-2635372Y+2369572D02*
X-2493132Y+2369572D01*
X-1350132Y+2369572D02*
X-1339972Y+2369572D01*
X-593212Y+2369572D02*
X-450972Y+2369572D01*
X-2630292Y+2374652D02*
X-2488052Y+2374652D01*
X-593212Y+2374652D02*
X-456052Y+2374652D01*
X-2620132Y+2379732D02*
X-2488052Y+2379732D01*
X-598292Y+2379732D02*
X-461132Y+2379732D01*
X-2620132Y+2384812D02*
X-2477892Y+2384812D01*
X-608452Y+2384812D02*
X-466212Y+2384812D01*
X-2615052Y+2389892D02*
X-2477892Y+2389892D01*
X-608452Y+2389892D02*
X-471292Y+2389892D01*
X-2609972Y+2394972D02*
X-2467732Y+2394972D01*
X-618612Y+2394972D02*
X-476372Y+2394972D01*
X-2604892Y+2400052D02*
X-2467732Y+2400052D01*
X-618612Y+2400052D02*
X-476372Y+2400052D01*
X-2599812Y+2405132D02*
X-2462652Y+2405132D01*
X-623692Y+2405132D02*
X-486532Y+2405132D01*
X-2594732Y+2410212D02*
X-2452492Y+2410212D01*
X-628772Y+2410212D02*
X-491612Y+2410212D01*
X-2589652Y+2415292D02*
X-2452492Y+2415292D01*
X-633852Y+2415292D02*
X-491612Y+2415292D01*
X-2584572Y+2420372D02*
X-2447412Y+2420372D01*
X-638932Y+2420372D02*
X-501772Y+2420372D01*
X-2584572Y+2425452D02*
X-2442332Y+2425452D01*
X-644012Y+2425452D02*
X-501772Y+2425452D01*
X-2574412Y+2430532D02*
X-2437252Y+2430532D01*
X-644012Y+2430532D02*
X-511932Y+2430532D01*
X-2569332Y+2435612D02*
X-2416932Y+2435612D01*
X-664332Y+2435612D02*
X-511932Y+2435612D01*
X-2569332Y+2440692D02*
X-2416932Y+2440692D01*
X-669412Y+2440692D02*
X-517012Y+2440692D01*
X-2559172Y+2445772D02*
X-2411852Y+2445772D01*
X-674492Y+2445772D02*
X-522092Y+2445772D01*
X-2559172Y+2450852D02*
X-2406772Y+2450852D01*
X-679572Y+2450852D02*
X-527172Y+2450852D01*
X-2554092Y+2455932D02*
X-2401692Y+2455932D01*
X-684652Y+2455932D02*
X-532252Y+2455932D01*
X-2549012Y+2461012D02*
X-2396612Y+2461012D01*
X-689732Y+2461012D02*
X-537332Y+2461012D01*
X-2543932Y+2466092D02*
X-2391532Y+2466092D01*
X-704972Y+2466092D02*
X-542412Y+2466092D01*
X-2538852Y+2471172D02*
X-2386452Y+2471172D01*
X-710052Y+2471172D02*
X-547492Y+2471172D01*
X-2533772Y+2476252D02*
X-2366132Y+2476252D01*
X-715132Y+2476252D02*
X-552572Y+2476252D01*
X-2528692Y+2481332D02*
X-2366132Y+2481332D01*
X-720212Y+2481332D02*
X-552572Y+2481332D01*
X-2523612Y+2486412D02*
X-2361052Y+2486412D01*
X-725292Y+2486412D02*
X-562732Y+2486412D01*
X-2523612Y+2491492D02*
X-2355972Y+2491492D01*
X-730372Y+2491492D02*
X-562732Y+2491492D01*
X-2513452Y+2496572D02*
X-2350892Y+2496572D01*
X-730372Y+2496572D02*
X-572892Y+2496572D01*
X-2508372Y+2501652D02*
X-2345812Y+2501652D01*
X-750692Y+2501652D02*
X-572892Y+2501652D01*
X-2508372Y+2506732D02*
X-2340732Y+2506732D01*
X-755772Y+2506732D02*
X-577972Y+2506732D01*
X-2498212Y+2511812D02*
X-2340732Y+2511812D01*
X-760852Y+2511812D02*
X-588132Y+2511812D01*
X-2498212Y+2516892D02*
X-2320412Y+2516892D01*
X-781172Y+2516892D02*
X-588132Y+2516892D01*
X-2493132Y+2521972D02*
X-2315332Y+2521972D01*
X-781172Y+2521972D02*
X-593212Y+2521972D01*
X-2488052Y+2527052D02*
X-2310252Y+2527052D01*
X-786252Y+2527052D02*
X-598292Y+2527052D01*
X-2482972Y+2532132D02*
X-2295012Y+2532132D01*
X-791332Y+2532132D02*
X-603372Y+2532132D01*
X-2462652Y+2537212D02*
X-2289932Y+2537212D01*
X-796412Y+2537212D02*
X-623692Y+2537212D01*
X-2462652Y+2542292D02*
X-2269612Y+2542292D01*
X-816732Y+2542292D02*
X-623692Y+2542292D01*
X-2457572Y+2547372D02*
X-2269612Y+2547372D01*
X-816732Y+2547372D02*
X-628772Y+2547372D01*
X-2447412Y+2552452D02*
X-2264532Y+2552452D01*
X-821812Y+2552452D02*
X-633852Y+2552452D01*
X-2447412Y+2557532D02*
X-2254372Y+2557532D01*
X-842132Y+2557532D02*
X-638932Y+2557532D01*
X-2442332Y+2562612D02*
X-2254372Y+2562612D01*
X-842132Y+2562612D02*
X-644012Y+2562612D01*
X-2437252Y+2567692D02*
X-2249292Y+2567692D01*
X-847212Y+2567692D02*
X-649092Y+2567692D01*
X-2432172Y+2572772D02*
X-2228972Y+2572772D01*
X-867532Y+2572772D02*
X-649092Y+2572772D01*
X-2411852Y+2577852D02*
X-2228972Y+2577852D01*
X-867532Y+2577852D02*
X-669412Y+2577852D01*
X-2411852Y+2582932D02*
X-2208652Y+2582932D01*
X-887852Y+2582932D02*
X-674492Y+2582932D01*
X-2406772Y+2588012D02*
X-2203572Y+2588012D01*
X-892932Y+2588012D02*
X-679572Y+2588012D01*
X-2401692Y+2593092D02*
X-2203572Y+2593092D01*
X-898012Y+2593092D02*
X-684652Y+2593092D01*
X-2396612Y+2598172D02*
X-2183252Y+2598172D01*
X-913252Y+2598172D02*
X-689732Y+2598172D01*
X-2391532Y+2603252D02*
X-2178172Y+2603252D01*
X-918332Y+2603252D02*
X-704972Y+2603252D01*
X-2386452Y+2608332D02*
X-2147692Y+2608332D01*
X-938652Y+2608332D02*
X-710052Y+2608332D01*
X-2381372Y+2613412D02*
X-2142612Y+2613412D01*
X-938652Y+2613412D02*
X-715132Y+2613412D01*
X-2361052Y+2618492D02*
X-2142612Y+2618492D01*
X-943732Y+2618492D02*
X-720212Y+2618492D01*
X-2361052Y+2623572D02*
X-2122292Y+2623572D01*
X-964052Y+2623572D02*
X-725292Y+2623572D01*
X-2345812Y+2628652D02*
X-2117212Y+2628652D01*
X-964052Y+2628652D02*
X-740532Y+2628652D01*
X-2335652Y+2633732D02*
X-2112132Y+2633732D01*
X-969132Y+2633732D02*
X-745612Y+2633732D01*
X-2335652Y+2638812D02*
X-2096892Y+2638812D01*
X-989452Y+2638812D02*
X-750692Y+2638812D01*
X-2325492Y+2643892D02*
X-2091812Y+2643892D01*
X-994532Y+2643892D02*
X-755772Y+2643892D01*
X-2325492Y+2648972D02*
X-2061332Y+2648972D01*
X-1025012Y+2648972D02*
X-760852Y+2648972D01*
X-2320412Y+2654052D02*
X-2056252Y+2654052D01*
X-1030092Y+2654052D02*
X-765932Y+2654052D01*
X-2300092Y+2659132D02*
X-2056252Y+2659132D01*
X-1030092Y+2659132D02*
X-786252Y+2659132D01*
X-2300092Y+2664212D02*
X-2035932Y+2664212D01*
X-1065652Y+2664212D02*
X-786252Y+2664212D01*
X-2279772Y+2669292D02*
X-2030852Y+2669292D01*
X-1065652Y+2669292D02*
X-806572Y+2669292D01*
X-2274692Y+2674372D02*
X-2025772Y+2674372D01*
X-1070732Y+2674372D02*
X-811652Y+2674372D01*
X-2274692Y+2679452D02*
X-1995292Y+2679452D01*
X-1101212Y+2679452D02*
X-811652Y+2679452D01*
X-2254372Y+2684532D02*
X-1995292Y+2684532D01*
X-1106292Y+2684532D02*
X-831972Y+2684532D01*
X-2249292Y+2689612D02*
X-1949572Y+2689612D01*
X-1136772Y+2689612D02*
X-837052Y+2689612D01*
X-2244212Y+2694692D02*
X-1944492Y+2694692D01*
X-1136772Y+2694692D02*
X-837052Y+2694692D01*
X-2228972Y+2699772D02*
X-1939412Y+2699772D01*
X-1141852Y+2699772D02*
X-847212Y+2699772D01*
X-2223892Y+2704852D02*
X-1908932Y+2704852D01*
X-1187572Y+2704852D02*
X-847212Y+2704852D01*
X-2203572Y+2709932D02*
X-1908932Y+2709932D01*
X-1187572Y+2709932D02*
X-867532Y+2709932D01*
X-2203572Y+2715012D02*
X-1853052Y+2715012D01*
X-1248532Y+2715012D02*
X-872612Y+2715012D01*
X-2198492Y+2720092D02*
X-1847972Y+2720092D01*
X-1248532Y+2720092D02*
X-872612Y+2720092D01*
X-2178172Y+2725172D02*
X-1842892Y+2725172D01*
X-1253612Y+2725172D02*
X-892932Y+2725172D01*
X-2178172Y+2730252D02*
X-1787012Y+2730252D01*
X-1273932Y+2730252D02*
X-898012Y+2730252D01*
X-2157852Y+2735332D02*
X-1787012Y+2735332D01*
X-1273932Y+2735332D02*
X-928492Y+2735332D01*
X-2152772Y+2740412D02*
X-1781932Y+2740412D01*
X-1279012Y+2740412D02*
X-933572Y+2740412D01*
X-2147692Y+2745492D02*
X-1685412Y+2745492D01*
X-1370452Y+2745492D02*
X-933572Y+2745492D01*
X-2132452Y+2750572D02*
X-1685412Y+2750572D01*
X-1375532Y+2750572D02*
X-953892Y+2750572D01*
X-2127372Y+2755652D02*
X-958972Y+2755652D01*
X-2122292Y+2760732D02*
X-958972Y+2760732D01*
X-2091812Y+2765812D02*
X-994532Y+2765812D01*
X-2086732Y+2770892D02*
X-994532Y+2770892D01*
X-2071492Y+2775972D02*
X-1014852Y+2775972D01*
X-2066412Y+2781052D02*
X-1019932Y+2781052D01*
X-2061332Y+2786132D02*
X-1019932Y+2786132D01*
X-2030852Y+2791212D02*
X-1055492Y+2791212D01*
X-2025772Y+2796292D02*
X-1055492Y+2796292D01*
X-2010532Y+2801372D02*
X-1075812Y+2801372D01*
X-2005452Y+2806452D02*
X-1080892Y+2806452D01*
X-2000372Y+2811532D02*
X-1080892Y+2811532D01*
X-1969892Y+2816612D02*
X-1126612Y+2816612D01*
X-1964812Y+2821692D02*
X-1131692Y+2821692D01*
X-1964812Y+2826772D02*
X-1131692Y+2826772D01*
X-1908932Y+2831852D02*
X-1177412Y+2831852D01*
X-1903852Y+2836932D02*
X-1182492Y+2836932D01*
X-1847972Y+2842012D02*
X-1238372Y+2842012D01*
X-1842892Y+2847092D02*
X-1243452Y+2847092D01*
X-1842892Y+2852172D02*
X-1243452Y+2852172D01*
X-1761612Y+2857252D02*
X-1314572Y+2857252D01*
X-1756532Y+2862332D02*
X-1314572Y+2862332D01*
X-1751452Y+2867412D02*
X-1319652Y+2867412D01*
X-1670172Y+2872492D02*
X-1400932Y+2872492D01*
X-1670172Y+2877572D02*
X-1406012Y+2877572D01*
M02*
