G04 PROTEUS GERBER X2 FILE*
%TF.GenerationSoftware,Labcenter,Proteus,8.13-SP0-Build31525*%
%TF.CreationDate,2025-07-06T18:18:02+00:00*%
%TF.FileFunction,AssemblyDrawing,Top*%
%TF.FilePolarity,Positive*%
%TF.Part,Single*%
%TF.SameCoordinates,{7c6f6ce9-c7c3-4c68-b218-349a6216ac96}*%
%FSLAX45Y45*%
%MOMM*%
G01*
%TA.AperFunction,Profile*%
%ADD71C,0.203200*%
%TA.AperFunction,Material*%
%ADD20C,0.203200*%
%ADD31C,0.812800*%
%ADD32C,0.033020*%
%ADD33C,0.671460*%
%ADD34C,0.496030*%
%ADD35C,0.030010*%
%ADD36C,0.047170*%
%ADD37C,0.791600*%
%ADD38C,0.116840*%
%ADD39C,0.050000*%
%ADD40C,0.800000*%
%ADD41C,1.259510*%
%ADD42C,0.340290*%
%ADD43C,0.711200*%
%ADD44C,0.529470*%
%TD.AperFunction*%
D71*
X-5000000Y-5000000D02*
X+5000000Y-5000000D01*
X+5000000Y+5000000D01*
X-5000000Y+5000000D01*
X-5000000Y-5000000D01*
D20*
X-2701160Y+4302840D02*
X-2172840Y+4302840D01*
X-2172840Y+4577160D01*
X-2701160Y+4577160D01*
X-2701160Y+4302840D01*
D31*
X-2310000Y+4440000D02*
X-2310000Y+4440000D01*
D32*
X-2674490Y+4433396D02*
X-2670776Y+4430094D01*
X-2655917Y+4430094D01*
X-2652202Y+4433396D01*
X-2652202Y+4436698D01*
X-2655917Y+4440000D01*
X-2670776Y+4440000D01*
X-2674490Y+4443302D01*
X-2674490Y+4446604D01*
X-2670776Y+4449906D01*
X-2655917Y+4449906D01*
X-2652202Y+4446604D01*
X-2644772Y+4443302D02*
X-2637343Y+4449906D01*
X-2629913Y+4449906D01*
X-2622484Y+4443302D01*
X-2622484Y+4436698D01*
X-2629913Y+4430094D01*
X-2637343Y+4430094D01*
X-2644772Y+4436698D01*
X-2644772Y+4443302D01*
X-2615054Y+4449906D02*
X-2615054Y+4430094D01*
X-2592766Y+4430094D01*
X-2585336Y+4430094D02*
X-2585336Y+4443302D01*
X-2577907Y+4449906D01*
X-2570477Y+4449906D01*
X-2563048Y+4443302D01*
X-2563048Y+4430094D01*
X-2585336Y+4436698D02*
X-2563048Y+4436698D01*
X-2555618Y+4426792D02*
X-2533330Y+4426792D01*
X-2525900Y+4430094D02*
X-2525900Y+4449906D01*
X-2507327Y+4449906D01*
X-2503612Y+4446604D01*
X-2503612Y+4443302D01*
X-2507327Y+4440000D01*
X-2525900Y+4440000D01*
X-2496182Y+4430094D02*
X-2496182Y+4443302D01*
X-2488753Y+4449906D01*
X-2481323Y+4449906D01*
X-2473894Y+4443302D01*
X-2473894Y+4430094D01*
X-2496182Y+4436698D02*
X-2473894Y+4436698D01*
X-2466464Y+4430094D02*
X-2466464Y+4449906D01*
X-2444176Y+4430094D01*
X-2444176Y+4449906D01*
X-2414458Y+4430094D02*
X-2436746Y+4430094D01*
X-2436746Y+4449906D01*
X-2414458Y+4449906D01*
X-2436746Y+4440000D02*
X-2421887Y+4440000D01*
X-2407028Y+4449906D02*
X-2407028Y+4430094D01*
X-2384740Y+4430094D01*
D20*
X-4600160Y+789840D02*
X-2859840Y+789840D01*
X-2859840Y+3610160D01*
X-4600160Y+3610160D01*
X-4600160Y+789840D01*
D31*
X-3030000Y+3350000D02*
X-3030000Y+3350000D01*
D33*
X-3528560Y+1143122D02*
X-3931439Y+1143122D01*
X-3931439Y+1520821D01*
X-3864293Y+1596361D01*
X-3797146Y+1596361D01*
X-3730000Y+1520821D01*
X-3662853Y+1596361D01*
X-3595706Y+1596361D01*
X-3528560Y+1520821D01*
X-3528560Y+1143122D01*
X-3730000Y+1143122D02*
X-3730000Y+1520821D01*
X-3528560Y+1747441D02*
X-3931439Y+1747441D01*
X-3931439Y+2125140D01*
X-3864293Y+2200680D01*
X-3797146Y+2200680D01*
X-3730000Y+2125140D01*
X-3730000Y+1747441D01*
X-3797146Y+2502839D02*
X-3931439Y+2653919D01*
X-3528560Y+2653919D01*
D20*
X-2520160Y+789840D02*
X-779840Y+789840D01*
X-779840Y+3610160D01*
X-2520160Y+3610160D01*
X-2520160Y+789840D01*
D31*
X-950000Y+3350000D02*
X-950000Y+3350000D01*
D33*
X-1448560Y+1143122D02*
X-1851439Y+1143122D01*
X-1851439Y+1520821D01*
X-1784293Y+1596361D01*
X-1717146Y+1596361D01*
X-1650000Y+1520821D01*
X-1582853Y+1596361D01*
X-1515706Y+1596361D01*
X-1448560Y+1520821D01*
X-1448560Y+1143122D01*
X-1650000Y+1143122D02*
X-1650000Y+1520821D01*
X-1448560Y+1747441D02*
X-1851439Y+1747441D01*
X-1851439Y+2125140D01*
X-1784293Y+2200680D01*
X-1717146Y+2200680D01*
X-1650000Y+2125140D01*
X-1650000Y+1747441D01*
X-1784293Y+2427299D02*
X-1851439Y+2502839D01*
X-1851439Y+2729459D01*
X-1784293Y+2804999D01*
X-1717146Y+2804999D01*
X-1650000Y+2729459D01*
X-1650000Y+2502839D01*
X-1582853Y+2427299D01*
X-1448560Y+2427299D01*
X-1448560Y+2804999D01*
D20*
X+999840Y-190160D02*
X+4620160Y-190160D01*
X+4620160Y+1530160D01*
X+999840Y+1530160D01*
X+999840Y-190160D01*
D31*
X+1285000Y+995000D02*
X+1285000Y+995000D01*
D34*
X+1633613Y+521190D02*
X+1633613Y+818810D01*
X+1912631Y+818810D01*
X+1968434Y+769207D01*
X+1968434Y+719603D01*
X+1912631Y+670000D01*
X+1968434Y+620397D01*
X+1968434Y+570793D01*
X+1912631Y+521190D01*
X+1633613Y+521190D01*
X+1633613Y+670000D02*
X+1912631Y+670000D01*
X+2080042Y+719603D02*
X+2191649Y+818810D01*
X+2303256Y+818810D01*
X+2414863Y+719603D01*
X+2414863Y+620397D01*
X+2303256Y+521190D01*
X+2191649Y+521190D01*
X+2080042Y+620397D01*
X+2080042Y+719603D01*
X+2526471Y+719603D02*
X+2638078Y+818810D01*
X+2749685Y+818810D01*
X+2861292Y+719603D01*
X+2861292Y+620397D01*
X+2749685Y+521190D01*
X+2638078Y+521190D01*
X+2526471Y+620397D01*
X+2526471Y+719603D01*
X+2972900Y+570793D02*
X+3028703Y+521190D01*
X+3251918Y+521190D01*
X+3307721Y+570793D01*
X+3307721Y+620397D01*
X+3251918Y+670000D01*
X+3028703Y+670000D01*
X+2972900Y+719603D01*
X+2972900Y+769207D01*
X+3028703Y+818810D01*
X+3251918Y+818810D01*
X+3307721Y+769207D01*
X+3419329Y+818810D02*
X+3754150Y+818810D01*
X+3586739Y+818810D02*
X+3586739Y+521190D01*
X+3977365Y+719603D02*
X+4088972Y+818810D01*
X+4088972Y+521190D01*
D20*
X+772840Y+4302840D02*
X+1301160Y+4302840D01*
X+1301160Y+4577160D01*
X+772840Y+4577160D01*
X+772840Y+4302840D01*
D31*
X+910000Y+4440000D02*
X+910000Y+4440000D01*
D35*
X+977312Y+4433996D02*
X+980689Y+4430994D01*
X+994197Y+4430994D01*
X+997574Y+4433996D01*
X+997574Y+4436998D01*
X+994197Y+4440000D01*
X+980689Y+4440000D01*
X+977312Y+4443001D01*
X+977312Y+4446003D01*
X+980689Y+4449005D01*
X+994197Y+4449005D01*
X+997574Y+4446003D01*
X+1004328Y+4443001D02*
X+1011082Y+4449005D01*
X+1017836Y+4449005D01*
X+1024590Y+4443001D01*
X+1024590Y+4436998D01*
X+1017836Y+4430994D01*
X+1011082Y+4430994D01*
X+1004328Y+4436998D01*
X+1004328Y+4443001D01*
X+1034721Y+4449005D02*
X+1048229Y+4449005D01*
X+1041475Y+4449005D02*
X+1041475Y+4430994D01*
X+1034721Y+4430994D02*
X+1048229Y+4430994D01*
X+1058360Y+4449005D02*
X+1058360Y+4430994D01*
X+1078622Y+4430994D01*
X+1085376Y+4427992D02*
X+1105638Y+4427992D01*
X+1112392Y+4433996D02*
X+1115769Y+4430994D01*
X+1129277Y+4430994D01*
X+1132654Y+4433996D01*
X+1132654Y+4436998D01*
X+1129277Y+4440000D01*
X+1115769Y+4440000D01*
X+1112392Y+4443001D01*
X+1112392Y+4446003D01*
X+1115769Y+4449005D01*
X+1129277Y+4449005D01*
X+1132654Y+4446003D01*
X+1159670Y+4430994D02*
X+1139408Y+4430994D01*
X+1139408Y+4449005D01*
X+1159670Y+4449005D01*
X+1139408Y+4440000D02*
X+1152916Y+4440000D01*
X+1166424Y+4430994D02*
X+1166424Y+4449005D01*
X+1186686Y+4430994D01*
X+1186686Y+4449005D01*
X+1193440Y+4433996D02*
X+1196817Y+4430994D01*
X+1210325Y+4430994D01*
X+1213702Y+4433996D01*
X+1213702Y+4436998D01*
X+1210325Y+4440000D01*
X+1196817Y+4440000D01*
X+1193440Y+4443001D01*
X+1193440Y+4446003D01*
X+1196817Y+4449005D01*
X+1210325Y+4449005D01*
X+1213702Y+4446003D01*
X+1220456Y+4443001D02*
X+1227210Y+4449005D01*
X+1233964Y+4449005D01*
X+1240718Y+4443001D01*
X+1240718Y+4436998D01*
X+1233964Y+4430994D01*
X+1227210Y+4430994D01*
X+1220456Y+4436998D01*
X+1220456Y+4443001D01*
X+1247472Y+4430994D02*
X+1247472Y+4449005D01*
X+1264357Y+4449005D01*
X+1267734Y+4446003D01*
X+1267734Y+4443001D01*
X+1264357Y+4440000D01*
X+1247472Y+4440000D01*
X+1264357Y+4440000D02*
X+1267734Y+4436998D01*
X+1267734Y+4430994D01*
D20*
X-967160Y+4302840D02*
X-438840Y+4302840D01*
X-438840Y+4577160D01*
X-967160Y+4577160D01*
X-967160Y+4302840D01*
D31*
X-830000Y+4440000D02*
X-830000Y+4440000D01*
D36*
X-762685Y+4425849D02*
X-762685Y+4454151D01*
X-736152Y+4454151D01*
X-730846Y+4449434D01*
X-730846Y+4444717D01*
X-736152Y+4440000D01*
X-730846Y+4435283D01*
X-730846Y+4430566D01*
X-736152Y+4425849D01*
X-762685Y+4425849D01*
X-762685Y+4440000D02*
X-736152Y+4440000D01*
X-720232Y+4425849D02*
X-720232Y+4444717D01*
X-709619Y+4454151D01*
X-699006Y+4454151D01*
X-688393Y+4444717D01*
X-688393Y+4425849D01*
X-720232Y+4435283D02*
X-688393Y+4435283D01*
X-677779Y+4454151D02*
X-645940Y+4454151D01*
X-661860Y+4454151D02*
X-661860Y+4425849D01*
X-635326Y+4454151D02*
X-603487Y+4454151D01*
X-619407Y+4454151D02*
X-619407Y+4425849D01*
X-561034Y+4425849D02*
X-592873Y+4425849D01*
X-592873Y+4454151D01*
X-561034Y+4454151D01*
X-592873Y+4440000D02*
X-571647Y+4440000D01*
X-550420Y+4425849D02*
X-550420Y+4454151D01*
X-523887Y+4454151D01*
X-518581Y+4449434D01*
X-518581Y+4444717D01*
X-523887Y+4440000D01*
X-550420Y+4440000D01*
X-523887Y+4440000D02*
X-518581Y+4435283D01*
X-518581Y+4425849D01*
X-476128Y+4454151D02*
X-507967Y+4425849D01*
X-507967Y+4454151D02*
X-492048Y+4440000D01*
D20*
X+184840Y+2199840D02*
X+4615160Y+2199840D01*
X+4615160Y+3600160D01*
X+184840Y+3600160D01*
X+184840Y+2199840D01*
D31*
X+325000Y+3281000D02*
X+325000Y+3281000D01*
D37*
X+709300Y+2662520D02*
X+709300Y+3137480D01*
X+1154575Y+3137480D01*
X+1243630Y+3058320D01*
X+1243630Y+2979160D01*
X+1154575Y+2900000D01*
X+709300Y+2900000D01*
X+1154575Y+2900000D02*
X+1243630Y+2820840D01*
X+1243630Y+2662520D01*
X+1421740Y+2741680D02*
X+1510795Y+2662520D01*
X+1867015Y+2662520D01*
X+1956070Y+2741680D01*
X+1956070Y+2820840D01*
X+1867015Y+2900000D01*
X+1510795Y+2900000D01*
X+1421740Y+2979160D01*
X+1421740Y+3058320D01*
X+1510795Y+3137480D01*
X+1867015Y+3137480D01*
X+1956070Y+3058320D01*
X+2668510Y+2820840D02*
X+2134180Y+2820840D01*
X+2490400Y+3137480D01*
X+2490400Y+2662520D01*
X+3024730Y+2900000D02*
X+2935675Y+2979160D01*
X+2935675Y+3058320D01*
X+3024730Y+3137480D01*
X+3291895Y+3137480D01*
X+3380950Y+3058320D01*
X+3380950Y+2979160D01*
X+3291895Y+2900000D01*
X+3024730Y+2900000D01*
X+2935675Y+2820840D01*
X+2935675Y+2741680D01*
X+3024730Y+2662520D01*
X+3291895Y+2662520D01*
X+3380950Y+2741680D01*
X+3380950Y+2820840D01*
X+3291895Y+2900000D01*
X+4093390Y+3137480D02*
X+3648115Y+3137480D01*
X+3648115Y+2979160D01*
X+4004335Y+2979160D01*
X+4093390Y+2900000D01*
X+4093390Y+2741680D01*
X+4004335Y+2662520D01*
X+3737170Y+2662520D01*
X+3648115Y+2741680D01*
D20*
X+2212840Y+4302840D02*
X+2995160Y+4302840D01*
X+2995160Y+4577160D01*
X+2212840Y+4577160D01*
X+2212840Y+4302840D01*
D31*
X+2858000Y+4440000D02*
X+2858000Y+4440000D01*
D38*
X+2252210Y+4404948D02*
X+2252210Y+4475052D01*
X+2304788Y+4475052D01*
X+2331077Y+4451684D01*
X+2331077Y+4428316D01*
X+2304788Y+4404948D01*
X+2252210Y+4404948D01*
X+2357366Y+4404948D02*
X+2357366Y+4475052D01*
X+2436233Y+4475052D02*
X+2436233Y+4404948D01*
X+2357366Y+4440000D02*
X+2436233Y+4440000D01*
X+2462522Y+4475052D02*
X+2541389Y+4475052D01*
X+2501955Y+4475052D02*
X+2501955Y+4404948D01*
X+2593967Y+4451684D02*
X+2620256Y+4475052D01*
X+2620256Y+4404948D01*
X+2699123Y+4451684D02*
X+2725412Y+4475052D01*
X+2725412Y+4404948D01*
D39*
X-897000Y-4672512D02*
X-897000Y+472512D01*
X-3798000Y+472512D01*
X-3798000Y-4672512D01*
X-897000Y-4672512D01*
D40*
X-1080000Y-3652000D02*
X-1080000Y-3652000D01*
D41*
X-2082396Y-2950172D02*
X-2082396Y-3800344D01*
X-2838105Y-3800344D01*
X-2838105Y-2950172D01*
X-2460250Y-3800344D02*
X-2460250Y-3233563D01*
X-2208347Y-2666781D02*
X-2082396Y-2525086D01*
X-2082396Y-1958305D01*
X-2208347Y-1816609D01*
X-2334299Y-1816609D01*
X-2460250Y-1958305D01*
X-2460250Y-2525086D01*
X-2586202Y-2666781D01*
X-2712153Y-2666781D01*
X-2838105Y-2525086D01*
X-2838105Y-1958305D01*
X-2712153Y-1816609D01*
X-2082396Y-1533218D02*
X-2838105Y-1533218D01*
X-2838105Y-824742D01*
X-2712153Y-683046D01*
X-2586202Y-683046D01*
X-2460250Y-824742D01*
X-2460250Y-1533218D01*
D20*
X-370160Y-200160D02*
X+710160Y-200160D01*
X+710160Y+1840160D01*
X-370160Y+1840160D01*
X-370160Y-200160D01*
D31*
X-211000Y+1720000D02*
X-211000Y+1720000D01*
D42*
X+272089Y-26067D02*
X+67911Y-26067D01*
X+67911Y+165349D01*
X+101941Y+203633D01*
X+135970Y+203633D01*
X+170000Y+165349D01*
X+204030Y+203633D01*
X+238059Y+203633D01*
X+272089Y+165349D01*
X+272089Y-26067D01*
X+170000Y-26067D02*
X+170000Y+165349D01*
X+67911Y+280200D02*
X+238059Y+280200D01*
X+272089Y+318483D01*
X+272089Y+471616D01*
X+238059Y+509900D01*
X+67911Y+509900D01*
X+238059Y+816167D02*
X+272089Y+777883D01*
X+272089Y+663033D01*
X+204030Y+586467D01*
X+135970Y+586467D01*
X+67911Y+663033D01*
X+67911Y+777883D01*
X+101941Y+816167D01*
X+67911Y+892734D02*
X+272089Y+892734D01*
X+67911Y+1122434D02*
X+170000Y+1007584D01*
X+272089Y+1122434D01*
X+170000Y+892734D02*
X+170000Y+1007584D01*
X+135970Y+1275567D02*
X+67911Y+1352134D01*
X+272089Y+1352134D01*
D20*
X+1889840Y-3466160D02*
X+4610160Y-3466160D01*
X+4610160Y-645840D01*
X+1889840Y-645840D01*
X+1889840Y-3466160D01*
D43*
X+2000000Y-1456000D02*
X+2000000Y-1456000D01*
D44*
X+3428755Y-2651662D02*
X+3481703Y-2711228D01*
X+3481703Y-2889926D01*
X+3375808Y-3009058D01*
X+3269912Y-3009058D01*
X+3164017Y-2889926D01*
X+3164017Y-2711228D01*
X+3216965Y-2651662D01*
X+3164017Y-2532529D02*
X+3481703Y-2532529D01*
X+3481703Y-2175133D01*
X+3164017Y-2056000D02*
X+3481703Y-2056000D01*
X+3164017Y-1698604D02*
X+3322860Y-1877302D01*
X+3481703Y-1698604D01*
X+3322860Y-2056000D02*
X+3322860Y-1877302D01*
X+3269912Y-1460339D02*
X+3164017Y-1341207D01*
X+3481703Y-1341207D01*
M02*
