G04 PROTEUS GERBER X2 FILE*
%TF.GenerationSoftware,Labcenter,Proteus,8.13-SP0-Build31525*%
%TF.CreationDate,2025-07-06T18:18:02+00:00*%
%TF.FileFunction,Copper,L2,Bot*%
%TF.FilePolarity,Positive*%
%TF.Part,Single*%
%TF.SameCoordinates,{7c6f6ce9-c7c3-4c68-b218-349a6216ac96}*%
%FSLAX45Y45*%
%MOMM*%
G01*
%TA.AperFunction,Conductor*%
%ADD11C,1.016000*%
%ADD10C,0.889000*%
%TA.AperFunction,ViaPad*%
%ADD12C,0.762000*%
%TA.AperFunction,Conductor*%
%ADD13C,0.762000*%
%TA.AperFunction,ComponentPad*%
%ADD14R,2.032000X2.032000*%
%TA.AperFunction,ComponentPad*%
%ADD15C,2.032000*%
%TA.AperFunction,ComponentPad*%
%ADD16R,2.000000X2.000000*%
%ADD17C,2.000000*%
%ADD18C,1.524000*%
%TA.AperFunction,ComponentPad*%
%ADD19R,1.778000X1.778000*%
%ADD70C,1.778000*%
%TA.AperFunction,Profile*%
%ADD71C,0.203200*%
%TD.AperFunction*%
G36*
X+3936500Y+3973698D02*
X+3973698Y+3936500D01*
X+4790000Y+3936500D01*
X+4790000Y-3936500D01*
X+3973698Y-3936500D01*
X+3936500Y-3973698D01*
X+3936500Y-4800000D01*
X-3936500Y-4800000D01*
X-3936500Y-4753302D01*
X-3926302Y-4763500D01*
X-3273698Y-4763500D01*
X-3236500Y-4726302D01*
X-3236500Y-4173698D01*
X-3273698Y-4136500D01*
X-3926302Y-4136500D01*
X-3936500Y-4146698D01*
X-3936500Y-4023698D01*
X-3973698Y-3986500D01*
X-4810000Y-3986500D01*
X-4810000Y+2548400D01*
X-1907916Y+2548400D01*
X-1848400Y+2607916D01*
X-1848400Y+4800000D01*
X+3936500Y+4800000D01*
X+3936500Y+3973698D01*
G37*
%LPC*%
G36*
X-736500Y-4173698D02*
X-736500Y-4726302D01*
X-773698Y-4763500D01*
X-1426302Y-4763500D01*
X-1463500Y-4726302D01*
X-1463500Y-4173698D01*
X-1426302Y-4136500D01*
X-773698Y-4136500D01*
X-736500Y-4173698D01*
G37*
G36*
X-3236500Y+506302D02*
X-3236500Y-26302D01*
X-3273698Y-63500D01*
X-3456501Y-63500D01*
X-3456501Y-163724D01*
X-3515777Y-223000D01*
X-3456501Y-282276D01*
X-3456501Y-417724D01*
X-3515777Y-477000D01*
X-3456501Y-536276D01*
X-3456501Y-671724D01*
X-3515777Y-731000D01*
X-3456501Y-790276D01*
X-3456501Y-925724D01*
X-3515777Y-985000D01*
X-3456501Y-1044276D01*
X-3456501Y-1179724D01*
X-3515777Y-1239000D01*
X-3456501Y-1298276D01*
X-3456501Y-1433724D01*
X-3515777Y-1493000D01*
X-3456501Y-1552276D01*
X-3456501Y-1687724D01*
X-3515777Y-1747000D01*
X-3456501Y-1806276D01*
X-3456501Y-1941724D01*
X-3515777Y-2001000D01*
X-3456501Y-2060276D01*
X-3456501Y-2195724D01*
X-3515777Y-2255000D01*
X-3456501Y-2314276D01*
X-3456501Y-2449724D01*
X-3515777Y-2509000D01*
X-3456501Y-2568276D01*
X-3456501Y-2703724D01*
X-3515777Y-2763000D01*
X-3456501Y-2822276D01*
X-3456501Y-2957724D01*
X-3515777Y-3017000D01*
X-3456501Y-3076276D01*
X-3456501Y-3211724D01*
X-3515777Y-3271000D01*
X-3456501Y-3330276D01*
X-3456501Y-3465724D01*
X-3515777Y-3525000D01*
X-3456501Y-3584276D01*
X-3456501Y-3719724D01*
X-3552276Y-3815499D01*
X-3687724Y-3815499D01*
X-3783499Y-3719724D01*
X-3783499Y-3584276D01*
X-3724223Y-3525000D01*
X-3783499Y-3465724D01*
X-3783499Y-3330276D01*
X-3724223Y-3271000D01*
X-3783499Y-3211724D01*
X-3783499Y-3076276D01*
X-3724223Y-3017000D01*
X-3783499Y-2957724D01*
X-3783499Y-2822276D01*
X-3724223Y-2763000D01*
X-3783499Y-2703724D01*
X-3783499Y-2568276D01*
X-3724223Y-2509000D01*
X-3783499Y-2449724D01*
X-3783499Y-2314276D01*
X-3724223Y-2255000D01*
X-3783499Y-2195724D01*
X-3783499Y-2060276D01*
X-3724223Y-2001000D01*
X-3783499Y-1941724D01*
X-3783499Y-1806276D01*
X-3724223Y-1747000D01*
X-3783499Y-1687724D01*
X-3783499Y-1552276D01*
X-3724223Y-1493000D01*
X-3783499Y-1433724D01*
X-3783499Y-1298276D01*
X-3724223Y-1239000D01*
X-3783499Y-1179724D01*
X-3783499Y-1044276D01*
X-3724223Y-985000D01*
X-3783499Y-925724D01*
X-3783499Y-790276D01*
X-3724223Y-731000D01*
X-3783499Y-671724D01*
X-3783499Y-536276D01*
X-3724223Y-477000D01*
X-3783499Y-417724D01*
X-3783499Y-282276D01*
X-3724223Y-223000D01*
X-3783499Y-163724D01*
X-3783499Y-63500D01*
X-3926302Y-63500D01*
X-3963500Y-26302D01*
X-3963500Y+506302D01*
X-3926302Y+543500D01*
X-3273698Y+543500D01*
X-3236500Y+506302D01*
G37*
G36*
X-736500Y+466302D02*
X-736500Y-26302D01*
X-773698Y-63500D01*
X-916501Y-63500D01*
X-916501Y-163724D01*
X-975777Y-223000D01*
X-963076Y-235701D01*
X-512658Y-235700D01*
X+277346Y-1025704D01*
X+277346Y-1884690D01*
X+210391Y-1951645D01*
X+115703Y-1951645D01*
X+48748Y-1884690D01*
X+48748Y-1120390D01*
X-607346Y-464296D01*
X-963075Y-464298D01*
X-975777Y-477000D01*
X-916501Y-536276D01*
X-916501Y-671724D01*
X-975777Y-731000D01*
X-916501Y-790276D01*
X-916501Y-925724D01*
X-975777Y-985000D01*
X-916501Y-1044276D01*
X-916501Y-1179724D01*
X-975777Y-1239000D01*
X-916501Y-1298276D01*
X-916501Y-1433724D01*
X-975777Y-1493000D01*
X-916501Y-1552276D01*
X-916501Y-1687724D01*
X-975777Y-1747000D01*
X-916501Y-1806276D01*
X-916501Y-1941724D01*
X-975777Y-2001000D01*
X-916501Y-2060276D01*
X-916501Y-2195724D01*
X-975777Y-2255000D01*
X-963076Y-2267701D01*
X+39264Y-2267701D01*
X+1474492Y-832473D01*
X+1569180Y-832473D01*
X+1636134Y-899427D01*
X+1636134Y-994115D01*
X+133950Y-2496299D01*
X-963076Y-2496299D01*
X-975777Y-2509000D01*
X-916501Y-2568276D01*
X-916501Y-2703724D01*
X-975777Y-2763000D01*
X-916501Y-2822276D01*
X-916501Y-2957724D01*
X-975777Y-3017000D01*
X-916501Y-3076276D01*
X-916501Y-3211724D01*
X-975777Y-3271000D01*
X-916501Y-3330276D01*
X-916501Y-3465724D01*
X-939278Y-3488501D01*
X-916501Y-3488501D01*
X-916501Y-3537701D01*
X-449343Y-3537701D01*
X+1492657Y-1595701D01*
X+1847601Y-1595701D01*
X+1847601Y-1303601D01*
X+2152399Y-1303601D01*
X+2152399Y-1608399D01*
X+2113924Y-1608399D01*
X+2152399Y-1646874D01*
X+2152399Y-1773126D01*
X+2088525Y-1837000D01*
X+2152399Y-1900874D01*
X+2152399Y-2027126D01*
X+2088525Y-2091000D01*
X+2152399Y-2154874D01*
X+2152399Y-2281126D01*
X+2088525Y-2345000D01*
X+2152399Y-2408874D01*
X+2152399Y-2535126D01*
X+2063126Y-2624399D01*
X+1936874Y-2624399D01*
X+1847601Y-2535126D01*
X+1847601Y-2408874D01*
X+1911475Y-2345000D01*
X+1847601Y-2281126D01*
X+1847601Y-2154874D01*
X+1911475Y-2091000D01*
X+1847601Y-2027126D01*
X+1847601Y-1900874D01*
X+1911475Y-1837000D01*
X+1898774Y-1824299D01*
X+1587343Y-1824299D01*
X-354657Y-3766299D01*
X-916501Y-3766299D01*
X-916501Y-3815499D01*
X-1243499Y-3815499D01*
X-1243499Y-3488501D01*
X-1220722Y-3488501D01*
X-1243499Y-3465724D01*
X-1243499Y-3330276D01*
X-1184223Y-3271000D01*
X-1243499Y-3211724D01*
X-1243499Y-3076276D01*
X-1184223Y-3017000D01*
X-1243499Y-2957724D01*
X-1243499Y-2822276D01*
X-1184223Y-2763000D01*
X-1243499Y-2703724D01*
X-1243499Y-2568276D01*
X-1184223Y-2509000D01*
X-1243499Y-2449724D01*
X-1243499Y-2314276D01*
X-1184223Y-2255000D01*
X-1243499Y-2195724D01*
X-1243499Y-2060276D01*
X-1184223Y-2001000D01*
X-1243499Y-1941724D01*
X-1243499Y-1806276D01*
X-1184223Y-1747000D01*
X-1243499Y-1687724D01*
X-1243499Y-1552276D01*
X-1184223Y-1493000D01*
X-1243499Y-1433724D01*
X-1243499Y-1298276D01*
X-1184223Y-1239000D01*
X-1243499Y-1179724D01*
X-1243499Y-1044276D01*
X-1184223Y-985000D01*
X-1243499Y-925724D01*
X-1243499Y-790276D01*
X-1184223Y-731000D01*
X-1243499Y-671724D01*
X-1243499Y-536276D01*
X-1184223Y-477000D01*
X-1243499Y-417724D01*
X-1243499Y-282276D01*
X-1184223Y-223000D01*
X-1243499Y-163724D01*
X-1243499Y-63500D01*
X-1526302Y-63500D01*
X-1563500Y-26302D01*
X-1563500Y+466302D01*
X-1526302Y+503500D01*
X-773698Y+503500D01*
X-736500Y+466302D01*
G37*
G36*
X-2538084Y+1784386D02*
X-2536231Y+1784386D01*
X-2469276Y+1717431D01*
X-2469276Y+1622743D01*
X-2536231Y+1555788D01*
X-2632771Y+1555789D01*
X-2638328Y+1561346D01*
X-3503012Y+1561346D01*
X-4010901Y+1053457D01*
X-4010901Y+884901D01*
X-4595099Y+884901D01*
X-4595099Y+1215099D01*
X-4172543Y+1215099D01*
X-3597698Y+1789944D01*
X-2543642Y+1789944D01*
X-2538084Y+1784386D01*
G37*
G36*
X+716099Y+1574298D02*
X+3490456Y+1574298D01*
X+3950062Y+1114692D01*
X+4169901Y+1114692D01*
X+4169901Y+1160099D01*
X+4500099Y+1160099D01*
X+4500099Y+829901D01*
X+4169901Y+829901D01*
X+4169901Y+886094D01*
X+3855376Y+886094D01*
X+3395768Y+1345702D01*
X-492656Y+1345702D01*
X-784901Y+1053457D01*
X-784901Y+884901D01*
X-835701Y+884901D01*
X-835701Y+883940D01*
X-993940Y+725701D01*
X-2867343Y+725701D01*
X-3026543Y+884901D01*
X-3449099Y+884901D01*
X-3449099Y+1215099D01*
X-3398299Y+1215099D01*
X-3398299Y+1233343D01*
X-3206391Y+1425251D01*
X-1273610Y+1425251D01*
X-1090572Y+1242213D01*
X-1090572Y+1215099D01*
X-946543Y+1215099D01*
X-587344Y+1574298D01*
X-376099Y+1574298D01*
X-376099Y+1885099D01*
X+716099Y+1885099D01*
X+716099Y+1574298D01*
G37*
G36*
X-784901Y+3515099D02*
X-784901Y+3184901D01*
X-1115099Y+3184901D01*
X-1115099Y+3515099D01*
X-784901Y+3515099D01*
G37*
G36*
X+1119901Y+1160099D02*
X+1450099Y+1160099D01*
X+1450099Y+829901D01*
X+1119901Y+829901D01*
X+1119901Y+1160099D01*
G37*
G36*
X+1119901Y+510099D02*
X+1450099Y+510099D01*
X+1450099Y+179901D01*
X+1119901Y+179901D01*
X+1119901Y+510099D01*
G37*
G36*
X+4169901Y+510099D02*
X+4500099Y+510099D01*
X+4500099Y+179901D01*
X+4169901Y+179901D01*
X+4169901Y+510099D01*
G37*
G36*
X+1329099Y+4274901D02*
X+744901Y+4274901D01*
X+744901Y+4605099D01*
X+1329099Y+4605099D01*
X+1329099Y+4274901D01*
G37*
G36*
X-410901Y+4274901D02*
X-995099Y+4274901D01*
X-995099Y+4605099D01*
X-410901Y+4605099D01*
X-410901Y+4274901D01*
G37*
G36*
X+444186Y+3395299D02*
X+2092562Y+3395299D01*
X+2332254Y+3155607D01*
X+2332254Y+3060919D01*
X+2265300Y+2993965D01*
X+2170612Y+2993965D01*
X+1997876Y+3166701D01*
X+444186Y+3166701D01*
X+431485Y+3154000D01*
X+490099Y+3095386D01*
X+490099Y+2958614D01*
X+431485Y+2900000D01*
X+444186Y+2887299D01*
X+3340986Y+2887299D01*
X+3618436Y+2609849D01*
X+3618436Y+2515161D01*
X+3551482Y+2448207D01*
X+3456794Y+2448207D01*
X+3246300Y+2658701D01*
X+444186Y+2658701D01*
X+431485Y+2646000D01*
X+444186Y+2633299D01*
X+2934667Y+2633298D01*
X+3356308Y+2211657D01*
X+3356308Y+2116969D01*
X+3289354Y+2050015D01*
X+3194666Y+2050015D01*
X+2839979Y+2404702D01*
X+444186Y+2404701D01*
X+393386Y+2353901D01*
X+256614Y+2353901D01*
X+159901Y+2450614D01*
X+159901Y+2587386D01*
X+218515Y+2646000D01*
X+159901Y+2704614D01*
X+159901Y+2841386D01*
X+218515Y+2900000D01*
X+159901Y+2958614D01*
X+159901Y+3095386D01*
X+218515Y+3154000D01*
X+159901Y+3212614D01*
X+159901Y+3349386D01*
X+256614Y+3446099D01*
X+393386Y+3446099D01*
X+444186Y+3395299D01*
G37*
G36*
X+3023099Y+4436543D02*
X+4064343Y+3395299D01*
X+4355814Y+3395299D01*
X+4406614Y+3446099D01*
X+4543386Y+3446099D01*
X+4640099Y+3349386D01*
X+4640099Y+3212614D01*
X+4581485Y+3154000D01*
X+4640099Y+3095386D01*
X+4640099Y+2958614D01*
X+4581485Y+2900000D01*
X+4640099Y+2841386D01*
X+4640099Y+2704614D01*
X+4581485Y+2646000D01*
X+4640099Y+2587386D01*
X+4640099Y+2450614D01*
X+4543386Y+2353901D01*
X+4406614Y+2353901D01*
X+4309901Y+2450614D01*
X+4309901Y+2587386D01*
X+4368515Y+2646000D01*
X+4309901Y+2704614D01*
X+4309901Y+2841386D01*
X+4368515Y+2900000D01*
X+4309901Y+2958614D01*
X+4309901Y+3095386D01*
X+4368515Y+3154000D01*
X+4355814Y+3166701D01*
X+3969657Y+3166701D01*
X+2861457Y+4274901D01*
X+2184901Y+4274901D01*
X+2184901Y+4605099D01*
X+3023099Y+4605099D01*
X+3023099Y+4436543D01*
G37*
G36*
X+4652399Y-1608399D02*
X+4613924Y-1608399D01*
X+4652399Y-1646874D01*
X+4652399Y-1773126D01*
X+4588525Y-1837000D01*
X+4652399Y-1900874D01*
X+4652399Y-2027126D01*
X+4588525Y-2091000D01*
X+4652399Y-2154874D01*
X+4652399Y-2281126D01*
X+4588525Y-2345000D01*
X+4652399Y-2408874D01*
X+4652399Y-2535126D01*
X+4588525Y-2599000D01*
X+4652399Y-2662874D01*
X+4652399Y-2789126D01*
X+4588525Y-2853000D01*
X+4652399Y-2916874D01*
X+4652399Y-3043126D01*
X+4563126Y-3132399D01*
X+4436874Y-3132399D01*
X+4347601Y-3043126D01*
X+4347601Y-2916874D01*
X+4411475Y-2853000D01*
X+4347601Y-2789126D01*
X+4347601Y-2662874D01*
X+4411475Y-2599000D01*
X+4347601Y-2535126D01*
X+4347601Y-2408874D01*
X+4411475Y-2345000D01*
X+4347601Y-2281126D01*
X+4347601Y-2154874D01*
X+4411475Y-2091000D01*
X+4347601Y-2027126D01*
X+4347601Y-1900874D01*
X+4411475Y-1837000D01*
X+4347601Y-1773126D01*
X+4347601Y-1646874D01*
X+4386076Y-1608399D01*
X+4347601Y-1608399D01*
X+4347601Y-1303601D01*
X+4652399Y-1303601D01*
X+4652399Y-1608399D01*
G37*
%LPD*%
G36*
X-1950000Y+2650000D02*
X-4800000Y+2650000D01*
X-4800000Y+3936500D01*
X-3973698Y+3936500D01*
X-3965352Y+3944846D01*
X-3450000Y+3950000D01*
X-3450000Y+4800000D01*
X-1950000Y+4800000D01*
X-1950000Y+2650000D01*
G37*
%LPC*%
G36*
X-2144901Y+4274901D02*
X-2729099Y+4274901D01*
X-2729099Y+4605099D01*
X-2144901Y+4605099D01*
X-2144901Y+4274901D01*
G37*
G36*
X-2864901Y+3515099D02*
X-2864901Y+3184901D01*
X-3195099Y+3184901D01*
X-3195099Y+3515099D01*
X-2864901Y+3515099D01*
G37*
G36*
X-4264901Y+3515099D02*
X-4264901Y+3184901D01*
X-4595099Y+3184901D01*
X-4595099Y+3515099D01*
X-4264901Y+3515099D01*
G37*
G36*
X-2184901Y+3515099D02*
X-2184901Y+3184901D01*
X-2515099Y+3184901D01*
X-2515099Y+3515099D01*
X-2184901Y+3515099D01*
G37*
%LPD*%
D11*
X-1204590Y+1050590D02*
X-1204000Y+1050000D01*
X+2858000Y+4440000D02*
X+4017000Y+3281000D01*
X+4475000Y+3281000D01*
D10*
X-1204871Y+1051007D02*
X-1204590Y+1050682D01*
X-1204000Y+1050000D01*
X-1204590Y+1050590D02*
X-1204590Y+1050682D01*
D11*
X-1204871Y+1051007D02*
X-1204871Y+1050871D01*
X-1204590Y+1050590D01*
X-4176000Y+1050000D02*
X-3550355Y+1675645D01*
X-2590985Y+1675645D01*
X-2585427Y+1670087D01*
X-2583575Y+1670087D01*
D10*
X-1204871Y+1053266D02*
X-1204590Y+1052985D01*
X-1204229Y+1052624D01*
X-1204000Y+1052395D01*
X-1204000Y+1050000D01*
X-1204871Y+1060000D02*
X-1204229Y+1052624D01*
X-1204000Y+1050000D01*
X-1204590Y+1050682D02*
X-1204590Y+1052985D01*
X-1204590Y+1059719D01*
X-1204871Y+1060000D01*
D11*
X-1204871Y+1053266D02*
X-1204871Y+1051007D01*
X-3284000Y+1050000D02*
X-3284000Y+1186000D01*
X-3159048Y+1310952D01*
X-1320953Y+1310952D01*
X-1204871Y+1194870D01*
X-1204871Y+1060000D01*
D10*
X-1204871Y+1053266D01*
D11*
X+325000Y+2773000D02*
X+3293643Y+2773000D01*
X+3504138Y+2562505D01*
X+325000Y+2519000D02*
X+2887323Y+2519000D01*
X+3242010Y+2164313D01*
X-3030000Y+1050000D02*
X-2820000Y+840000D01*
X-1041283Y+840000D01*
X-950000Y+931283D01*
X-950000Y+1050000D01*
X-540000Y+1460000D01*
X+3443112Y+1460000D01*
X+3902719Y+1000393D01*
X+4329607Y+1000393D01*
X+4335000Y+995000D01*
X+325000Y+3281000D02*
X+2045219Y+3281000D01*
X+2217956Y+3108263D01*
X+1521836Y-946771D02*
X+86607Y-2382000D01*
X-1080000Y-2382000D01*
X-1080000Y-350000D02*
X-560002Y-349998D01*
X+163047Y-1073047D01*
X+163047Y-1837346D01*
X-1080000Y-3652000D02*
X-402000Y-3652000D01*
X+1200000Y-2050000D01*
X+1540000Y-1710000D01*
X+2000000Y-1710000D01*
D12*
X-2583575Y+1670087D03*
X+3504138Y+2562505D03*
X+3242010Y+2164313D03*
X+2217956Y+3108263D03*
X+1521836Y-946771D03*
X+163047Y-1837346D03*
D13*
X+3936500Y+3973698D02*
X+3973698Y+3936500D01*
X+4790000Y+3936500D01*
X+4790000Y-3936500D01*
X+3973698Y-3936500D01*
X+3936500Y-3973698D01*
X+3936500Y-4800000D01*
X-3936500Y-4800000D01*
X-3936500Y-4753302D01*
X-3926302Y-4763500D01*
X-3273698Y-4763500D01*
X-3236500Y-4726302D01*
X-3236500Y-4173698D01*
X-3273698Y-4136500D01*
X-3926302Y-4136500D01*
X-3936500Y-4146698D01*
X-3936500Y-4023698D01*
X-3973698Y-3986500D01*
X-4810000Y-3986500D01*
X-4810000Y+2548400D01*
X-1907916Y+2548400D01*
X-1848400Y+2607916D01*
X-1848400Y+4800000D01*
X+3936500Y+4800000D01*
X+3936500Y+3973698D01*
X-736500Y-4173698D02*
X-736500Y-4726302D01*
X-773698Y-4763500D01*
X-1426302Y-4763500D01*
X-1463500Y-4726302D01*
X-1463500Y-4173698D01*
X-1426302Y-4136500D01*
X-773698Y-4136500D01*
X-736500Y-4173698D01*
X-3236500Y+506302D02*
X-3236500Y-26302D01*
X-3273698Y-63500D01*
X-3456501Y-63500D01*
X-3456501Y-163724D01*
X-3515777Y-223000D01*
X-3456501Y-282276D01*
X-3456501Y-417724D01*
X-3515777Y-477000D01*
X-3456501Y-536276D01*
X-3456501Y-671724D01*
X-3515777Y-731000D01*
X-3456501Y-790276D01*
X-3456501Y-925724D01*
X-3515777Y-985000D01*
X-3456501Y-1044276D01*
X-3456501Y-1179724D01*
X-3515777Y-1239000D01*
X-3456501Y-1298276D01*
X-3456501Y-1433724D01*
X-3515777Y-1493000D01*
X-3456501Y-1552276D01*
X-3456501Y-1687724D01*
X-3515777Y-1747000D01*
X-3456501Y-1806276D01*
X-3456501Y-1941724D01*
X-3515777Y-2001000D01*
X-3456501Y-2060276D01*
X-3456501Y-2195724D01*
X-3515777Y-2255000D01*
X-3456501Y-2314276D01*
X-3456501Y-2449724D01*
X-3515777Y-2509000D01*
X-3456501Y-2568276D01*
X-3456501Y-2703724D01*
X-3515777Y-2763000D01*
X-3456501Y-2822276D01*
X-3456501Y-2957724D01*
X-3515777Y-3017000D01*
X-3456501Y-3076276D01*
X-3456501Y-3211724D01*
X-3515777Y-3271000D01*
X-3456501Y-3330276D01*
X-3456501Y-3465724D01*
X-3515777Y-3525000D01*
X-3456501Y-3584276D01*
X-3456501Y-3719724D01*
X-3552276Y-3815499D01*
X-3687724Y-3815499D01*
X-3783499Y-3719724D01*
X-3783499Y-3584276D01*
X-3724223Y-3525000D01*
X-3783499Y-3465724D01*
X-3783499Y-3330276D01*
X-3724223Y-3271000D01*
X-3783499Y-3211724D01*
X-3783499Y-3076276D01*
X-3724223Y-3017000D01*
X-3783499Y-2957724D01*
X-3783499Y-2822276D01*
X-3724223Y-2763000D01*
X-3783499Y-2703724D01*
X-3783499Y-2568276D01*
X-3724223Y-2509000D01*
X-3783499Y-2449724D01*
X-3783499Y-2314276D01*
X-3724223Y-2255000D01*
X-3783499Y-2195724D01*
X-3783499Y-2060276D01*
X-3724223Y-2001000D01*
X-3783499Y-1941724D01*
X-3783499Y-1806276D01*
X-3724223Y-1747000D01*
X-3783499Y-1687724D01*
X-3783499Y-1552276D01*
X-3724223Y-1493000D01*
X-3783499Y-1433724D01*
X-3783499Y-1298276D01*
X-3724223Y-1239000D01*
X-3783499Y-1179724D01*
X-3783499Y-1044276D01*
X-3724223Y-985000D01*
X-3783499Y-925724D01*
X-3783499Y-790276D01*
X-3724223Y-731000D01*
X-3783499Y-671724D01*
X-3783499Y-536276D01*
X-3724223Y-477000D01*
X-3783499Y-417724D01*
X-3783499Y-282276D01*
X-3724223Y-223000D01*
X-3783499Y-163724D01*
X-3783499Y-63500D01*
X-3926302Y-63500D01*
X-3963500Y-26302D01*
X-3963500Y+506302D01*
X-3926302Y+543500D01*
X-3273698Y+543500D01*
X-3236500Y+506302D01*
X-736500Y+466302D02*
X-736500Y-26302D01*
X-773698Y-63500D01*
X-916501Y-63500D01*
X-916501Y-163724D01*
X-975777Y-223000D01*
X-963076Y-235701D01*
X-512658Y-235700D01*
X+277346Y-1025704D01*
X+277346Y-1884690D01*
X+210391Y-1951645D01*
X+115703Y-1951645D01*
X+48748Y-1884690D01*
X+48748Y-1120390D01*
X-607346Y-464296D01*
X-963075Y-464298D01*
X-975777Y-477000D01*
X-916501Y-536276D01*
X-916501Y-671724D01*
X-975777Y-731000D01*
X-916501Y-790276D01*
X-916501Y-925724D01*
X-975777Y-985000D01*
X-916501Y-1044276D01*
X-916501Y-1179724D01*
X-975777Y-1239000D01*
X-916501Y-1298276D01*
X-916501Y-1433724D01*
X-975777Y-1493000D01*
X-916501Y-1552276D01*
X-916501Y-1687724D01*
X-975777Y-1747000D01*
X-916501Y-1806276D01*
X-916501Y-1941724D01*
X-975777Y-2001000D01*
X-916501Y-2060276D01*
X-916501Y-2195724D01*
X-975777Y-2255000D01*
X-963076Y-2267701D01*
X+39264Y-2267701D01*
X+1474492Y-832473D01*
X+1569180Y-832473D01*
X+1636134Y-899427D01*
X+1636134Y-994115D01*
X+133950Y-2496299D01*
X-963076Y-2496299D01*
X-975777Y-2509000D01*
X-916501Y-2568276D01*
X-916501Y-2703724D01*
X-975777Y-2763000D01*
X-916501Y-2822276D01*
X-916501Y-2957724D01*
X-975777Y-3017000D01*
X-916501Y-3076276D01*
X-916501Y-3211724D01*
X-975777Y-3271000D01*
X-916501Y-3330276D01*
X-916501Y-3465724D01*
X-939278Y-3488501D01*
X-916501Y-3488501D01*
X-916501Y-3537701D01*
X-449343Y-3537701D01*
X+1492657Y-1595701D01*
X+1847601Y-1595701D01*
X+1847601Y-1303601D01*
X+2152399Y-1303601D01*
X+2152399Y-1608399D01*
X+2113924Y-1608399D01*
X+2152399Y-1646874D01*
X+2152399Y-1773126D01*
X+2088525Y-1837000D01*
X+2152399Y-1900874D01*
X+2152399Y-2027126D01*
X+2088525Y-2091000D01*
X+2152399Y-2154874D01*
X+2152399Y-2281126D01*
X+2088525Y-2345000D01*
X+2152399Y-2408874D01*
X+2152399Y-2535126D01*
X+2063126Y-2624399D01*
X+1936874Y-2624399D01*
X+1847601Y-2535126D01*
X+1847601Y-2408874D01*
X+1911475Y-2345000D01*
X+1847601Y-2281126D01*
X+1847601Y-2154874D01*
X+1911475Y-2091000D01*
X+1847601Y-2027126D01*
X+1847601Y-1900874D01*
X+1911475Y-1837000D01*
X+1898774Y-1824299D01*
X+1587343Y-1824299D01*
X-354657Y-3766299D01*
X-916501Y-3766299D01*
X-916501Y-3815499D01*
X-1243499Y-3815499D01*
X-1243499Y-3488501D01*
X-1220722Y-3488501D01*
X-1243499Y-3465724D01*
X-1243499Y-3330276D01*
X-1184223Y-3271000D01*
X-1243499Y-3211724D01*
X-1243499Y-3076276D01*
X-1184223Y-3017000D01*
X-1243499Y-2957724D01*
X-1243499Y-2822276D01*
X-1184223Y-2763000D01*
X-1243499Y-2703724D01*
X-1243499Y-2568276D01*
X-1184223Y-2509000D01*
X-1243499Y-2449724D01*
X-1243499Y-2314276D01*
X-1184223Y-2255000D01*
X-1243499Y-2195724D01*
X-1243499Y-2060276D01*
X-1184223Y-2001000D01*
X-1243499Y-1941724D01*
X-1243499Y-1806276D01*
X-1184223Y-1747000D01*
X-1243499Y-1687724D01*
X-1243499Y-1552276D01*
X-1184223Y-1493000D01*
X-1243499Y-1433724D01*
X-1243499Y-1298276D01*
X-1184223Y-1239000D01*
X-1243499Y-1179724D01*
X-1243499Y-1044276D01*
X-1184223Y-985000D01*
X-1243499Y-925724D01*
X-1243499Y-790276D01*
X-1184223Y-731000D01*
X-1243499Y-671724D01*
X-1243499Y-536276D01*
X-1184223Y-477000D01*
X-1243499Y-417724D01*
X-1243499Y-282276D01*
X-1184223Y-223000D01*
X-1243499Y-163724D01*
X-1243499Y-63500D01*
X-1526302Y-63500D01*
X-1563500Y-26302D01*
X-1563500Y+466302D01*
X-1526302Y+503500D01*
X-773698Y+503500D01*
X-736500Y+466302D01*
X-2538084Y+1784386D02*
X-2536231Y+1784386D01*
X-2469276Y+1717431D01*
X-2469276Y+1622743D01*
X-2536231Y+1555788D01*
X-2632771Y+1555789D01*
X-2638328Y+1561346D01*
X-3503012Y+1561346D01*
X-4010901Y+1053457D01*
X-4010901Y+884901D01*
X-4595099Y+884901D01*
X-4595099Y+1215099D01*
X-4172543Y+1215099D01*
X-3597698Y+1789944D01*
X-2543642Y+1789944D01*
X-2538084Y+1784386D01*
X+716099Y+1574298D02*
X+3490456Y+1574298D01*
X+3950062Y+1114692D01*
X+4169901Y+1114692D01*
X+4169901Y+1160099D01*
X+4500099Y+1160099D01*
X+4500099Y+829901D01*
X+4169901Y+829901D01*
X+4169901Y+886094D01*
X+3855376Y+886094D01*
X+3395768Y+1345702D01*
X-492656Y+1345702D01*
X-784901Y+1053457D01*
X-784901Y+884901D01*
X-835701Y+884901D01*
X-835701Y+883940D01*
X-993940Y+725701D01*
X-2867343Y+725701D01*
X-3026543Y+884901D01*
X-3449099Y+884901D01*
X-3449099Y+1215099D01*
X-3398299Y+1215099D01*
X-3398299Y+1233343D01*
X-3206391Y+1425251D01*
X-1273610Y+1425251D01*
X-1090572Y+1242213D01*
X-1090572Y+1215099D01*
X-946543Y+1215099D01*
X-587344Y+1574298D01*
X-376099Y+1574298D01*
X-376099Y+1885099D01*
X+716099Y+1885099D01*
X+716099Y+1574298D01*
X-784901Y+3515099D02*
X-784901Y+3184901D01*
X-1115099Y+3184901D01*
X-1115099Y+3515099D01*
X-784901Y+3515099D01*
X+1119901Y+1160099D02*
X+1450099Y+1160099D01*
X+1450099Y+829901D01*
X+1119901Y+829901D01*
X+1119901Y+1160099D01*
X+1119901Y+510099D02*
X+1450099Y+510099D01*
X+1450099Y+179901D01*
X+1119901Y+179901D01*
X+1119901Y+510099D01*
X+4169901Y+510099D02*
X+4500099Y+510099D01*
X+4500099Y+179901D01*
X+4169901Y+179901D01*
X+4169901Y+510099D01*
X+1329099Y+4274901D02*
X+744901Y+4274901D01*
X+744901Y+4605099D01*
X+1329099Y+4605099D01*
X+1329099Y+4274901D01*
X-410901Y+4274901D02*
X-995099Y+4274901D01*
X-995099Y+4605099D01*
X-410901Y+4605099D01*
X-410901Y+4274901D01*
X+444186Y+3395299D02*
X+2092562Y+3395299D01*
X+2332254Y+3155607D01*
X+2332254Y+3060919D01*
X+2265300Y+2993965D01*
X+2170612Y+2993965D01*
X+1997876Y+3166701D01*
X+444186Y+3166701D01*
X+431485Y+3154000D01*
X+490099Y+3095386D01*
X+490099Y+2958614D01*
X+431485Y+2900000D01*
X+444186Y+2887299D01*
X+3340986Y+2887299D01*
X+3618436Y+2609849D01*
X+3618436Y+2515161D01*
X+3551482Y+2448207D01*
X+3456794Y+2448207D01*
X+3246300Y+2658701D01*
X+444186Y+2658701D01*
X+431485Y+2646000D01*
X+444186Y+2633299D01*
X+2934667Y+2633298D01*
X+3356308Y+2211657D01*
X+3356308Y+2116969D01*
X+3289354Y+2050015D01*
X+3194666Y+2050015D01*
X+2839979Y+2404702D01*
X+444186Y+2404701D01*
X+393386Y+2353901D01*
X+256614Y+2353901D01*
X+159901Y+2450614D01*
X+159901Y+2587386D01*
X+218515Y+2646000D01*
X+159901Y+2704614D01*
X+159901Y+2841386D01*
X+218515Y+2900000D01*
X+159901Y+2958614D01*
X+159901Y+3095386D01*
X+218515Y+3154000D01*
X+159901Y+3212614D01*
X+159901Y+3349386D01*
X+256614Y+3446099D01*
X+393386Y+3446099D01*
X+444186Y+3395299D01*
X+3023099Y+4436543D02*
X+4064343Y+3395299D01*
X+4355814Y+3395299D01*
X+4406614Y+3446099D01*
X+4543386Y+3446099D01*
X+4640099Y+3349386D01*
X+4640099Y+3212614D01*
X+4581485Y+3154000D01*
X+4640099Y+3095386D01*
X+4640099Y+2958614D01*
X+4581485Y+2900000D01*
X+4640099Y+2841386D01*
X+4640099Y+2704614D01*
X+4581485Y+2646000D01*
X+4640099Y+2587386D01*
X+4640099Y+2450614D01*
X+4543386Y+2353901D01*
X+4406614Y+2353901D01*
X+4309901Y+2450614D01*
X+4309901Y+2587386D01*
X+4368515Y+2646000D01*
X+4309901Y+2704614D01*
X+4309901Y+2841386D01*
X+4368515Y+2900000D01*
X+4309901Y+2958614D01*
X+4309901Y+3095386D01*
X+4368515Y+3154000D01*
X+4355814Y+3166701D01*
X+3969657Y+3166701D01*
X+2861457Y+4274901D01*
X+2184901Y+4274901D01*
X+2184901Y+4605099D01*
X+3023099Y+4605099D01*
X+3023099Y+4436543D01*
X+4652399Y-1608399D02*
X+4613924Y-1608399D01*
X+4652399Y-1646874D01*
X+4652399Y-1773126D01*
X+4588525Y-1837000D01*
X+4652399Y-1900874D01*
X+4652399Y-2027126D01*
X+4588525Y-2091000D01*
X+4652399Y-2154874D01*
X+4652399Y-2281126D01*
X+4588525Y-2345000D01*
X+4652399Y-2408874D01*
X+4652399Y-2535126D01*
X+4588525Y-2599000D01*
X+4652399Y-2662874D01*
X+4652399Y-2789126D01*
X+4588525Y-2853000D01*
X+4652399Y-2916874D01*
X+4652399Y-3043126D01*
X+4563126Y-3132399D01*
X+4436874Y-3132399D01*
X+4347601Y-3043126D01*
X+4347601Y-2916874D01*
X+4411475Y-2853000D01*
X+4347601Y-2789126D01*
X+4347601Y-2662874D01*
X+4411475Y-2599000D01*
X+4347601Y-2535126D01*
X+4347601Y-2408874D01*
X+4411475Y-2345000D01*
X+4347601Y-2281126D01*
X+4347601Y-2154874D01*
X+4411475Y-2091000D01*
X+4347601Y-2027126D01*
X+4347601Y-1900874D01*
X+4411475Y-1837000D01*
X+4347601Y-1773126D01*
X+4347601Y-1646874D01*
X+4386076Y-1608399D01*
X+4347601Y-1608399D01*
X+4347601Y-1303601D01*
X+4652399Y-1303601D01*
X+4652399Y-1608399D01*
X+1119901Y+345000D02*
X+1285000Y+345000D01*
X+1450099Y+345000D02*
X+1285000Y+345000D01*
X+1285000Y+179901D02*
X+1285000Y+345000D01*
X+1285000Y+510099D02*
X+1285000Y+345000D01*
X+1329099Y+4440000D02*
X+1164000Y+4440000D01*
X+1164000Y+4274901D02*
X+1164000Y+4440000D01*
X+1164000Y+4605099D02*
X+1164000Y+4440000D01*
X+4309901Y+2519000D02*
X+4475000Y+2519000D01*
X+4640099Y+2519000D02*
X+4475000Y+2519000D01*
X+4475000Y+2353901D02*
X+4475000Y+2519000D01*
X+2184901Y+4440000D02*
X+2350000Y+4440000D01*
X+2350000Y+4605099D02*
X+2350000Y+4440000D01*
X+2350000Y+4274901D02*
X+2350000Y+4440000D01*
X-916501Y-3398000D02*
X-1080000Y-3398000D01*
X-1243499Y-3398000D02*
X-1080000Y-3398000D01*
X-3456501Y-3398000D02*
X-3620000Y-3398000D01*
X-3783499Y-3398000D02*
X-3620000Y-3398000D01*
X+43000Y+1885099D02*
X+43000Y+1720000D01*
X+2000000Y-1303601D02*
X+2000000Y-1456000D01*
X+1847601Y-1456000D02*
X+2000000Y-1456000D01*
X+2152399Y-1456000D02*
X+2000000Y-1456000D01*
X+4347601Y-1710000D02*
X+4500000Y-1710000D01*
X+4652399Y-1710000D02*
X+4500000Y-1710000D01*
X-1950000Y+2650000D02*
X-4800000Y+2650000D01*
X-4800000Y+3936500D01*
X-3973698Y+3936500D01*
X-3965352Y+3944846D01*
X-3450000Y+3950000D01*
X-3450000Y+4800000D01*
X-1950000Y+4800000D01*
X-1950000Y+2650000D01*
X-2144901Y+4274901D02*
X-2729099Y+4274901D01*
X-2729099Y+4605099D01*
X-2144901Y+4605099D01*
X-2144901Y+4274901D01*
X-2864901Y+3515099D02*
X-2864901Y+3184901D01*
X-3195099Y+3184901D01*
X-3195099Y+3515099D01*
X-2864901Y+3515099D01*
X-4264901Y+3515099D02*
X-4264901Y+3184901D01*
X-4595099Y+3184901D01*
X-4595099Y+3515099D01*
X-4264901Y+3515099D01*
X-2184901Y+3515099D02*
X-2184901Y+3184901D01*
X-2515099Y+3184901D01*
X-2515099Y+3515099D01*
X-2184901Y+3515099D01*
X-2729099Y+4440000D02*
X-2564000Y+4440000D01*
X-2564000Y+4605099D02*
X-2564000Y+4440000D01*
X-2564000Y+4274901D02*
X-2564000Y+4440000D01*
X-4430000Y+3515099D02*
X-4430000Y+3350000D01*
X-4430000Y+3184901D02*
X-4430000Y+3350000D01*
X-4595099Y+3350000D02*
X-4430000Y+3350000D01*
X-4264901Y+3350000D02*
X-4430000Y+3350000D01*
X-2350000Y+3515099D02*
X-2350000Y+3350000D01*
X-2350000Y+3184901D02*
X-2350000Y+3350000D01*
X-2515099Y+3350000D02*
X-2350000Y+3350000D01*
X-2184901Y+3350000D02*
X-2350000Y+3350000D01*
D14*
X-2310000Y+4440000D03*
X-2564000Y+4440000D03*
X-3030000Y+3350000D03*
X-4430000Y+3350000D03*
X-4430000Y+1050000D03*
X-4176000Y+1050000D03*
X-3284000Y+1050000D03*
X-3030000Y+1050000D03*
X-950000Y+3350000D03*
X-2350000Y+3350000D03*
X-2350000Y+1050000D03*
X-2096000Y+1050000D03*
X-1204000Y+1050000D03*
X-950000Y+1050000D03*
X+1285000Y+995000D03*
X+1285000Y+345000D03*
X+4335000Y+345000D03*
X+4335000Y+995000D03*
X+910000Y+4440000D03*
X+1164000Y+4440000D03*
X-830000Y+4440000D03*
X-576000Y+4440000D03*
D15*
X+325000Y+3281000D03*
X+325000Y+3027000D03*
X+325000Y+2773000D03*
X+325000Y+2519000D03*
X+4475000Y+2519000D03*
X+4475000Y+2773000D03*
X+4475000Y+3027000D03*
X+4475000Y+3281000D03*
D14*
X+2858000Y+4440000D03*
X+2604000Y+4440000D03*
X+2350000Y+4440000D03*
D16*
X-1080000Y-3652000D03*
D17*
X-1080000Y-3398000D03*
X-1080000Y-3144000D03*
X-1080000Y-2890000D03*
X-1080000Y-2636000D03*
X-1080000Y-2382000D03*
X-1080000Y-2128000D03*
X-1080000Y-1874000D03*
X-1080000Y-1620000D03*
X-1080000Y-1366000D03*
X-1080000Y-1112000D03*
X-1080000Y-858000D03*
X-1080000Y-604000D03*
X-1080000Y-350000D03*
X-1080000Y-96000D03*
X-3620000Y-96000D03*
X-3620000Y-350000D03*
X-3620000Y-604000D03*
X-3620000Y-858000D03*
X-3620000Y-1112000D03*
X-3620000Y-1366000D03*
X-3620000Y-1620000D03*
X-3620000Y-1874000D03*
X-3620000Y-2128000D03*
X-3620000Y-2382000D03*
X-3620000Y-2636000D03*
X-3620000Y-2890000D03*
X-3620000Y-3144000D03*
X-3620000Y-3398000D03*
X-3620000Y-3652000D03*
D18*
X-1122000Y+247000D03*
X-3573010Y+247000D03*
X-3573010Y-4447000D03*
X-1122000Y-4447000D03*
D14*
X-211000Y+1720000D03*
X+43000Y+1720000D03*
X+297000Y+1720000D03*
X+551000Y+1720000D03*
D19*
X+2000000Y-1456000D03*
D70*
X+2000000Y-1710000D03*
X+2000000Y-1964000D03*
X+2000000Y-2218000D03*
X+2000000Y-2472000D03*
X+4500000Y-2980000D03*
X+4500000Y-2726000D03*
X+4500000Y-2472000D03*
X+4500000Y-2218000D03*
X+4500000Y-1964000D03*
X+4500000Y-1710000D03*
D19*
X+4500000Y-1456000D03*
D71*
X-5000000Y-5000000D02*
X+5000000Y-5000000D01*
X+5000000Y+5000000D01*
X-5000000Y+5000000D01*
X-5000000Y-5000000D01*
M02*
